<?xml version="1.0" encoding="utf-8" standalone="no"?>
<!DOCTYPE svg PUBLIC "-//W3C//DTD SVG 1.1//EN"
  "http://www.w3.org/Graphics/SVG/1.1/DTD/svg11.dtd">
<svg xmlns:xlink="http://www.w3.org/1999/xlink" width="288pt" height="243.6pt" viewBox="0 0 288 243.6" xmlns="http://www.w3.org/2000/svg" version="1.1">
 <metadata>
  <rdf:RDF xmlns:dc="http://purl.org/dc/elements/1.1/" xmlns:cc="http://creativecommons.org/ns#" xmlns:rdf="http://www.w3.org/1999/02/22-rdf-syntax-ns#">
   <cc:Work>
    <dc:type rdf:resource="http://purl.org/dc/dcmitype/StillImage"/>
    <dc:date>2022-04-01T20:05:04.834679</dc:date>
    <dc:format>image/svg+xml</dc:format>
    <dc:creator>
     <cc:Agent>
      <dc:title>Matplotlib v3.5.0, https://matplotlib.org/</dc:title>
     </cc:Agent>
    </dc:creator>
   </cc:Work>
  </rdf:RDF>
 </metadata>
 <defs>
  <style type="text/css">*{stroke-linejoin: round; stroke-linecap: butt}</style>
 </defs>
 <g id="figure_1">
  <g id="patch_1">
   <path d="M 0 243.6 
L 288 243.6 
L 288 0 
L 0 0 
z
" style="fill: #ffffff"/>
  </g>
  <g id="axes_1">
   <g id="patch_2">
    <path d="M 36 216.804 
L 259.2 216.804 
L 259.2 29.232 
L 36 29.232 
z
" style="fill: #ffffff"/>
   </g>
   <g id="PathCollection_1">
    <path d="M 136.212245 168.387352 
L 140.767347 169.358841 
L 145.322449 169.848606 
L 149.877551 169.848606 
L 154.432653 169.358841 
L 158.987755 168.387352 
L 163.25791 167.04 
L 163.542857 166.948971 
L 168.097959 165.046113 
L 171.700159 163.212 
L 172.653061 162.712385 
L 177.208163 159.934496 
L 178.011385 159.384 
L 181.763265 156.688163 
L 183.203849 155.556 
L 186.318367 152.938633 
L 187.665576 151.728 
L 190.873469 148.575009 
L 191.528529 147.9 
L 194.834058 144.072 
L 195.428571 143.271204 
L 197.611061 140.244 
L 199.875354 136.416 
L 199.983673 136.176537 
L 201.586945 132.588 
L 202.742962 128.76 
L 203.325755 124.932 
L 203.325755 121.104 
L 202.742962 117.276 
L 201.586945 113.448 
L 199.983673 109.859463 
L 199.875354 109.62 
L 197.611061 105.792 
L 195.428571 102.764796 
L 194.834058 101.964 
L 191.528529 98.136 
L 190.873469 97.460991 
L 187.665576 94.308 
L 186.318367 93.097367 
L 183.203849 90.48 
L 181.763265 89.347837 
L 178.011385 86.652 
L 177.208163 86.101504 
L 172.653061 83.323615 
L 171.700159 82.824 
L 168.097959 80.989887 
L 163.542857 79.087029 
L 163.25791 78.996 
L 158.987755 77.648648 
L 154.432653 76.677159 
L 149.877551 76.187394 
L 145.322449 76.187394 
L 140.767347 76.677159 
L 136.212245 77.648648 
L 131.94209 78.996 
L 131.657143 79.087029 
L 127.102041 80.989887 
L 123.499841 82.824 
L 122.546939 83.323615 
L 117.991837 86.101504 
L 117.188615 86.652 
L 113.436735 89.347837 
L 111.996151 90.48 
L 108.881633 93.097367 
L 107.534424 94.308 
L 104.326531 97.460991 
L 103.671471 98.136 
L 100.365942 101.964 
L 99.771429 102.764796 
L 97.588939 105.792 
L 95.324646 109.62 
L 95.216327 109.859463 
L 93.613055 113.448 
L 92.457038 117.276 
L 91.874245 121.104 
L 91.874245 124.932 
L 92.457038 128.76 
L 93.613055 132.588 
L 95.216327 136.176537 
L 95.324646 136.416 
L 97.588939 140.244 
L 99.771429 143.271204 
L 100.365942 144.072 
L 103.671471 147.9 
L 104.326531 148.575009 
L 107.534424 151.728 
L 108.881633 152.938633 
L 111.996151 155.556 
L 113.436735 156.688163 
L 117.188615 159.384 
L 117.991837 159.934496 
L 122.546939 162.712385 
L 123.499841 163.212 
L 127.102041 165.046113 
L 131.657143 166.948971 
L 131.94209 167.04 
z
" clip-path="url(#p9273612f28)" style="fill: #87cefa"/>
   </g>
   <g id="PathCollection_2">
    <path d="M 40.555102 216.804 
L 45.110204 216.804 
L 49.665306 216.804 
L 54.220408 216.804 
L 58.77551 216.804 
L 63.330612 216.804 
L 67.885714 216.804 
L 72.440816 216.804 
L 76.995918 216.804 
L 81.55102 216.804 
L 86.106122 216.804 
L 90.661224 216.804 
L 95.216327 216.804 
L 99.771429 216.804 
L 104.326531 216.804 
L 108.881633 216.804 
L 113.436735 216.804 
L 117.991837 216.804 
L 122.546939 216.804 
L 127.102041 216.804 
L 131.657143 216.804 
L 136.212245 216.804 
L 140.767347 216.804 
L 145.322449 216.804 
L 149.877551 216.804 
L 154.432653 216.804 
L 158.987755 216.804 
L 163.542857 216.804 
L 168.097959 216.804 
L 172.653061 216.804 
L 177.208163 216.804 
L 181.763265 216.804 
L 186.318367 216.804 
L 190.873469 216.804 
L 195.428571 216.804 
L 199.983673 216.804 
L 204.538776 216.804 
L 209.093878 216.804 
L 213.64898 216.804 
L 218.204082 216.804 
L 222.759184 216.804 
L 227.314286 216.804 
L 231.869388 216.804 
L 236.42449 216.804 
L 240.979592 216.804 
L 245.534694 216.804 
L 250.089796 216.804 
L 254.644898 216.804 
L 259.2 216.804 
L 259.2 212.976 
L 259.2 209.148 
L 259.2 205.32 
L 259.2 201.492 
L 259.2 197.664 
L 259.2 193.836 
L 259.2 190.008 
L 259.2 186.18 
L 259.2 182.352 
L 259.2 178.524 
L 259.2 174.696 
L 259.2 170.868 
L 259.2 167.04 
L 259.2 163.212 
L 259.2 159.384 
L 259.2 155.556 
L 259.2 151.728 
L 259.2 147.9 
L 259.2 144.072 
L 259.2 140.244 
L 259.2 136.416 
L 259.2 132.588 
L 259.2 128.76 
L 259.2 124.932 
L 259.2 121.104 
L 259.2 117.276 
L 259.2 113.448 
L 259.2 109.62 
L 259.2 105.792 
L 259.2 101.964 
L 259.2 98.136 
L 259.2 94.308 
L 259.2 90.48 
L 259.2 86.652 
L 259.2 82.824 
L 259.2 78.996 
L 259.2 75.168 
L 259.2 71.34 
L 259.2 67.512 
L 259.2 63.684 
L 259.2 59.856 
L 259.2 56.028 
L 259.2 52.2 
L 259.2 48.372 
L 259.2 44.544 
L 259.2 40.716 
L 259.2 36.888 
L 259.2 33.06 
L 259.2 29.232 
L 254.644898 29.232 
L 250.089796 29.232 
L 245.534694 29.232 
L 240.979592 29.232 
L 236.42449 29.232 
L 231.869388 29.232 
L 227.314286 29.232 
L 222.759184 29.232 
L 218.204082 29.232 
L 213.64898 29.232 
L 209.093878 29.232 
L 204.538776 29.232 
L 199.983673 29.232 
L 195.428571 29.232 
L 190.873469 29.232 
L 186.318367 29.232 
L 181.763265 29.232 
L 177.208163 29.232 
L 172.653061 29.232 
L 168.097959 29.232 
L 163.542857 29.232 
L 158.987755 29.232 
L 154.432653 29.232 
L 149.877551 29.232 
L 145.322449 29.232 
L 140.767347 29.232 
L 136.212245 29.232 
L 131.657143 29.232 
L 127.102041 29.232 
L 122.546939 29.232 
L 117.991837 29.232 
L 113.436735 29.232 
L 108.881633 29.232 
L 104.326531 29.232 
L 99.771429 29.232 
L 95.216327 29.232 
L 90.661224 29.232 
L 86.106122 29.232 
L 81.55102 29.232 
L 76.995918 29.232 
L 72.440816 29.232 
L 67.885714 29.232 
L 63.330612 29.232 
L 58.77551 29.232 
L 54.220408 29.232 
L 49.665306 29.232 
L 45.110204 29.232 
L 40.555102 29.232 
L 36 29.232 
L 36 33.06 
L 36 36.888 
L 36 40.716 
L 36 44.544 
L 36 48.372 
L 36 52.2 
L 36 56.028 
L 36 59.856 
L 36 63.684 
L 36 67.512 
L 36 71.34 
L 36 75.168 
L 36 78.996 
L 36 82.824 
L 36 86.652 
L 36 90.48 
L 36 94.308 
L 36 98.136 
L 36 101.964 
L 36 105.792 
L 36 109.62 
L 36 113.448 
L 36 117.276 
L 36 121.104 
L 36 124.932 
L 36 128.76 
L 36 132.588 
L 36 136.416 
L 36 140.244 
L 36 144.072 
L 36 147.9 
L 36 151.728 
L 36 155.556 
L 36 159.384 
L 36 163.212 
L 36 167.04 
L 36 170.868 
L 36 174.696 
L 36 178.524 
L 36 182.352 
L 36 186.18 
L 36 190.008 
L 36 193.836 
L 36 197.664 
L 36 201.492 
L 36 205.32 
L 36 209.148 
L 36 212.976 
L 36 216.804 
z
M 131.94209 167.04 
L 131.657143 166.948971 
L 127.102041 165.046113 
L 123.499841 163.212 
L 122.546939 162.712385 
L 117.991837 159.934496 
L 117.188615 159.384 
L 113.436735 156.688163 
L 111.996151 155.556 
L 108.881633 152.938633 
L 107.534424 151.728 
L 104.326531 148.575009 
L 103.671471 147.9 
L 100.365942 144.072 
L 99.771429 143.271204 
L 97.588939 140.244 
L 95.324646 136.416 
L 95.216327 136.176537 
L 93.613055 132.588 
L 92.457038 128.76 
L 91.874245 124.932 
L 91.874245 121.104 
L 92.457038 117.276 
L 93.613055 113.448 
L 95.216327 109.859463 
L 95.324646 109.62 
L 97.588939 105.792 
L 99.771429 102.764796 
L 100.365942 101.964 
L 103.671471 98.136 
L 104.326531 97.460991 
L 107.534424 94.308 
L 108.881633 93.097367 
L 111.996151 90.48 
L 113.436735 89.347837 
L 117.188615 86.652 
L 117.991837 86.101504 
L 122.546939 83.323615 
L 123.499841 82.824 
L 127.102041 80.989887 
L 131.657143 79.087029 
L 131.94209 78.996 
L 136.212245 77.648648 
L 140.767347 76.677159 
L 145.322449 76.187394 
L 149.877551 76.187394 
L 154.432653 76.677159 
L 158.987755 77.648648 
L 163.25791 78.996 
L 163.542857 79.087029 
L 168.097959 80.989887 
L 171.700159 82.824 
L 172.653061 83.323615 
L 177.208163 86.101504 
L 178.011385 86.652 
L 181.763265 89.347837 
L 183.203849 90.48 
L 186.318367 93.097367 
L 187.665576 94.308 
L 190.873469 97.460991 
L 191.528529 98.136 
L 194.834058 101.964 
L 195.428571 102.764796 
L 197.611061 105.792 
L 199.875354 109.62 
L 199.983673 109.859463 
L 201.586945 113.448 
L 202.742962 117.276 
L 203.325755 121.104 
L 203.325755 124.932 
L 202.742962 128.76 
L 201.586945 132.588 
L 199.983673 136.176537 
L 199.875354 136.416 
L 197.611061 140.244 
L 195.428571 143.271204 
L 194.834058 144.072 
L 191.528529 147.9 
L 190.873469 148.575009 
L 187.665576 151.728 
L 186.318367 152.938633 
L 183.203849 155.556 
L 181.763265 156.688163 
L 178.011385 159.384 
L 177.208163 159.934496 
L 172.653061 162.712385 
L 171.700159 163.212 
L 168.097959 165.046113 
L 163.542857 166.948971 
L 163.25791 167.04 
L 158.987755 168.387352 
L 154.432653 169.358841 
L 149.877551 169.848606 
L 145.322449 169.848606 
L 140.767347 169.358841 
L 136.212245 168.387352 
z
" clip-path="url(#p9273612f28)" style="fill: #ffe4e1"/>
   </g>
   <g id="matplotlib.axis_1">
    <g id="xtick_1">
     <g id="line2d_1">
      <defs>
       <path id="m6564d0e748" d="M 0 0 
L 0 3.5 
" style="stroke: #000000; stroke-width: 0.8"/>
      </defs>
      <g>
       <use xlink:href="#m6564d0e748" x="36" y="216.804" style="stroke: #000000; stroke-width: 0.8"/>
      </g>
     </g>
     <g id="line2d_2">
      <defs>
       <path id="m49e4f1ea95" d="M 0 0 
L 0 -3.5 
" style="stroke: #000000; stroke-width: 0.8"/>
      </defs>
      <g>
       <use xlink:href="#m49e4f1ea95" x="36" y="29.232" style="stroke: #000000; stroke-width: 0.8"/>
      </g>
     </g>
     <g id="text_1">
      <!-- $-\pi$ -->
      <g transform="translate(30.039184 229.567102)scale(0.0833 -0.0833)">
       <defs>
        <path id="CMSY10-0" d="M 4218 1472 
C 4326 1472 4442 1472 4442 1600 
C 4442 1728 4326 1728 4218 1728 
L 755 1728 
C 646 1728 531 1728 531 1600 
C 531 1472 646 1472 755 1472 
L 4218 1472 
z
" transform="scale(0.015625)"/>
        <path id="CMMI12-19" d="M 1658 2406 
L 2381 2406 
C 2208 1691 2099 1225 2099 715 
C 2099 625 2099 -64 2362 -64 
C 2496 -64 2611 57 2611 166 
C 2611 198 2611 210 2566 306 
C 2394 746 2394 1295 2394 1340 
C 2394 1378 2394 1832 2528 2406 
L 3245 2406 
C 3328 2406 3539 2406 3539 2611 
C 3539 2752 3418 2752 3302 2752 
L 1197 2752 
C 1050 2752 832 2752 538 2438 
C 371 2253 166 1915 166 1876 
C 166 1838 198 1825 237 1825 
C 282 1825 288 1844 320 1883 
C 653 2406 986 2406 1146 2406 
L 1510 2406 
C 1370 1927 1210 1372 685 255 
C 634 153 634 140 634 102 
C 634 -32 749 -64 806 -64 
C 992 -64 1043 102 1120 370 
C 1222 695 1222 708 1286 964 
L 1658 2406 
z
" transform="scale(0.015625)"/>
       </defs>
       <use xlink:href="#CMSY10-0" transform="scale(0.996264)"/>
       <use xlink:href="#CMMI12-19" transform="translate(77.487468 0)scale(0.996264)"/>
      </g>
     </g>
    </g>
    <g id="xtick_2">
     <g id="line2d_3">
      <g>
       <use xlink:href="#m6564d0e748" x="91.8" y="216.804" style="stroke: #000000; stroke-width: 0.8"/>
      </g>
     </g>
     <g id="line2d_4">
      <g>
       <use xlink:href="#m49e4f1ea95" x="91.8" y="29.232" style="stroke: #000000; stroke-width: 0.8"/>
      </g>
     </g>
     <g id="text_2">
      <!-- $-\frac{\pi}{2}$ -->
      <g transform="translate(85.254804 229.698005)scale(0.0833 -0.0833)">
       <defs>
        <path id="CMR17-32" d="M 2669 990 
L 2554 990 
C 2490 537 2438 460 2413 422 
C 2381 371 1920 371 1830 371 
L 602 371 
C 832 620 1280 1073 1824 1596 
C 2214 1966 2669 2400 2669 3033 
C 2669 3788 2067 4224 1395 4224 
C 691 4224 262 3603 262 3027 
C 262 2777 448 2745 525 2745 
C 589 2745 781 2783 781 3007 
C 781 3206 614 3264 525 3264 
C 486 3264 448 3257 422 3244 
C 544 3788 915 4057 1306 4057 
C 1862 4057 2227 3616 2227 3033 
C 2227 2477 1901 1998 1536 1583 
L 262 147 
L 262 0 
L 2515 0 
L 2669 990 
z
" transform="scale(0.015625)"/>
       </defs>
       <use xlink:href="#CMSY10-0" transform="scale(0.996264)"/>
       <use xlink:href="#CMMI12-19" transform="translate(78.682981 39.226102)scale(0.697382)"/>
       <use xlink:href="#CMR17-32" transform="translate(83.310009 -34.355253)scale(0.697382)"/>
       <path d="M 78.682981 22.914133 
L 119.920203 22.914133 
L 119.920203 26.899083 
L 78.682981 26.899083 
L 78.682981 22.914133 
z
"/>
      </g>
     </g>
    </g>
    <g id="xtick_3">
     <g id="line2d_5">
      <g>
       <use xlink:href="#m6564d0e748" x="147.6" y="216.804" style="stroke: #000000; stroke-width: 0.8"/>
      </g>
     </g>
     <g id="line2d_6">
      <g>
       <use xlink:href="#m49e4f1ea95" x="147.6" y="29.232" style="stroke: #000000; stroke-width: 0.8"/>
      </g>
     </g>
     <g id="text_3">
      <!-- $0$ -->
      <g transform="translate(145.395582 229.567102)scale(0.0833 -0.0833)">
       <defs>
        <path id="CMR17-30" d="M 2688 2038 
C 2688 2430 2682 3099 2413 3613 
C 2176 4063 1798 4224 1466 4224 
C 1158 4224 768 4082 525 3620 
C 269 3137 243 2539 243 2038 
C 243 1671 250 1112 448 623 
C 723 -39 1216 -128 1466 -128 
C 1760 -128 2208 -7 2470 604 
C 2662 1048 2688 1568 2688 2038 
z
M 1466 -26 
C 1056 -26 813 328 723 816 
C 653 1196 653 1749 653 2109 
C 653 2604 653 3015 736 3407 
C 858 3954 1216 4121 1466 4121 
C 1728 4121 2067 3947 2189 3420 
C 2272 3054 2278 2623 2278 2109 
C 2278 1691 2278 1176 2202 797 
C 2067 96 1690 -26 1466 -26 
z
" transform="scale(0.015625)"/>
       </defs>
       <use xlink:href="#CMR17-30" transform="scale(0.996264)"/>
      </g>
     </g>
    </g>
    <g id="xtick_4">
     <g id="line2d_7">
      <g>
       <use xlink:href="#m6564d0e748" x="203.4" y="216.804" style="stroke: #000000; stroke-width: 0.8"/>
      </g>
     </g>
     <g id="line2d_8">
      <g>
       <use xlink:href="#m49e4f1ea95" x="203.4" y="29.232" style="stroke: #000000; stroke-width: 0.8"/>
      </g>
     </g>
     <g id="text_4">
      <!-- $\frac{\pi}{2}$ -->
      <g transform="translate(200.881658 229.698005)scale(0.0833 -0.0833)">
       <use xlink:href="#CMMI12-19" transform="translate(0 39.226102)scale(0.697382)"/>
       <use xlink:href="#CMR17-32" transform="translate(4.627027 -34.355253)scale(0.697382)"/>
       <path d="M 0 22.914133 
L 41.237221 22.914133 
L 41.237221 26.899083 
L 0 26.899083 
L 0 22.914133 
z
"/>
      </g>
     </g>
    </g>
    <g id="xtick_5">
     <g id="line2d_9">
      <g>
       <use xlink:href="#m6564d0e748" x="259.2" y="216.804" style="stroke: #000000; stroke-width: 0.8"/>
      </g>
     </g>
     <g id="line2d_10">
      <g>
       <use xlink:href="#m49e4f1ea95" x="259.2" y="29.232" style="stroke: #000000; stroke-width: 0.8"/>
      </g>
     </g>
     <g id="text_5">
      <!-- $\pi$ -->
      <g transform="translate(256.66828 229.567102)scale(0.0833 -0.0833)">
       <use xlink:href="#CMMI12-19" transform="scale(0.996264)"/>
      </g>
     </g>
    </g>
    <g id="text_6">
     <!-- $k_x$ -->
     <g transform="translate(142.747811 243.871037)scale(0.1 -0.1)">
      <defs>
       <path id="CMMI12-6b" d="M 1798 4255 
C 1805 4281 1818 4319 1818 4351 
C 1818 4416 1754 4416 1741 4416 
C 1734 4416 1504 4396 1389 4383 
C 1280 4377 1184 4364 1069 4358 
C 915 4345 870 4339 870 4223 
C 870 4159 934 4159 998 4159 
C 1325 4159 1325 4103 1325 4040 
C 1325 4014 1325 4002 1293 3888 
L 378 250 
C 352 153 352 141 352 102 
C 352 -39 461 -64 525 -64 
C 704 -64 742 76 794 275 
L 1094 1476 
C 1555 1425 1830 1232 1830 924 
C 1830 885 1830 860 1811 763 
C 1786 667 1786 590 1786 558 
C 1786 185 2029 -64 2355 -64 
C 2650 -64 2803 205 2854 295 
C 2989 532 3072 892 3072 917 
C 3072 949 3046 975 3008 975 
C 2950 975 2944 949 2918 847 
C 2829 513 2694 64 2368 64 
C 2240 64 2157 128 2157 372 
C 2157 494 2182 635 2208 731 
C 2234 847 2234 853 2234 930 
C 2234 1309 1894 1521 1306 1598 
C 1536 1739 1766 1989 1856 2086 
C 2221 2495 2470 2687 2765 2687 
C 2912 2687 2950 2655 2995 2624 
C 2758 2598 2669 2431 2669 2303 
C 2669 2150 2790 2099 2880 2099 
C 3053 2099 3206 2246 3206 2451 
C 3206 2634 3059 2816 2771 2816 
C 2419 2816 2131 2579 1677 2067 
C 1613 1989 1376 1746 1139 1656 
L 1798 4255 
z
" transform="scale(0.015625)"/>
       <path id="CMMI12-78" d="M 3034 2624 
C 2829 2585 2752 2431 2752 2310 
C 2752 2156 2874 2105 2963 2105 
C 3155 2105 3290 2271 3290 2444 
C 3290 2694 2982 2816 2714 2816 
C 2323 2816 2106 2451 2048 2329 
C 1901 2790 1504 2816 1389 2816 
C 736 2816 390 1993 390 1849 
C 390 1823 416 1790 461 1790 
C 512 1790 525 1829 538 1855 
C 755 2572 1184 2687 1370 2687 
C 1658 2687 1715 2438 1715 2284 
C 1715 2143 1677 1993 1600 1678 
L 1382 778 
C 1286 390 1101 64 762 64 
C 730 64 570 64 435 126 
C 666 166 717 358 717 435 
C 717 563 621 640 499 640 
C 346 640 179 505 179 300 
C 179 57 480 -64 755 -64 
C 1062 -64 1280 153 1414 415 
C 1517 64 1837 -64 2074 -64 
C 2726 -64 3072 751 3072 896 
C 3072 929 3046 955 3008 955 
C 2950 955 2944 922 2925 870 
C 2752 300 2381 64 2093 64 
C 1869 64 1747 204 1747 467 
C 1747 607 1773 712 1875 1146 
L 2099 2039 
C 2195 2425 2413 2687 2707 2687 
C 2720 2687 2899 2687 3034 2624 
z
" transform="scale(0.015625)"/>
      </defs>
      <use xlink:href="#CMMI12-6b" transform="scale(0.996264)"/>
      <use xlink:href="#CMMI12-78" transform="translate(50.735189 -14.943915)scale(0.697382)"/>
     </g>
    </g>
   </g>
   <g id="matplotlib.axis_2">
    <g id="ytick_1">
     <g id="line2d_11">
      <defs>
       <path id="m7edcb817ea" d="M 0 0 
L -3.5 0 
" style="stroke: #000000; stroke-width: 0.8"/>
      </defs>
      <g>
       <use xlink:href="#m7edcb817ea" x="36" y="216.804" style="stroke: #000000; stroke-width: 0.8"/>
      </g>
     </g>
     <g id="line2d_12">
      <defs>
       <path id="ma2e0f16ee9" d="M 0 0 
L 3.5 0 
" style="stroke: #000000; stroke-width: 0.8"/>
      </defs>
      <g>
       <use xlink:href="#ma2e0f16ee9" x="259.2" y="216.804" style="stroke: #000000; stroke-width: 0.8"/>
      </g>
     </g>
     <g id="text_7">
      <!-- $-\pi$ -->
      <g transform="translate(17.078367 219.685551)scale(0.0833 -0.0833)">
       <use xlink:href="#CMSY10-0" transform="scale(0.996264)"/>
       <use xlink:href="#CMMI12-19" transform="translate(77.487468 0)scale(0.996264)"/>
      </g>
     </g>
    </g>
    <g id="ytick_2">
     <g id="line2d_13">
      <g>
       <use xlink:href="#m7edcb817ea" x="36" y="169.911" style="stroke: #000000; stroke-width: 0.8"/>
      </g>
     </g>
     <g id="line2d_14">
      <g>
       <use xlink:href="#ma2e0f16ee9" x="259.2" y="169.911" style="stroke: #000000; stroke-width: 0.8"/>
      </g>
     </g>
     <g id="text_8">
      <!-- $-\frac{\pi}{2}$ -->
      <g transform="translate(15.909608 172.858002)scale(0.0833 -0.0833)">
       <use xlink:href="#CMSY10-0" transform="scale(0.996264)"/>
       <use xlink:href="#CMMI12-19" transform="translate(78.682981 39.226102)scale(0.697382)"/>
       <use xlink:href="#CMR17-32" transform="translate(83.310009 -34.355253)scale(0.697382)"/>
       <path d="M 78.682981 22.914133 
L 119.920203 22.914133 
L 119.920203 26.899083 
L 78.682981 26.899083 
L 78.682981 22.914133 
z
"/>
      </g>
     </g>
    </g>
    <g id="ytick_3">
     <g id="line2d_15">
      <g>
       <use xlink:href="#m7edcb817ea" x="36" y="123.018" style="stroke: #000000; stroke-width: 0.8"/>
      </g>
     </g>
     <g id="line2d_16">
      <g>
       <use xlink:href="#ma2e0f16ee9" x="259.2" y="123.018" style="stroke: #000000; stroke-width: 0.8"/>
      </g>
     </g>
     <g id="text_9">
      <!-- $0$ -->
      <g transform="translate(24.591164 125.899551)scale(0.0833 -0.0833)">
       <use xlink:href="#CMR17-30" transform="scale(0.996264)"/>
      </g>
     </g>
    </g>
    <g id="ytick_4">
     <g id="line2d_17">
      <g>
       <use xlink:href="#m7edcb817ea" x="36" y="76.125" style="stroke: #000000; stroke-width: 0.8"/>
      </g>
     </g>
     <g id="line2d_18">
      <g>
       <use xlink:href="#ma2e0f16ee9" x="259.2" y="76.125" style="stroke: #000000; stroke-width: 0.8"/>
      </g>
     </g>
     <g id="text_10">
      <!-- $\frac{\pi}{2}$ -->
      <g transform="translate(23.963315 79.072002)scale(0.0833 -0.0833)">
       <use xlink:href="#CMMI12-19" transform="translate(0 39.226102)scale(0.697382)"/>
       <use xlink:href="#CMR17-32" transform="translate(4.627027 -34.355253)scale(0.697382)"/>
       <path d="M 0 22.914133 
L 41.237221 22.914133 
L 41.237221 26.899083 
L 0 26.899083 
L 0 22.914133 
z
"/>
      </g>
     </g>
    </g>
    <g id="ytick_5">
     <g id="line2d_19">
      <g>
       <use xlink:href="#m7edcb817ea" x="36" y="29.232" style="stroke: #000000; stroke-width: 0.8"/>
      </g>
     </g>
     <g id="line2d_20">
      <g>
       <use xlink:href="#ma2e0f16ee9" x="259.2" y="29.232" style="stroke: #000000; stroke-width: 0.8"/>
      </g>
     </g>
     <g id="text_11">
      <!-- $\pi$ -->
      <g transform="translate(23.93656 32.113551)scale(0.0833 -0.0833)">
       <use xlink:href="#CMMI12-19" transform="scale(0.996264)"/>
      </g>
     </g>
    </g>
    <g id="text_12">
     <!-- $k_z$ -->
     <g transform="translate(9.97243 127.514482)rotate(-90)scale(0.1 -0.1)">
      <defs>
       <path id="CMMI12-7a" d="M 813 486 
C 1088 809 1312 1015 1632 1313 
C 2016 1657 2182 1822 2272 1922 
C 2720 2371 2944 2713 2944 2764 
C 2944 2816 2893 2816 2880 2816 
C 2835 2816 2822 2790 2790 2745 
C 2630 2470 2477 2368 2310 2368 
C 2176 2368 2106 2403 1984 2547 
C 1850 2707 1741 2816 1555 2816 
C 1088 2816 806 2265 806 2127 
C 806 2107 813 2067 870 2067 
C 922 2067 928 2094 947 2140 
C 1056 2387 1363 2415 1485 2415 
C 1619 2415 1747 2387 1882 2342 
C 2125 2239 2227 2239 2291 2239 
C 2336 2239 2362 2239 2394 2246 
C 2182 1988 1837 1670 1549 1399 
L 902 783 
C 512 380 275 32 275 -13 
C 275 -52 307 -64 346 -64 
C 384 -64 390 -58 435 19 
C 538 179 742 384 979 384 
C 1114 384 1178 356 1306 211 
C 1427 70 1536 -64 1741 -64 
C 2368 -64 2726 723 2726 876 
C 2726 902 2720 942 2656 942 
C 2605 942 2598 915 2579 849 
C 2438 460 2061 336 1811 336 
C 1677 336 1549 364 1414 409 
C 1158 512 1088 512 1005 512 
C 941 512 870 512 813 486 
z
" transform="scale(0.015625)"/>
      </defs>
      <use xlink:href="#CMMI12-6b" transform="scale(0.996264)"/>
      <use xlink:href="#CMMI12-7a" transform="translate(50.735189 -14.943915)scale(0.697382)"/>
     </g>
    </g>
   </g>
   <g id="PathCollection_3">
    <path d="M 145.322449 155.984926 
L 149.877551 155.984926 
L 152.750003 155.556 
L 154.432653 155.302871 
L 158.987755 153.95467 
L 163.542857 151.979711 
L 163.998642 151.728 
L 168.097959 149.35735 
L 170.215625 147.9 
L 172.653061 146.083961 
L 175.04718 144.072 
L 177.208163 142.023636 
L 178.942327 140.244 
L 181.763265 136.799031 
L 182.062787 136.416 
L 184.412876 132.588 
L 186.017158 128.76 
L 186.318367 127.345941 
L 186.828765 124.932 
L 186.828765 121.104 
L 186.318367 118.690059 
L 186.017158 117.276 
L 184.412876 113.448 
L 182.062787 109.62 
L 181.763265 109.236969 
L 178.942327 105.792 
L 177.208163 104.012364 
L 175.04718 101.964 
L 172.653061 99.952039 
L 170.215625 98.136 
L 168.097959 96.67865 
L 163.998642 94.308 
L 163.542857 94.056289 
L 158.987755 92.08133 
L 154.432653 90.733129 
L 152.750003 90.48 
L 149.877551 90.051074 
L 145.322449 90.051074 
L 142.449997 90.48 
L 140.767347 90.733129 
L 136.212245 92.08133 
L 131.657143 94.056289 
L 131.201358 94.308 
L 127.102041 96.67865 
L 124.984375 98.136 
L 122.546939 99.952039 
L 120.15282 101.964 
L 117.991837 104.012364 
L 116.257673 105.792 
L 113.436735 109.236969 
L 113.137213 109.62 
L 110.787124 113.448 
L 109.182842 117.276 
L 108.881633 118.690059 
L 108.371235 121.104 
L 108.371235 124.932 
L 108.881633 127.345941 
L 109.182842 128.76 
L 110.787124 132.588 
L 113.137213 136.416 
L 113.436735 136.799031 
L 116.257673 140.244 
L 117.991837 142.023636 
L 120.15282 144.072 
L 122.546939 146.083961 
L 124.984375 147.9 
L 127.102041 149.35735 
L 131.201358 151.728 
L 131.657143 151.979711 
L 136.212245 153.95467 
L 140.767347 155.302871 
L 142.449997 155.556 
L 145.322449 155.984926 
z
" clip-path="url(#p9273612f28)" style="fill: none; stroke: #0000ff; stroke-width: 1.5"/>
   </g>
   <g id="PathCollection_4">
    <path d="M 131.657143 182.413431 
L 136.212245 183.105674 
L 140.767347 183.529752 
L 145.322449 183.728724 
L 149.877551 183.728724 
L 154.432653 183.529752 
L 158.987755 183.105674 
L 163.542857 182.413431 
L 163.823246 182.352 
L 168.097959 181.409806 
L 172.653061 180.059826 
L 176.723341 178.524 
L 177.208163 178.338143 
L 181.763265 176.224496 
L 184.575046 174.696 
L 186.318367 173.72186 
L 190.819709 170.868 
L 190.873469 170.832419 
L 195.428571 167.499284 
L 196.008539 167.04 
L 199.983673 163.699391 
L 200.530195 163.212 
L 204.496436 159.384 
L 204.538776 159.338821 
L 207.934707 155.556 
L 209.093878 154.090954 
L 210.912701 151.728 
L 213.42782 147.9 
L 213.64898 147.492567 
L 215.476525 144.072 
L 217.082924 140.244 
L 218.204082 136.651632 
L 218.277181 136.416 
L 219.100911 132.588 
L 219.605539 128.76 
L 219.842305 124.932 
L 219.842305 121.104 
L 219.605539 117.276 
L 219.100911 113.448 
L 218.277181 109.62 
L 218.204082 109.384368 
L 217.082924 105.792 
L 215.476525 101.964 
L 213.64898 98.543433 
L 213.42782 98.136 
L 210.912701 94.308 
L 209.093878 91.945046 
L 207.934707 90.48 
L 204.538776 86.697179 
L 204.496436 86.652 
L 200.530195 82.824 
L 199.983673 82.336609 
L 196.008539 78.996 
L 195.428571 78.536716 
L 190.873469 75.203581 
L 190.819709 75.168 
L 186.318367 72.31414 
L 184.575046 71.34 
L 181.763265 69.811504 
L 177.208163 67.697857 
L 176.723341 67.512 
L 172.653061 65.976174 
L 168.097959 64.626194 
L 163.823246 63.684 
L 163.542857 63.622569 
L 158.987755 62.930326 
L 154.432653 62.506248 
L 149.877551 62.307276 
L 145.322449 62.307276 
L 140.767347 62.506248 
L 136.212245 62.930326 
L 131.657143 63.622569 
L 131.376754 63.684 
L 127.102041 64.626194 
L 122.546939 65.976174 
L 118.476659 67.512 
L 117.991837 67.697857 
L 113.436735 69.811504 
L 110.624954 71.34 
L 108.881633 72.31414 
L 104.380291 75.168 
L 104.326531 75.203581 
L 99.771429 78.536716 
L 99.191461 78.996 
L 95.216327 82.336609 
L 94.669805 82.824 
L 90.703564 86.652 
L 90.661224 86.697179 
L 87.265293 90.48 
L 86.106122 91.945046 
L 84.287299 94.308 
L 81.77218 98.136 
L 81.55102 98.543433 
L 79.723475 101.964 
L 78.117076 105.792 
L 76.995918 109.384368 
L 76.922819 109.62 
L 76.099089 113.448 
L 75.594461 117.276 
L 75.357695 121.104 
L 75.357695 124.932 
L 75.594461 128.76 
L 76.099089 132.588 
L 76.922819 136.416 
L 76.995918 136.651632 
L 78.117076 140.244 
L 79.723475 144.072 
L 81.55102 147.492567 
L 81.77218 147.9 
L 84.287299 151.728 
L 86.106122 154.090954 
L 87.265293 155.556 
L 90.661224 159.338821 
L 90.703564 159.384 
L 94.669805 163.212 
L 95.216327 163.699391 
L 99.191461 167.04 
L 99.771429 167.499284 
L 104.326531 170.832419 
L 104.380291 170.868 
L 108.881633 173.72186 
L 110.624954 174.696 
L 113.436735 176.224496 
L 117.991837 178.338143 
L 118.476659 178.524 
L 122.546939 180.059826 
L 127.102041 181.409806 
L 131.376754 182.352 
L 131.657143 182.413431 
z
" clip-path="url(#p9273612f28)" style="fill: none; stroke: #ff0000; stroke-width: 1.5"/>
   </g>
   <g id="PathCollection_5">
    <path d="M 136.212245 168.387352 
L 140.767347 169.358841 
L 145.322449 169.848606 
L 149.877551 169.848606 
L 154.432653 169.358841 
L 158.987755 168.387352 
L 163.25791 167.04 
L 163.542857 166.948971 
L 168.097959 165.046113 
L 171.700159 163.212 
L 172.653061 162.712385 
L 177.208163 159.934496 
L 178.011385 159.384 
L 181.763265 156.688163 
L 183.203849 155.556 
L 186.318367 152.938633 
L 187.665576 151.728 
L 190.873469 148.575009 
L 191.528529 147.9 
L 194.834058 144.072 
L 195.428571 143.271204 
L 197.611061 140.244 
L 199.875354 136.416 
L 199.983673 136.176537 
L 201.586945 132.588 
L 202.742962 128.76 
L 203.325755 124.932 
L 203.325755 121.104 
L 202.742962 117.276 
L 201.586945 113.448 
L 199.983673 109.859463 
L 199.875354 109.62 
L 197.611061 105.792 
L 195.428571 102.764796 
L 194.834058 101.964 
L 191.528529 98.136 
L 190.873469 97.460991 
L 187.665576 94.308 
L 186.318367 93.097367 
L 183.203849 90.48 
L 181.763265 89.347837 
L 178.011385 86.652 
L 177.208163 86.101504 
L 172.653061 83.323615 
L 171.700159 82.824 
L 168.097959 80.989887 
L 163.542857 79.087029 
L 163.25791 78.996 
L 158.987755 77.648648 
L 154.432653 76.677159 
L 149.877551 76.187394 
L 145.322449 76.187394 
L 140.767347 76.677159 
L 136.212245 77.648648 
L 131.94209 78.996 
L 131.657143 79.087029 
L 127.102041 80.989887 
L 123.499841 82.824 
L 122.546939 83.323615 
L 117.991837 86.101504 
L 117.188615 86.652 
L 113.436735 89.347837 
L 111.996151 90.48 
L 108.881633 93.097367 
L 107.534424 94.308 
L 104.326531 97.460991 
L 103.671471 98.136 
L 100.365942 101.964 
L 99.771429 102.764796 
L 97.588939 105.792 
L 95.324646 109.62 
L 95.216327 109.859463 
L 93.613055 113.448 
L 92.457038 117.276 
L 91.874245 121.104 
L 91.874245 124.932 
L 92.457038 128.76 
L 93.613055 132.588 
L 95.216327 136.176537 
L 95.324646 136.416 
L 97.588939 140.244 
L 99.771429 143.271204 
L 100.365942 144.072 
L 103.671471 147.9 
L 104.326531 148.575009 
L 107.534424 151.728 
L 108.881633 152.938633 
L 111.996151 155.556 
L 113.436735 156.688163 
L 117.188615 159.384 
L 117.991837 159.934496 
L 122.546939 162.712385 
L 123.499841 163.212 
L 127.102041 165.046113 
L 131.657143 166.948971 
L 131.94209 167.04 
L 136.212245 168.387352 
z
" clip-path="url(#p9273612f28)" style="fill: none; stroke: #000000; stroke-width: 1.5"/>
   </g>
   <g id="line2d_21">
    <path d="M 36 123.018 
L 259.2 123.018 
" clip-path="url(#p9273612f28)" style="fill: none; stroke-dasharray: 5.55,2.4; stroke-dashoffset: 0; stroke: #1f77b4; stroke-width: 1.5"/>
   </g>
   <g id="patch_3">
    <path d="M 36 216.804 
L 36 29.232 
" style="fill: none; stroke: #000000; stroke-width: 0.8; stroke-linejoin: miter; stroke-linecap: square"/>
   </g>
   <g id="patch_4">
    <path d="M 259.2 216.804 
L 259.2 29.232 
" style="fill: none; stroke: #000000; stroke-width: 0.8; stroke-linejoin: miter; stroke-linecap: square"/>
   </g>
   <g id="patch_5">
    <path d="M 36 216.804 
L 259.2 216.804 
" style="fill: none; stroke: #000000; stroke-width: 0.8; stroke-linejoin: miter; stroke-linecap: square"/>
   </g>
   <g id="patch_6">
    <path d="M 36 29.232 
L 259.2 29.232 
" style="fill: none; stroke: #000000; stroke-width: 0.8; stroke-linejoin: miter; stroke-linecap: square"/>
   </g>
   <g id="text_13">
    <!-- $-2t-2\lambda&lt;\mu&lt;-2t+2\lambda$ -->
    <g transform="translate(91.8 193.3575)scale(0.1 -0.1)">
     <defs>
      <path id="CMMI12-74" d="M 1286 2566 
L 1875 2566 
C 1997 2566 2061 2566 2061 2681 
C 2061 2752 2022 2752 1894 2752 
L 1331 2752 
L 1568 3664 
C 1594 3752 1594 3764 1594 3808 
C 1594 3910 1510 3968 1427 3968 
C 1376 3968 1229 3948 1178 3746 
L 928 2752 
L 326 2752 
C 198 2752 141 2752 141 2630 
C 141 2566 186 2566 307 2566 
L 877 2566 
L 454 881 
C 403 657 384 593 384 510 
C 384 210 595 -64 954 -64 
C 1600 -64 1946 868 1946 913 
C 1946 951 1920 970 1882 970 
C 1869 970 1843 970 1830 944 
C 1824 938 1818 932 1773 830 
C 1638 510 1344 64 973 64 
C 781 64 768 223 768 364 
C 768 370 768 491 787 568 
L 1286 2566 
z
" transform="scale(0.015625)"/>
      <path id="CMMI12-15" d="M 1978 3963 
C 1818 4416 1312 4416 1229 4416 
C 1190 4416 1120 4416 1120 4351 
C 1120 4300 1158 4294 1190 4287 
C 1286 4275 1363 4262 1466 4078 
C 1530 3957 2189 2055 2189 2042 
C 2189 2036 2182 2029 2131 1978 
L 467 305 
C 390 229 339 178 339 95 
C 339 6 416 -71 518 -71 
C 544 -71 614 -58 653 -20 
C 755 76 1670 1190 2253 1877 
C 2419 1380 2624 795 2822 261 
C 2854 165 2886 76 2976 -7 
C 3040 -64 3053 -64 3232 -64 
L 3354 -64 
C 3379 -64 3424 -64 3424 -13 
C 3424 12 3418 19 3392 44 
C 3334 114 3290 229 3264 305 
L 1978 3963 
z
" transform="scale(0.015625)"/>
      <path id="CMMI12-3c" d="M 4218 3134 
C 4333 3186 4346 3231 4346 3270 
C 4346 3340 4294 3392 4224 3392 
C 4211 3392 4205 3385 4115 3347 
L 653 1738 
C 538 1687 525 1641 525 1603 
C 525 1557 531 1519 653 1460 
L 4115 -148 
C 4198 -186 4211 -192 4224 -192 
C 4294 -192 4346 -141 4346 -71 
C 4346 -32 4333 13 4218 65 
L 922 1596 
L 4218 3134 
z
" transform="scale(0.015625)"/>
      <path id="CMMI12-16" d="M 922 140 
C 1082 -7 1318 -64 1536 -64 
C 1946 -64 2227 210 2374 408 
C 2438 70 2707 -64 2931 -64 
C 3123 -64 3277 51 3392 281 
C 3494 498 3584 887 3584 913 
C 3584 944 3558 970 3520 970 
C 3462 970 3456 938 3430 842 
C 3334 466 3213 64 2950 64 
C 2765 64 2752 229 2752 357 
C 2752 504 2810 734 2854 925 
L 3034 1615 
C 3059 1736 3130 2023 3162 2138 
C 3200 2291 3270 2566 3270 2591 
C 3270 2687 3194 2752 3098 2752 
C 3040 2752 2906 2726 2854 2534 
L 2406 759 
C 2374 632 2374 619 2291 517 
C 2214 408 1965 64 1562 64 
C 1203 64 1088 325 1088 625 
C 1088 811 1146 1034 1171 1143 
L 1459 2292 
C 1491 2413 1542 2617 1542 2656 
C 1542 2758 1459 2816 1376 2816 
C 1318 2816 1178 2796 1126 2592 
L 198 -1085 
C 192 -1116 179 -1154 179 -1191 
C 179 -1287 256 -1351 352 -1351 
C 538 -1351 576 -1204 621 -1029 
L 922 140 
z
" transform="scale(0.015625)"/>
      <path id="CMR17-2b" d="M 2413 1472 
L 4109 1472 
C 4198 1472 4307 1472 4307 1580 
C 4307 1696 4205 1696 4109 1696 
L 2413 1696 
L 2413 3385 
C 2413 3475 2413 3584 2304 3584 
C 2189 3584 2189 3481 2189 3385 
L 2189 1696 
L 493 1696 
C 403 1696 294 1696 294 1587 
C 294 1472 397 1472 493 1472 
L 2189 1472 
L 2189 -194 
C 2189 -282 2189 -391 2298 -391 
C 2413 -391 2413 -289 2413 -194 
L 2413 1472 
z
" transform="scale(0.015625)"/>
     </defs>
     <use xlink:href="#CMSY10-0" transform="scale(0.996264)"/>
     <use xlink:href="#CMR17-32" transform="translate(77.487468 0)scale(0.996264)"/>
     <use xlink:href="#CMMI12-74" transform="translate(123.177945 0)scale(0.996264)"/>
     <use xlink:href="#CMSY10-0" transform="translate(180.543482 0)scale(0.996264)"/>
     <use xlink:href="#CMR17-32" transform="translate(280.170157 0)scale(0.996264)"/>
     <use xlink:href="#CMMI12-15" transform="translate(325.860634 0)scale(0.996264)"/>
     <use xlink:href="#CMMI12-3c" transform="translate(410.438714 0)scale(0.996264)"/>
     <use xlink:href="#CMMI12-16" transform="translate(513.984819 0)scale(0.996264)"/>
     <use xlink:href="#CMMI12-3c" transform="translate(600.350249 0)scale(0.996264)"/>
     <use xlink:href="#CMSY10-0" transform="translate(703.896354 0)scale(0.996264)"/>
     <use xlink:href="#CMR17-32" transform="translate(781.383821 0)scale(0.996264)"/>
     <use xlink:href="#CMMI12-74" transform="translate(827.074298 0)scale(0.996264)"/>
     <use xlink:href="#CMR17-2b" transform="translate(884.439836 0)scale(0.996264)"/>
     <use xlink:href="#CMR17-32" transform="translate(978.293831 0)scale(0.996264)"/>
     <use xlink:href="#CMMI12-15" transform="translate(1023.984308 0)scale(0.996264)"/>
    </g>
   </g>
   <g id="legend_1">
    <g id="patch_7">
     <path d="M 43 51.556611 
L 235.506757 51.556611 
Q 237.506757 51.556611 237.506757 49.556611 
L 237.506757 36.232 
Q 237.506757 34.232 235.506757 34.232 
L 43 34.232 
Q 41 34.232 41 36.232 
L 41 49.556611 
Q 41 51.556611 43 51.556611 
z
" style="fill: #ffffff; opacity: 0.8; stroke: #cccccc; stroke-linejoin: miter"/>
    </g>
    <g id="line2d_22">
     <path d="M 45 41.732 
L 65 41.732 
" style="fill: none; stroke: #000000; stroke-width: 1.5"/>
    </g>
    <g id="text_14">
     <!-- $\Delta_{\mathbf{k}}=0$ -->
     <g transform="translate(73 45.232)scale(0.1 -0.1)">
      <defs>
       <path id="CMR17-1" d="M 2598 4435 
C 2547 4544 2522 4544 2470 4544 
C 2394 4544 2387 4531 2342 4441 
L 269 108 
C 262 96 237 38 237 32 
C 237 6 243 0 358 0 
L 4576 0 
C 4691 0 4698 6 4698 32 
C 4698 38 4672 96 4666 108 
L 2598 4435 
z
M 2310 4056 
L 4083 358 
L 531 358 
L 2310 4056 
z
" transform="scale(0.015625)"/>
       <path id="CMBX12-6b" d="M 2125 1774 
L 2931 2420 
C 3008 2483 3078 2540 3520 2540 
L 3520 2816 
C 3354 2803 3226 2803 2989 2803 
C 2822 2803 2464 2803 2317 2816 
L 2317 2540 
C 2394 2540 2547 2521 2547 2471 
C 2547 2445 2509 2420 2496 2407 
L 1331 1483 
L 1331 4480 
L 224 4428 
L 224 4153 
C 621 4153 666 4153 666 3891 
L 666 275 
L 224 275 
L 224 0 
C 371 12 813 12 986 12 
C 1158 12 1600 12 1747 0 
L 1747 275 
L 1306 275 
L 1306 1123 
C 1408 1199 1504 1281 1645 1395 
L 2419 408 
C 2464 357 2464 344 2464 338 
C 2464 275 2336 275 2246 275 
L 2246 0 
C 2400 12 2822 12 2995 12 
C 3322 12 3411 12 3680 0 
L 3680 275 
C 3578 275 3450 275 3379 281 
C 3290 300 3264 319 3194 408 
L 2125 1774 
z
" transform="scale(0.015625)"/>
       <path id="CMR17-3d" d="M 4115 2048 
C 4211 2048 4307 2048 4307 2156 
C 4307 2272 4198 2272 4090 2272 
L 512 2272 
C 403 2272 294 2272 294 2156 
C 294 2048 390 2048 486 2048 
L 4115 2048 
z
M 4090 927 
C 4198 927 4307 927 4307 1043 
C 4307 1152 4211 1152 4115 1152 
L 486 1152 
C 390 1152 294 1152 294 1043 
C 294 927 403 927 512 927 
L 4090 927 
z
" transform="scale(0.015625)"/>
      </defs>
      <use xlink:href="#CMR17-1" transform="scale(0.996264)"/>
      <use xlink:href="#CMBX12-6b" transform="translate(76.91959 -14.943915)scale(0.697382)"/>
      <use xlink:href="#CMR17-3d" transform="translate(146.498771 0)scale(0.996264)"/>
      <use xlink:href="#CMR17-30" transform="translate(245.887568 0)scale(0.996264)"/>
     </g>
    </g>
    <g id="line2d_23">
     <path d="M 124.826406 41.732 
L 144.826406 41.732 
" style="fill: none; stroke: #0000ff; stroke-width: 1.5"/>
    </g>
    <g id="text_15">
     <!-- $\epsilon_{F-}$ -->
     <g transform="translate(152.826406 45.232)scale(0.1 -0.1)">
      <defs>
       <path id="CMMI12-f" d="M 1862 1472 
C 1958 1472 2067 1472 2067 1574 
C 2067 1657 2003 1657 1888 1657 
L 851 1657 
C 1011 2224 1389 2566 1958 2566 
L 2144 2566 
C 2253 2566 2349 2566 2349 2668 
C 2349 2752 2278 2752 2163 2752 
L 1946 2752 
C 1158 2752 294 2136 294 1141 
C 294 420 774 -64 1408 -64 
C 1818 -64 2221 193 2221 258 
C 2221 297 2202 336 2163 336 
C 2144 336 2131 330 2099 304 
C 1856 141 1619 64 1427 64 
C 1088 64 730 291 730 920 
C 730 1043 742 1212 800 1472 
L 1862 1472 
z
" transform="scale(0.015625)"/>
       <path id="CMMI12-46" d="M 1901 2054 
L 2515 2054 
C 3002 2054 3040 1947 3040 1764 
C 3040 1683 3027 1595 2995 1456 
C 2982 1431 2976 1399 2976 1387 
C 2976 1343 3002 1318 3046 1318 
C 3098 1318 3104 1343 3130 1444 
L 3501 2929 
C 3501 2955 3482 2993 3437 2993 
C 3379 2993 3373 2968 3347 2858 
C 3213 2375 3085 2240 2528 2240 
L 1946 2240 
L 2362 3908 
C 2419 4134 2432 4153 2694 4153 
L 3552 4153 
C 4352 4153 4467 3915 4467 3457 
C 4467 3419 4467 3277 4448 3109 
C 4442 3084 4429 3000 4429 2974 
C 4429 2922 4461 2903 4499 2903 
C 4544 2903 4570 2929 4582 3045 
L 4717 4172 
C 4717 4191 4730 4255 4730 4268 
C 4730 4339 4672 4339 4557 4339 
L 1523 4339 
C 1402 4339 1338 4339 1338 4223 
C 1338 4153 1382 4153 1491 4153 
C 1888 4153 1888 4108 1888 4037 
C 1888 4005 1882 3979 1862 3908 
L 998 468 
C 941 248 928 185 480 185 
C 358 185 294 185 294 70 
C 294 0 352 0 390 0 
C 512 0 640 12 762 12 
L 1594 12 
C 1734 12 1888 0 2029 0 
C 2086 0 2163 0 2163 115 
C 2163 185 2125 185 1984 185 
C 1478 185 1466 229 1466 324 
C 1466 355 1478 405 1491 449 
L 1901 2054 
z
" transform="scale(0.015625)"/>
      </defs>
      <use xlink:href="#CMMI12-f" transform="scale(0.996264)"/>
      <use xlink:href="#CMMI12-46" transform="translate(39.388958 -14.943915)scale(0.697382)"/>
      <use xlink:href="#CMSY10-0" transform="translate(93.07647 -14.943915)scale(0.697382)"/>
     </g>
    </g>
    <g id="line2d_24">
     <path d="M 189.221924 41.732 
L 209.221924 41.732 
" style="fill: none; stroke: #ff0000; stroke-width: 1.5"/>
    </g>
    <g id="text_16">
     <!-- $\epsilon_{F+}$ -->
     <g transform="translate(217.221924 45.232)scale(0.1 -0.1)">
      <use xlink:href="#CMMI12-f" transform="scale(0.996264)"/>
      <use xlink:href="#CMMI12-46" transform="translate(39.388958 -14.943915)scale(0.697382)"/>
      <use xlink:href="#CMR17-2b" transform="translate(93.07647 -14.943915)scale(0.697382)"/>
     </g>
    </g>
   </g>
  </g>
 </g>
 <defs>
  <clipPath id="p9273612f28">
   <rect x="36" y="29.232" width="223.2" height="187.572"/>
  </clipPath>
 </defs>
</svg>
