<?xml version="1.0" encoding="utf-8" standalone="no"?>
<!DOCTYPE svg PUBLIC "-//W3C//DTD SVG 1.1//EN"
  "http://www.w3.org/Graphics/SVG/1.1/DTD/svg11.dtd">
<svg xmlns:xlink="http://www.w3.org/1999/xlink" width="288pt" height="216pt" viewBox="0 0 288 216" xmlns="http://www.w3.org/2000/svg" version="1.1">
 <metadata>
  <rdf:RDF xmlns:dc="http://purl.org/dc/elements/1.1/" xmlns:cc="http://creativecommons.org/ns#" xmlns:rdf="http://www.w3.org/1999/02/22-rdf-syntax-ns#">
   <cc:Work>
    <dc:type rdf:resource="http://purl.org/dc/dcmitype/StillImage"/>
    <dc:date>2022-04-01T20:01:20.507089</dc:date>
    <dc:format>image/svg+xml</dc:format>
    <dc:creator>
     <cc:Agent>
      <dc:title>Matplotlib v3.5.0, https://matplotlib.org/</dc:title>
     </cc:Agent>
    </dc:creator>
   </cc:Work>
  </rdf:RDF>
 </metadata>
 <defs>
  <style type="text/css">*{stroke-linejoin: round; stroke-linecap: butt}</style>
 </defs>
 <g id="figure_1">
  <g id="patch_1">
   <path d="M 0 216 
L 288 216 
L 288 0 
L 0 0 
z
" style="fill: #ffffff"/>
  </g>
  <g id="axes_1">
   <g id="patch_2">
    <path d="M 36 192.24 
L 259.2 192.24 
L 259.2 25.92 
L 36 25.92 
z
" style="fill: #ffffff"/>
   </g>
   <g id="PolyCollection_1">
    <defs>
     <path id="m7597e61211" d="M 36 -134.64 
L 36 -79.2 
L 40.555102 -79.2 
L 45.110204 -79.2 
L 49.665306 -79.2 
L 54.220408 -79.2 
L 58.77551 -79.2 
L 63.330612 -79.2 
L 67.885714 -79.2 
L 72.440816 -79.2 
L 76.995918 -79.2 
L 81.55102 -79.2 
L 86.106122 -79.2 
L 90.661224 -79.2 
L 95.216327 -79.2 
L 99.771429 -79.2 
L 104.326531 -79.2 
L 108.881633 -79.2 
L 113.436735 -79.2 
L 117.991837 -79.2 
L 122.546939 -79.2 
L 127.102041 -79.2 
L 131.657143 -79.2 
L 136.212245 -79.2 
L 140.767347 -79.2 
L 145.322449 -79.2 
L 149.877551 -79.2 
L 154.432653 -79.2 
L 158.987755 -79.2 
L 163.542857 -79.2 
L 168.097959 -79.2 
L 172.653061 -79.2 
L 177.208163 -79.2 
L 181.763265 -79.2 
L 186.318367 -79.2 
L 190.873469 -79.2 
L 195.428571 -79.2 
L 199.983673 -79.2 
L 204.538776 -79.2 
L 209.093878 -79.2 
L 213.64898 -79.2 
L 218.204082 -79.2 
L 222.759184 -79.2 
L 227.314286 -79.2 
L 231.869388 -79.2 
L 236.42449 -79.2 
L 240.979592 -79.2 
L 245.534694 -79.2 
L 250.089796 -79.2 
L 254.644898 -79.2 
L 259.2 -79.2 
L 259.2 -134.64 
L 259.2 -134.64 
L 254.644898 -134.64 
L 250.089796 -134.64 
L 245.534694 -134.64 
L 240.979592 -134.64 
L 236.42449 -134.64 
L 231.869388 -134.64 
L 227.314286 -134.64 
L 222.759184 -134.64 
L 218.204082 -134.64 
L 213.64898 -134.64 
L 209.093878 -134.64 
L 204.538776 -134.64 
L 199.983673 -134.64 
L 195.428571 -134.64 
L 190.873469 -134.64 
L 186.318367 -134.64 
L 181.763265 -134.64 
L 177.208163 -134.64 
L 172.653061 -134.64 
L 168.097959 -134.64 
L 163.542857 -134.64 
L 158.987755 -134.64 
L 154.432653 -134.64 
L 149.877551 -134.64 
L 145.322449 -134.64 
L 140.767347 -134.64 
L 136.212245 -134.64 
L 131.657143 -134.64 
L 127.102041 -134.64 
L 122.546939 -134.64 
L 117.991837 -134.64 
L 113.436735 -134.64 
L 108.881633 -134.64 
L 104.326531 -134.64 
L 99.771429 -134.64 
L 95.216327 -134.64 
L 90.661224 -134.64 
L 86.106122 -134.64 
L 81.55102 -134.64 
L 76.995918 -134.64 
L 72.440816 -134.64 
L 67.885714 -134.64 
L 63.330612 -134.64 
L 58.77551 -134.64 
L 54.220408 -134.64 
L 49.665306 -134.64 
L 45.110204 -134.64 
L 40.555102 -134.64 
L 36 -134.64 
z
" style="stroke: #f5deb3"/>
    </defs>
    <g clip-path="url(#pf9a0fe4a3e)">
     <use xlink:href="#m7597e61211" x="0" y="216" style="fill: #f5deb3; stroke: #f5deb3"/>
    </g>
   </g>
   <g id="patch_3">
    <path d="M 192.24 142.6212 
L 193.305701 145.116 
L 192.595234 145.116 
L 192.595234 161.748 
L 191.884766 161.748 
L 191.884766 145.116 
L 191.174299 145.116 
z
" clip-path="url(#pf9a0fe4a3e)" style="fill: #0000ff; stroke: #0000ff; stroke-linejoin: miter"/>
   </g>
   <g id="patch_4">
    <path d="M 192.24 111.5748 
L 191.174299 109.08 
L 191.884766 109.08 
L 191.884766 92.448 
L 192.595234 92.448 
L 192.595234 109.08 
L 193.305701 109.08 
z
" clip-path="url(#pf9a0fe4a3e)" style="fill: #ff0000; stroke: #ff0000; stroke-linejoin: miter"/>
   </g>
   <g id="matplotlib.axis_1">
    <g id="xtick_1">
     <g id="line2d_1">
      <defs>
       <path id="m4aa81cc1ff" d="M 0 0 
L 0 3.5 
" style="stroke: #000000; stroke-width: 0.8"/>
      </defs>
      <g>
       <use xlink:href="#m4aa81cc1ff" x="36" y="192.24" style="stroke: #000000; stroke-width: 0.8"/>
      </g>
     </g>
     <g id="line2d_2">
      <defs>
       <path id="mf6601c7e5b" d="M 0 0 
L 0 -3.5 
" style="stroke: #000000; stroke-width: 0.8"/>
      </defs>
      <g>
       <use xlink:href="#mf6601c7e5b" x="36" y="25.92" style="stroke: #000000; stroke-width: 0.8"/>
      </g>
     </g>
     <g id="text_1">
      <!-- -1 -->
      <g transform="translate(32.325972 205.003102)scale(0.0833 -0.0833)">
       <defs>
        <path id="CMR17-2d" d="M 1632 1254 
L 1632 1536 
L 26 1536 
L 26 1254 
L 1632 1254 
z
" transform="scale(0.015625)"/>
        <path id="CMR17-31" d="M 1702 4083 
C 1702 4217 1696 4224 1606 4224 
C 1357 3927 979 3833 621 3820 
C 602 3820 570 3820 563 3808 
C 557 3795 557 3782 557 3648 
C 755 3648 1088 3686 1344 3839 
L 1344 467 
C 1344 243 1331 166 781 166 
L 589 166 
L 589 0 
C 896 6 1216 12 1523 12 
C 1830 12 2150 6 2458 0 
L 2458 166 
L 2266 166 
C 1715 166 1702 236 1702 467 
L 1702 4083 
z
" transform="scale(0.015625)"/>
       </defs>
       <use xlink:href="#CMR17-2d" transform="scale(0.996264)"/>
       <use xlink:href="#CMR17-31" transform="translate(30.075966 0)scale(0.996264)"/>
      </g>
     </g>
    </g>
    <g id="xtick_2">
     <g id="line2d_3">
      <g>
       <use xlink:href="#m4aa81cc1ff" x="91.8" y="192.24" style="stroke: #000000; stroke-width: 0.8"/>
      </g>
     </g>
     <g id="line2d_4">
      <g>
       <use xlink:href="#mf6601c7e5b" x="91.8" y="25.92" style="stroke: #000000; stroke-width: 0.8"/>
      </g>
     </g>
     <g id="text_2">
      <!-- -0.5 -->
      <g transform="translate(84.696876 205.003102)scale(0.0833 -0.0833)">
       <defs>
        <path id="CMR17-30" d="M 2688 2038 
C 2688 2430 2682 3099 2413 3613 
C 2176 4063 1798 4224 1466 4224 
C 1158 4224 768 4082 525 3620 
C 269 3137 243 2539 243 2038 
C 243 1671 250 1112 448 623 
C 723 -39 1216 -128 1466 -128 
C 1760 -128 2208 -7 2470 604 
C 2662 1048 2688 1568 2688 2038 
z
M 1466 -26 
C 1056 -26 813 328 723 816 
C 653 1196 653 1749 653 2109 
C 653 2604 653 3015 736 3407 
C 858 3954 1216 4121 1466 4121 
C 1728 4121 2067 3947 2189 3420 
C 2272 3054 2278 2623 2278 2109 
C 2278 1691 2278 1176 2202 797 
C 2067 96 1690 -26 1466 -26 
z
" transform="scale(0.015625)"/>
        <path id="CMR17-2e" d="M 1062 262 
C 1062 422 934 524 800 524 
C 672 524 538 422 538 262 
C 538 102 666 0 800 0 
C 928 0 1062 102 1062 262 
z
" transform="scale(0.015625)"/>
        <path id="CMR17-35" d="M 730 3750 
C 794 3724 1056 3641 1325 3641 
C 1920 3641 2246 3961 2432 4140 
C 2432 4191 2432 4224 2394 4224 
C 2387 4224 2374 4224 2323 4198 
C 2099 4102 1837 4032 1517 4032 
C 1325 4032 1037 4055 723 4191 
C 653 4224 640 4224 634 4224 
C 602 4224 595 4217 595 4090 
L 595 2231 
C 595 2113 595 2080 659 2080 
C 691 2080 704 2093 736 2139 
C 941 2435 1222 2560 1542 2560 
C 1766 2560 2246 2415 2246 1293 
C 2246 1087 2246 716 2054 422 
C 1894 159 1645 25 1370 25 
C 947 25 518 319 403 812 
C 429 806 480 793 506 793 
C 589 793 749 838 749 1036 
C 749 1209 627 1280 506 1280 
C 358 1280 262 1190 262 1011 
C 262 454 704 -128 1382 -128 
C 2042 -128 2669 441 2669 1267 
C 2669 2054 2170 2662 1549 2662 
C 1222 2662 947 2540 730 2304 
L 730 3750 
z
" transform="scale(0.015625)"/>
       </defs>
       <use xlink:href="#CMR17-2d" transform="scale(0.996264)"/>
       <use xlink:href="#CMR17-30" transform="translate(30.075966 0)scale(0.996264)"/>
       <use xlink:href="#CMR17-2e" transform="translate(75.766443 0)scale(0.996264)"/>
       <use xlink:href="#CMR17-35" transform="translate(100.637502 0)scale(0.996264)"/>
      </g>
     </g>
    </g>
    <g id="xtick_3">
     <g id="line2d_5">
      <g>
       <use xlink:href="#m4aa81cc1ff" x="147.6" y="192.24" style="stroke: #000000; stroke-width: 0.8"/>
      </g>
     </g>
     <g id="line2d_6">
      <g>
       <use xlink:href="#mf6601c7e5b" x="147.6" y="25.92" style="stroke: #000000; stroke-width: 0.8"/>
      </g>
     </g>
     <g id="text_3">
      <!-- 0 -->
      <g transform="translate(145.395582 205.003102)scale(0.0833 -0.0833)">
       <use xlink:href="#CMR17-30" transform="scale(0.996264)"/>
      </g>
     </g>
    </g>
    <g id="xtick_4">
     <g id="line2d_7">
      <g>
       <use xlink:href="#m4aa81cc1ff" x="203.4" y="192.24" style="stroke: #000000; stroke-width: 0.8"/>
      </g>
     </g>
     <g id="line2d_8">
      <g>
       <use xlink:href="#mf6601c7e5b" x="203.4" y="25.92" style="stroke: #000000; stroke-width: 0.8"/>
      </g>
     </g>
     <g id="text_4">
      <!-- 0.5 -->
      <g transform="translate(197.766485 205.003102)scale(0.0833 -0.0833)">
       <use xlink:href="#CMR17-30" transform="scale(0.996264)"/>
       <use xlink:href="#CMR17-2e" transform="translate(45.690477 0)scale(0.996264)"/>
       <use xlink:href="#CMR17-35" transform="translate(70.561536 0)scale(0.996264)"/>
      </g>
     </g>
    </g>
    <g id="xtick_5">
     <g id="line2d_9">
      <g>
       <use xlink:href="#m4aa81cc1ff" x="259.2" y="192.24" style="stroke: #000000; stroke-width: 0.8"/>
      </g>
     </g>
     <g id="line2d_10">
      <g>
       <use xlink:href="#mf6601c7e5b" x="259.2" y="25.92" style="stroke: #000000; stroke-width: 0.8"/>
      </g>
     </g>
     <g id="text_5">
      <!-- 1 -->
      <g transform="translate(256.995582 205.003102)scale(0.0833 -0.0833)">
       <use xlink:href="#CMR17-31" transform="scale(0.996264)"/>
      </g>
     </g>
    </g>
    <g id="text_6">
     <!-- $k_x/\pi$ -->
     <g transform="translate(137.16859 218.088751)scale(0.1 -0.1)">
      <defs>
       <path id="CMMI12-6b" d="M 1798 4255 
C 1805 4281 1818 4319 1818 4351 
C 1818 4416 1754 4416 1741 4416 
C 1734 4416 1504 4396 1389 4383 
C 1280 4377 1184 4364 1069 4358 
C 915 4345 870 4339 870 4223 
C 870 4159 934 4159 998 4159 
C 1325 4159 1325 4103 1325 4040 
C 1325 4014 1325 4002 1293 3888 
L 378 250 
C 352 153 352 141 352 102 
C 352 -39 461 -64 525 -64 
C 704 -64 742 76 794 275 
L 1094 1476 
C 1555 1425 1830 1232 1830 924 
C 1830 885 1830 860 1811 763 
C 1786 667 1786 590 1786 558 
C 1786 185 2029 -64 2355 -64 
C 2650 -64 2803 205 2854 295 
C 2989 532 3072 892 3072 917 
C 3072 949 3046 975 3008 975 
C 2950 975 2944 949 2918 847 
C 2829 513 2694 64 2368 64 
C 2240 64 2157 128 2157 372 
C 2157 494 2182 635 2208 731 
C 2234 847 2234 853 2234 930 
C 2234 1309 1894 1521 1306 1598 
C 1536 1739 1766 1989 1856 2086 
C 2221 2495 2470 2687 2765 2687 
C 2912 2687 2950 2655 2995 2624 
C 2758 2598 2669 2431 2669 2303 
C 2669 2150 2790 2099 2880 2099 
C 3053 2099 3206 2246 3206 2451 
C 3206 2634 3059 2816 2771 2816 
C 2419 2816 2131 2579 1677 2067 
C 1613 1989 1376 1746 1139 1656 
L 1798 4255 
z
" transform="scale(0.015625)"/>
       <path id="CMMI12-78" d="M 3034 2624 
C 2829 2585 2752 2431 2752 2310 
C 2752 2156 2874 2105 2963 2105 
C 3155 2105 3290 2271 3290 2444 
C 3290 2694 2982 2816 2714 2816 
C 2323 2816 2106 2451 2048 2329 
C 1901 2790 1504 2816 1389 2816 
C 736 2816 390 1993 390 1849 
C 390 1823 416 1790 461 1790 
C 512 1790 525 1829 538 1855 
C 755 2572 1184 2687 1370 2687 
C 1658 2687 1715 2438 1715 2284 
C 1715 2143 1677 1993 1600 1678 
L 1382 778 
C 1286 390 1101 64 762 64 
C 730 64 570 64 435 126 
C 666 166 717 358 717 435 
C 717 563 621 640 499 640 
C 346 640 179 505 179 300 
C 179 57 480 -64 755 -64 
C 1062 -64 1280 153 1414 415 
C 1517 64 1837 -64 2074 -64 
C 2726 -64 3072 751 3072 896 
C 3072 929 3046 955 3008 955 
C 2950 955 2944 922 2925 870 
C 2752 300 2381 64 2093 64 
C 1869 64 1747 204 1747 467 
C 1747 607 1773 712 1875 1146 
L 2099 2039 
C 2195 2425 2413 2687 2707 2687 
C 2720 2687 2899 2687 3034 2624 
z
" transform="scale(0.015625)"/>
       <path id="CMMI12-3d" d="M 2746 4563 
C 2746 4569 2784 4665 2784 4678 
C 2784 4755 2720 4800 2669 4800 
C 2637 4800 2579 4800 2528 4659 
L 384 -1364 
C 384 -1370 346 -1466 346 -1479 
C 346 -1556 410 -1600 461 -1600 
C 499 -1600 557 -1594 602 -1460 
L 2746 4563 
z
" transform="scale(0.015625)"/>
       <path id="CMMI12-19" d="M 1658 2406 
L 2381 2406 
C 2208 1691 2099 1225 2099 715 
C 2099 625 2099 -64 2362 -64 
C 2496 -64 2611 57 2611 166 
C 2611 198 2611 210 2566 306 
C 2394 746 2394 1295 2394 1340 
C 2394 1378 2394 1832 2528 2406 
L 3245 2406 
C 3328 2406 3539 2406 3539 2611 
C 3539 2752 3418 2752 3302 2752 
L 1197 2752 
C 1050 2752 832 2752 538 2438 
C 371 2253 166 1915 166 1876 
C 166 1838 198 1825 237 1825 
C 282 1825 288 1844 320 1883 
C 653 2406 986 2406 1146 2406 
L 1510 2406 
C 1370 1927 1210 1372 685 255 
C 634 153 634 140 634 102 
C 634 -32 749 -64 806 -64 
C 992 -64 1043 102 1120 370 
C 1222 695 1222 708 1286 964 
L 1658 2406 
z
" transform="scale(0.015625)"/>
      </defs>
      <use xlink:href="#CMMI12-6b" transform="scale(0.996264)"/>
      <use xlink:href="#CMMI12-78" transform="translate(50.735189 -14.943915)scale(0.697382)"/>
      <use xlink:href="#CMMI12-3d" transform="translate(90.03698 0)scale(0.996264)"/>
      <use xlink:href="#CMMI12-19" transform="translate(138.811899 0)scale(0.996264)"/>
     </g>
    </g>
   </g>
   <g id="matplotlib.axis_2">
    <g id="ytick_1">
     <g id="line2d_11">
      <defs>
       <path id="m4f30c0d53b" d="M 0 0 
L -3.5 0 
" style="stroke: #000000; stroke-width: 0.8"/>
      </defs>
      <g>
       <use xlink:href="#m4f30c0d53b" x="36" y="192.24" style="stroke: #000000; stroke-width: 0.8"/>
      </g>
     </g>
     <g id="line2d_12">
      <defs>
       <path id="m113c4f2844" d="M 0 0 
L 3.5 0 
" style="stroke: #000000; stroke-width: 0.8"/>
      </defs>
      <g>
       <use xlink:href="#m113c4f2844" x="259.2" y="192.24" style="stroke: #000000; stroke-width: 0.8"/>
      </g>
     </g>
     <g id="text_7">
      <!-- $\mathdefault{−5}$ -->
      <g transform="translate(17.732971 195.121551)scale(0.0833 -0.0833)">
       <defs>
        <path id="CMSY10-0" d="M 4218 1472 
C 4326 1472 4442 1472 4442 1600 
C 4442 1728 4326 1728 4218 1728 
L 755 1728 
C 646 1728 531 1728 531 1600 
C 531 1472 646 1472 755 1472 
L 4218 1472 
z
" transform="scale(0.015625)"/>
       </defs>
       <use xlink:href="#CMSY10-0" transform="scale(0.996264)"/>
       <use xlink:href="#CMR17-35" transform="translate(77.487468 0)scale(0.996264)"/>
      </g>
     </g>
    </g>
    <g id="ytick_2">
     <g id="line2d_13">
      <g>
       <use xlink:href="#m4f30c0d53b" x="36" y="164.52" style="stroke: #000000; stroke-width: 0.8"/>
      </g>
     </g>
     <g id="line2d_14">
      <g>
       <use xlink:href="#m113c4f2844" x="259.2" y="164.52" style="stroke: #000000; stroke-width: 0.8"/>
      </g>
     </g>
     <g id="text_8">
      <!-- $\mathdefault{−4}$ -->
      <g transform="translate(17.732971 167.401551)scale(0.0833 -0.0833)">
       <defs>
        <path id="CMR17-34" d="M 2150 4147 
C 2150 4281 2144 4288 2029 4288 
L 128 1254 
L 128 1088 
L 1779 1088 
L 1779 460 
C 1779 230 1766 166 1318 166 
L 1197 166 
L 1197 0 
C 1402 12 1747 12 1965 12 
C 2182 12 2528 12 2733 0 
L 2733 166 
L 2611 166 
C 2163 166 2150 230 2150 460 
L 2150 1088 
L 2803 1088 
L 2803 1254 
L 2150 1254 
L 2150 4147 
z
M 1798 3723 
L 1798 1254 
L 256 1254 
L 1798 3723 
z
" transform="scale(0.015625)"/>
       </defs>
       <use xlink:href="#CMSY10-0" transform="scale(0.996264)"/>
       <use xlink:href="#CMR17-34" transform="translate(77.487468 0)scale(0.996264)"/>
      </g>
     </g>
    </g>
    <g id="ytick_3">
     <g id="line2d_15">
      <g>
       <use xlink:href="#m4f30c0d53b" x="36" y="136.8" style="stroke: #000000; stroke-width: 0.8"/>
      </g>
     </g>
     <g id="line2d_16">
      <g>
       <use xlink:href="#m113c4f2844" x="259.2" y="136.8" style="stroke: #000000; stroke-width: 0.8"/>
      </g>
     </g>
     <g id="text_9">
      <!-- $\mathdefault{−3}$ -->
      <g transform="translate(17.732971 139.681551)scale(0.0833 -0.0833)">
       <defs>
        <path id="CMR17-33" d="M 1414 2176 
C 1984 2176 2234 1673 2234 1094 
C 2234 322 1824 25 1453 25 
C 1114 25 563 193 390 691 
C 422 678 454 678 486 678 
C 640 678 755 780 755 947 
C 755 1132 614 1216 486 1216 
C 378 1216 211 1164 211 927 
C 211 335 787 -128 1466 -128 
C 2176 -128 2720 432 2720 1087 
C 2720 1718 2208 2176 1600 2246 
C 2086 2347 2554 2776 2554 3353 
C 2554 3856 2048 4224 1472 4224 
C 890 4224 378 3862 378 3347 
C 378 3123 544 3084 627 3084 
C 762 3084 877 3167 877 3334 
C 877 3500 762 3584 627 3584 
C 602 3584 570 3584 544 3571 
C 730 3999 1235 4076 1459 4076 
C 1683 4076 2106 3966 2106 3347 
C 2106 3167 2080 2851 1862 2574 
C 1670 2329 1453 2316 1242 2297 
C 1210 2297 1062 2284 1037 2284 
C 992 2278 966 2272 966 2227 
C 966 2182 973 2176 1101 2176 
L 1414 2176 
z
" transform="scale(0.015625)"/>
       </defs>
       <use xlink:href="#CMSY10-0" transform="scale(0.996264)"/>
       <use xlink:href="#CMR17-33" transform="translate(77.487468 0)scale(0.996264)"/>
      </g>
     </g>
    </g>
    <g id="ytick_4">
     <g id="line2d_17">
      <g>
       <use xlink:href="#m4f30c0d53b" x="36" y="109.08" style="stroke: #000000; stroke-width: 0.8"/>
      </g>
     </g>
     <g id="line2d_18">
      <g>
       <use xlink:href="#m113c4f2844" x="259.2" y="109.08" style="stroke: #000000; stroke-width: 0.8"/>
      </g>
     </g>
     <g id="text_10">
      <!-- $\mathdefault{−2}$ -->
      <g transform="translate(17.732971 111.961551)scale(0.0833 -0.0833)">
       <defs>
        <path id="CMR17-32" d="M 2669 990 
L 2554 990 
C 2490 537 2438 460 2413 422 
C 2381 371 1920 371 1830 371 
L 602 371 
C 832 620 1280 1073 1824 1596 
C 2214 1966 2669 2400 2669 3033 
C 2669 3788 2067 4224 1395 4224 
C 691 4224 262 3603 262 3027 
C 262 2777 448 2745 525 2745 
C 589 2745 781 2783 781 3007 
C 781 3206 614 3264 525 3264 
C 486 3264 448 3257 422 3244 
C 544 3788 915 4057 1306 4057 
C 1862 4057 2227 3616 2227 3033 
C 2227 2477 1901 1998 1536 1583 
L 262 147 
L 262 0 
L 2515 0 
L 2669 990 
z
" transform="scale(0.015625)"/>
       </defs>
       <use xlink:href="#CMSY10-0" transform="scale(0.996264)"/>
       <use xlink:href="#CMR17-32" transform="translate(77.487468 0)scale(0.996264)"/>
      </g>
     </g>
    </g>
    <g id="ytick_5">
     <g id="line2d_19">
      <g>
       <use xlink:href="#m4f30c0d53b" x="36" y="81.36" style="stroke: #000000; stroke-width: 0.8"/>
      </g>
     </g>
     <g id="line2d_20">
      <g>
       <use xlink:href="#m113c4f2844" x="259.2" y="81.36" style="stroke: #000000; stroke-width: 0.8"/>
      </g>
     </g>
     <g id="text_11">
      <!-- $\mathdefault{−1}$ -->
      <g transform="translate(17.732971 84.241551)scale(0.0833 -0.0833)">
       <use xlink:href="#CMSY10-0" transform="scale(0.996264)"/>
       <use xlink:href="#CMR17-31" transform="translate(77.487468 0)scale(0.996264)"/>
      </g>
     </g>
    </g>
    <g id="ytick_6">
     <g id="line2d_21">
      <g>
       <use xlink:href="#m4f30c0d53b" x="36" y="53.64" style="stroke: #000000; stroke-width: 0.8"/>
      </g>
     </g>
     <g id="line2d_22">
      <g>
       <use xlink:href="#m113c4f2844" x="259.2" y="53.64" style="stroke: #000000; stroke-width: 0.8"/>
      </g>
     </g>
     <g id="text_12">
      <!-- $\mathdefault{0}$ -->
      <g transform="translate(24.591164 56.521551)scale(0.0833 -0.0833)">
       <use xlink:href="#CMR17-30" transform="scale(0.996264)"/>
      </g>
     </g>
    </g>
    <g id="ytick_7">
     <g id="line2d_23">
      <g>
       <use xlink:href="#m4f30c0d53b" x="36" y="25.92" style="stroke: #000000; stroke-width: 0.8"/>
      </g>
     </g>
     <g id="line2d_24">
      <g>
       <use xlink:href="#m113c4f2844" x="259.2" y="25.92" style="stroke: #000000; stroke-width: 0.8"/>
      </g>
     </g>
     <g id="text_13">
      <!-- $\mathdefault{1}$ -->
      <g transform="translate(24.591164 28.801551)scale(0.0833 -0.0833)">
       <use xlink:href="#CMR17-31" transform="scale(0.996264)"/>
      </g>
     </g>
    </g>
    <g id="text_14">
     <!-- $\epsilon(k_x)-2\lambda\sin k_x$ -->
     <g transform="translate(11.242311 144.190804)rotate(-90)scale(0.1 -0.1)">
      <defs>
       <path id="CMMI12-f" d="M 1862 1472 
C 1958 1472 2067 1472 2067 1574 
C 2067 1657 2003 1657 1888 1657 
L 851 1657 
C 1011 2224 1389 2566 1958 2566 
L 2144 2566 
C 2253 2566 2349 2566 2349 2668 
C 2349 2752 2278 2752 2163 2752 
L 1946 2752 
C 1158 2752 294 2136 294 1141 
C 294 420 774 -64 1408 -64 
C 1818 -64 2221 193 2221 258 
C 2221 297 2202 336 2163 336 
C 2144 336 2131 330 2099 304 
C 1856 141 1619 64 1427 64 
C 1088 64 730 291 730 920 
C 730 1043 742 1212 800 1472 
L 1862 1472 
z
" transform="scale(0.015625)"/>
       <path id="CMR17-28" d="M 1958 -1562 
C 1958 -1556 1958 -1543 1939 -1524 
C 1645 -1223 858 -403 858 1596 
C 858 3595 1632 4408 1946 4729 
C 1946 4735 1958 4748 1958 4767 
C 1958 4787 1939 4800 1914 4800 
C 1843 4800 1299 4325 986 3620 
C 666 2909 576 2218 576 1603 
C 576 1141 621 360 1005 -467 
C 1312 -1133 1837 -1600 1914 -1600 
C 1946 -1600 1958 -1588 1958 -1562 
z
" transform="scale(0.015625)"/>
       <path id="CMR17-29" d="M 1683 1596 
C 1683 2057 1638 2839 1254 3665 
C 947 4332 422 4800 346 4800 
C 326 4800 301 4793 301 4761 
C 301 4748 307 4742 314 4729 
C 621 4408 1402 3595 1402 1603 
C 1402 -396 627 -1210 314 -1530 
C 307 -1543 301 -1549 301 -1562 
C 301 -1594 326 -1600 346 -1600 
C 416 -1600 960 -1127 1274 -422 
C 1594 289 1683 981 1683 1596 
z
" transform="scale(0.015625)"/>
       <path id="CMMI12-15" d="M 1978 3963 
C 1818 4416 1312 4416 1229 4416 
C 1190 4416 1120 4416 1120 4351 
C 1120 4300 1158 4294 1190 4287 
C 1286 4275 1363 4262 1466 4078 
C 1530 3957 2189 2055 2189 2042 
C 2189 2036 2182 2029 2131 1978 
L 467 305 
C 390 229 339 178 339 95 
C 339 6 416 -71 518 -71 
C 544 -71 614 -58 653 -20 
C 755 76 1670 1190 2253 1877 
C 2419 1380 2624 795 2822 261 
C 2854 165 2886 76 2976 -7 
C 3040 -64 3053 -64 3232 -64 
L 3354 -64 
C 3379 -64 3424 -64 3424 -13 
C 3424 12 3418 19 3392 44 
C 3334 114 3290 229 3264 305 
L 1978 3963 
z
" transform="scale(0.015625)"/>
       <path id="CMR17-73" d="M 1978 2688 
C 1978 2803 1971 2809 1933 2809 
C 1907 2809 1901 2803 1824 2707 
C 1805 2681 1747 2617 1728 2592 
C 1523 2809 1235 2816 1126 2816 
C 416 2816 160 2444 160 2073 
C 160 1497 813 1363 998 1324 
C 1402 1241 1542 1216 1677 1100 
C 1760 1024 1901 883 1901 652 
C 1901 384 1747 38 1158 38 
C 602 38 403 460 288 1024 
C 269 1113 269 1120 218 1120 
C 166 1120 160 1113 160 985 
L 160 64 
C 160 -52 166 -58 205 -58 
C 237 -58 243 -52 275 0 
C 314 57 410 211 448 275 
C 576 102 800 -64 1158 -64 
C 1792 -64 2131 281 2131 780 
C 2131 1107 1958 1280 1875 1356 
C 1683 1555 1459 1600 1190 1651 
C 838 1728 390 1817 390 2208 
C 390 2374 480 2726 1126 2726 
C 1811 2726 1850 2086 1862 1881 
C 1869 1849 1901 1843 1920 1843 
C 1978 1843 1978 1862 1978 1971 
L 1978 2688 
z
" transform="scale(0.015625)"/>
       <path id="CMR17-69" d="M 992 3961 
C 992 4102 877 4224 730 4224 
C 589 4224 467 4108 467 3961 
C 467 3820 582 3699 730 3699 
C 870 3699 992 3814 992 3961 
z
M 243 2745 
L 243 2579 
C 602 2579 653 2540 653 2231 
L 653 443 
C 653 198 627 166 218 166 
L 218 0 
C 371 12 646 12 806 12 
C 960 12 1222 12 1370 0 
L 1370 166 
C 992 166 979 205 979 436 
L 979 2816 
L 243 2745 
z
" transform="scale(0.015625)"/>
       <path id="CMR17-6e" d="M 2656 1954 
C 2656 2282 2592 2816 1837 2816 
C 1331 2816 1069 2424 973 2166 
L 966 2166 
L 966 2816 
L 211 2745 
L 211 2578 
C 589 2578 646 2540 646 2231 
L 646 443 
C 646 198 621 166 211 166 
L 211 0 
C 365 12 646 12 813 12 
C 979 12 1267 12 1421 0 
L 1421 166 
C 1011 166 986 192 986 443 
L 986 1678 
C 986 2269 1344 2713 1792 2713 
C 2266 2713 2317 2289 2317 1980 
L 2317 443 
C 2317 198 2291 166 1882 166 
L 1882 0 
C 2035 12 2317 12 2483 12 
C 2650 12 2938 12 3091 0 
L 3091 166 
C 2682 166 2656 192 2656 443 
L 2656 1954 
z
" transform="scale(0.015625)"/>
      </defs>
      <use xlink:href="#CMMI12-f" transform="scale(0.996264)"/>
      <use xlink:href="#CMR17-28" transform="translate(39.388958 0)scale(0.996264)"/>
      <use xlink:href="#CMMI12-6b" transform="translate(74.669726 0)scale(0.996264)"/>
      <use xlink:href="#CMMI12-78" transform="translate(125.404915 -14.943915)scale(0.697382)"/>
      <use xlink:href="#CMR17-29" transform="translate(164.706706 0)scale(0.996264)"/>
      <use xlink:href="#CMSY10-0" transform="translate(222.126681 0)scale(0.996264)"/>
      <use xlink:href="#CMR17-32" transform="translate(321.753355 0)scale(0.996264)"/>
      <use xlink:href="#CMMI12-15" transform="translate(367.443832 0)scale(0.996264)"/>
      <use xlink:href="#CMR17-73" transform="translate(440.95231 0)scale(0.996264)"/>
      <use xlink:href="#CMR17-69" transform="translate(476.753647 0)scale(0.996264)"/>
      <use xlink:href="#CMR17-6e" transform="translate(501.624706 0)scale(0.996264)"/>
      <use xlink:href="#CMMI12-6b" transform="translate(569.124481 0)scale(0.996264)"/>
      <use xlink:href="#CMMI12-78" transform="translate(619.859669 -14.943915)scale(0.697382)"/>
     </g>
    </g>
   </g>
   <g id="line2d_25">
    <path d="M 36 136.8 
L 40.555102 136.8 
L 45.110204 136.8 
L 49.665306 136.8 
L 54.220408 136.8 
L 58.77551 136.8 
L 63.330612 136.8 
L 67.885714 136.8 
L 72.440816 136.8 
L 76.995918 136.8 
L 81.55102 136.8 
L 86.106122 136.8 
L 90.661224 136.8 
L 95.216327 136.8 
L 99.771429 136.8 
L 104.326531 136.8 
L 108.881633 136.8 
L 113.436735 136.8 
L 117.991837 136.8 
L 122.546939 136.8 
L 127.102041 136.8 
L 131.657143 136.8 
L 136.212245 136.8 
L 140.767347 136.8 
L 145.322449 136.8 
L 149.877551 136.8 
L 154.432653 136.8 
L 158.987755 136.8 
L 163.542857 136.8 
L 168.097959 136.8 
L 172.653061 136.8 
L 177.208163 136.8 
L 181.763265 136.8 
L 186.318367 136.8 
L 190.873469 136.8 
L 195.428571 136.8 
L 199.983673 136.8 
L 204.538776 136.8 
L 209.093878 136.8 
L 213.64898 136.8 
L 218.204082 136.8 
L 222.759184 136.8 
L 227.314286 136.8 
L 231.869388 136.8 
L 236.42449 136.8 
L 240.979592 136.8 
L 245.534694 136.8 
L 250.089796 136.8 
L 254.644898 136.8 
L 259.2 136.8 
" clip-path="url(#pf9a0fe4a3e)" style="fill: none; stroke: #000000; stroke-width: 0.8; stroke-linecap: square"/>
   </g>
   <g id="line2d_26">
    <path d="M 36 81.36 
L 40.555102 81.36 
L 45.110204 81.36 
L 49.665306 81.36 
L 54.220408 81.36 
L 58.77551 81.36 
L 63.330612 81.36 
L 67.885714 81.36 
L 72.440816 81.36 
L 76.995918 81.36 
L 81.55102 81.36 
L 86.106122 81.36 
L 90.661224 81.36 
L 95.216327 81.36 
L 99.771429 81.36 
L 104.326531 81.36 
L 108.881633 81.36 
L 113.436735 81.36 
L 117.991837 81.36 
L 122.546939 81.36 
L 127.102041 81.36 
L 131.657143 81.36 
L 136.212245 81.36 
L 140.767347 81.36 
L 145.322449 81.36 
L 149.877551 81.36 
L 154.432653 81.36 
L 158.987755 81.36 
L 163.542857 81.36 
L 168.097959 81.36 
L 172.653061 81.36 
L 177.208163 81.36 
L 181.763265 81.36 
L 186.318367 81.36 
L 190.873469 81.36 
L 195.428571 81.36 
L 199.983673 81.36 
L 204.538776 81.36 
L 209.093878 81.36 
L 213.64898 81.36 
L 218.204082 81.36 
L 222.759184 81.36 
L 227.314286 81.36 
L 231.869388 81.36 
L 236.42449 81.36 
L 240.979592 81.36 
L 245.534694 81.36 
L 250.089796 81.36 
L 254.644898 81.36 
L 259.2 81.36 
" clip-path="url(#pf9a0fe4a3e)" style="fill: none; stroke: #000000; stroke-width: 0.8; stroke-linecap: square"/>
   </g>
   <g id="line2d_27">
    <path d="M 36 53.64 
L 40.555102 50.550407 
L 45.110204 48.421868 
L 49.665306 47.289334 
L 54.220408 47.171401 
L 58.77551 48.070005 
L 63.330612 49.970392 
L 67.885714 52.841357 
L 72.440816 56.635759 
L 76.995918 61.291294 
L 81.55102 66.731518 
L 86.106122 72.867103 
L 90.661224 79.597303 
L 95.216327 86.811608 
L 99.771429 94.391559 
L 104.326531 102.212694 
L 108.881633 110.14659 
L 113.436735 118.062973 
L 117.991837 125.831855 
L 122.546939 133.325673 
L 127.102041 140.421377 
L 131.657143 147.002457 
L 136.212245 152.960851 
L 140.767347 158.198722 
L 145.322449 162.630066 
L 149.877551 166.182119 
L 154.432653 168.796557 
L 158.987755 170.43045 
L 163.542857 171.056971 
L 168.097959 170.665832 
L 172.653061 169.263455 
L 177.208163 166.872867 
L 181.763265 163.533323 
L 186.318367 159.299656 
L 190.873469 154.241383 
L 195.428571 148.441562 
L 199.983673 141.995426 
L 204.538776 135.008818 
L 209.093878 127.596461 
L 213.64898 119.880063 
L 218.204082 111.986329 
L 222.759184 104.044873 
L 227.314286 96.186094 
L 231.869388 88.539032 
L 236.42449 81.229253 
L 240.979592 74.376782 
L 245.534694 68.094136 
L 250.089796 62.484478 
L 254.644898 57.639917 
L 259.2 53.64 
" clip-path="url(#pf9a0fe4a3e)" style="fill: none; stroke: #0000ff; stroke-width: 1.5; stroke-linecap: square"/>
   </g>
   <g id="line2d_28">
    <path d="M 36 53.64 
L 40.555102 57.639917 
L 45.110204 62.484478 
L 49.665306 68.094136 
L 54.220408 74.376782 
L 58.77551 81.229253 
L 63.330612 88.539032 
L 67.885714 96.186094 
L 72.440816 104.044873 
L 76.995918 111.986329 
L 81.55102 119.880063 
L 86.106122 127.596461 
L 90.661224 135.008818 
L 95.216327 141.995426 
L 99.771429 148.441562 
L 104.326531 154.241383 
L 108.881633 159.299656 
L 113.436735 163.533323 
L 117.991837 166.872867 
L 122.546939 169.263455 
L 127.102041 170.665832 
L 131.657143 171.056971 
L 136.212245 170.43045 
L 140.767347 168.796557 
L 145.322449 166.182119 
L 149.877551 162.630066 
L 154.432653 158.198722 
L 158.987755 152.960851 
L 163.542857 147.002457 
L 168.097959 140.421377 
L 172.653061 133.325673 
L 177.208163 125.831855 
L 181.763265 118.062973 
L 186.318367 110.14659 
L 190.873469 102.212694 
L 195.428571 94.391559 
L 199.983673 86.811608 
L 204.538776 79.597303 
L 209.093878 72.867103 
L 213.64898 66.731518 
L 218.204082 61.291294 
L 222.759184 56.635759 
L 227.314286 52.841357 
L 231.869388 49.970392 
L 236.42449 48.070005 
L 240.979592 47.171401 
L 245.534694 47.289334 
L 250.089796 48.421868 
L 254.644898 50.550407 
L 259.2 53.64 
" clip-path="url(#pf9a0fe4a3e)" style="fill: none; stroke: #ff0000; stroke-width: 1.5; stroke-linecap: square"/>
   </g>
   <g id="patch_5">
    <path d="M 36 192.24 
L 36 25.92 
" style="fill: none; stroke: #000000; stroke-width: 0.8; stroke-linejoin: miter; stroke-linecap: square"/>
   </g>
   <g id="patch_6">
    <path d="M 259.2 192.24 
L 259.2 25.92 
" style="fill: none; stroke: #000000; stroke-width: 0.8; stroke-linejoin: miter; stroke-linecap: square"/>
   </g>
   <g id="patch_7">
    <path d="M 36 192.24 
L 259.2 192.24 
" style="fill: none; stroke: #000000; stroke-width: 0.8; stroke-linejoin: miter; stroke-linecap: square"/>
   </g>
   <g id="patch_8">
    <path d="M 36 25.92 
L 259.2 25.92 
" style="fill: none; stroke: #000000; stroke-width: 0.8; stroke-linejoin: miter; stroke-linecap: square"/>
   </g>
   <g id="text_15">
    <!-- $\mu_c$ -->
    <g transform="translate(236.88 131.256)scale(0.144 -0.144)">
     <defs>
      <path id="CMMI12-16" d="M 922 140 
C 1082 -7 1318 -64 1536 -64 
C 1946 -64 2227 210 2374 408 
C 2438 70 2707 -64 2931 -64 
C 3123 -64 3277 51 3392 281 
C 3494 498 3584 887 3584 913 
C 3584 944 3558 970 3520 970 
C 3462 970 3456 938 3430 842 
C 3334 466 3213 64 2950 64 
C 2765 64 2752 229 2752 357 
C 2752 504 2810 734 2854 925 
L 3034 1615 
C 3059 1736 3130 2023 3162 2138 
C 3200 2291 3270 2566 3270 2591 
C 3270 2687 3194 2752 3098 2752 
C 3040 2752 2906 2726 2854 2534 
L 2406 759 
C 2374 632 2374 619 2291 517 
C 2214 408 1965 64 1562 64 
C 1203 64 1088 325 1088 625 
C 1088 811 1146 1034 1171 1143 
L 1459 2292 
C 1491 2413 1542 2617 1542 2656 
C 1542 2758 1459 2816 1376 2816 
C 1318 2816 1178 2796 1126 2592 
L 198 -1085 
C 192 -1116 179 -1154 179 -1191 
C 179 -1287 256 -1351 352 -1351 
C 538 -1351 576 -1204 621 -1029 
L 922 140 
z
" transform="scale(0.015625)"/>
      <path id="CMMI12-63" d="M 2502 2432 
C 2381 2432 2323 2432 2234 2355 
C 2195 2323 2125 2227 2125 2124 
C 2125 1996 2221 1919 2342 1919 
C 2496 1919 2669 2047 2669 2303 
C 2669 2591 2374 2816 1933 2816 
C 1094 2816 256 1932 256 1011 
C 256 446 602 -64 1254 -64 
C 2125 -64 2675 622 2675 706 
C 2675 745 2637 777 2611 777 
C 2592 777 2586 771 2528 712 
C 2118 161 1510 64 1267 64 
C 826 64 685 453 685 777 
C 685 1004 794 1634 1024 2073 
C 1190 2374 1536 2687 1939 2687 
C 2022 2687 2374 2676 2502 2432 
z
" transform="scale(0.015625)"/>
     </defs>
     <use xlink:href="#CMMI12-16" transform="scale(0.996264)"/>
     <use xlink:href="#CMMI12-63" transform="translate(58.691421 -14.943915)scale(0.697382)"/>
    </g>
   </g>
  </g>
 </g>
 <defs>
  <clipPath id="pf9a0fe4a3e">
   <rect x="36" y="25.92" width="223.2" height="166.32"/>
  </clipPath>
 </defs>
</svg>
