<?xml version="1.0" encoding="utf-8" standalone="no"?>
<!DOCTYPE svg PUBLIC "-//W3C//DTD SVG 1.1//EN"
  "http://www.w3.org/Graphics/SVG/1.1/DTD/svg11.dtd">
<svg xmlns:xlink="http://www.w3.org/1999/xlink" width="288pt" height="216pt" viewBox="0 0 288 216" xmlns="http://www.w3.org/2000/svg" version="1.1">
 <metadata>
  <rdf:RDF xmlns:dc="http://purl.org/dc/elements/1.1/" xmlns:cc="http://creativecommons.org/ns#" xmlns:rdf="http://www.w3.org/1999/02/22-rdf-syntax-ns#">
   <cc:Work>
    <dc:type rdf:resource="http://purl.org/dc/dcmitype/StillImage"/>
    <dc:date>2022-04-08T07:48:58.085331</dc:date>
    <dc:format>image/svg+xml</dc:format>
    <dc:creator>
     <cc:Agent>
      <dc:title>Matplotlib v3.5.0, https://matplotlib.org/</dc:title>
     </cc:Agent>
    </dc:creator>
   </cc:Work>
  </rdf:RDF>
 </metadata>
 <defs>
  <style type="text/css">*{stroke-linejoin: round; stroke-linecap: butt}</style>
 </defs>
 <g id="figure_1">
  <g id="patch_1">
   <path d="M 0 216 
L 288 216 
L 288 0 
L 0 0 
z
" style="fill: #ffffff"/>
  </g>
  <g id="axes_1">
   <g id="patch_2">
    <path d="M 49.887862 176.860589 
L 273.7 176.860589 
L 273.7 14.3 
L 49.887862 14.3 
z
" style="fill: #ffffff"/>
   </g>
   <g id="matplotlib.axis_1">
    <g id="xtick_1">
     <g id="line2d_1">
      <defs>
       <path id="m17d0ec3af5" d="M 0 0 
L 0 3.5 
" style="stroke: #000000; stroke-width: 0.8"/>
      </defs>
      <g>
       <use xlink:href="#m17d0ec3af5" x="49.887862" y="176.860589" style="stroke: #000000; stroke-width: 0.8"/>
      </g>
     </g>
     <g id="line2d_2">
      <defs>
       <path id="mb7c0d97767" d="M 0 0 
L 0 -3.5 
" style="stroke: #000000; stroke-width: 0.8"/>
      </defs>
      <g>
       <use xlink:href="#mb7c0d97767" x="49.887862" y="14.3" style="stroke: #000000; stroke-width: 0.8"/>
      </g>
     </g>
     <g id="text_1">
      <!-- 0 -->
      <g transform="translate(47.683444 189.623691)scale(0.0833 -0.0833)">
       <defs>
        <path id="CMR17-30" d="M 2688 2038 
C 2688 2430 2682 3099 2413 3613 
C 2176 4063 1798 4224 1466 4224 
C 1158 4224 768 4082 525 3620 
C 269 3137 243 2539 243 2038 
C 243 1671 250 1112 448 623 
C 723 -39 1216 -128 1466 -128 
C 1760 -128 2208 -7 2470 604 
C 2662 1048 2688 1568 2688 2038 
z
M 1466 -26 
C 1056 -26 813 328 723 816 
C 653 1196 653 1749 653 2109 
C 653 2604 653 3015 736 3407 
C 858 3954 1216 4121 1466 4121 
C 1728 4121 2067 3947 2189 3420 
C 2272 3054 2278 2623 2278 2109 
C 2278 1691 2278 1176 2202 797 
C 2067 96 1690 -26 1466 -26 
z
" transform="scale(0.015625)"/>
       </defs>
       <use xlink:href="#CMR17-30" transform="scale(0.996264)"/>
      </g>
     </g>
    </g>
    <g id="xtick_2">
     <g id="line2d_3">
      <g>
       <use xlink:href="#m17d0ec3af5" x="105.840897" y="176.860589" style="stroke: #000000; stroke-width: 0.8"/>
      </g>
     </g>
     <g id="line2d_4">
      <g>
       <use xlink:href="#mb7c0d97767" x="105.840897" y="14.3" style="stroke: #000000; stroke-width: 0.8"/>
      </g>
     </g>
     <g id="text_2">
      <!-- 0.5 -->
      <g transform="translate(100.207382 189.623691)scale(0.0833 -0.0833)">
       <defs>
        <path id="CMR17-2e" d="M 1062 262 
C 1062 422 934 524 800 524 
C 672 524 538 422 538 262 
C 538 102 666 0 800 0 
C 928 0 1062 102 1062 262 
z
" transform="scale(0.015625)"/>
        <path id="CMR17-35" d="M 730 3750 
C 794 3724 1056 3641 1325 3641 
C 1920 3641 2246 3961 2432 4140 
C 2432 4191 2432 4224 2394 4224 
C 2387 4224 2374 4224 2323 4198 
C 2099 4102 1837 4032 1517 4032 
C 1325 4032 1037 4055 723 4191 
C 653 4224 640 4224 634 4224 
C 602 4224 595 4217 595 4090 
L 595 2231 
C 595 2113 595 2080 659 2080 
C 691 2080 704 2093 736 2139 
C 941 2435 1222 2560 1542 2560 
C 1766 2560 2246 2415 2246 1293 
C 2246 1087 2246 716 2054 422 
C 1894 159 1645 25 1370 25 
C 947 25 518 319 403 812 
C 429 806 480 793 506 793 
C 589 793 749 838 749 1036 
C 749 1209 627 1280 506 1280 
C 358 1280 262 1190 262 1011 
C 262 454 704 -128 1382 -128 
C 2042 -128 2669 441 2669 1267 
C 2669 2054 2170 2662 1549 2662 
C 1222 2662 947 2540 730 2304 
L 730 3750 
z
" transform="scale(0.015625)"/>
       </defs>
       <use xlink:href="#CMR17-30" transform="scale(0.996264)"/>
       <use xlink:href="#CMR17-2e" transform="translate(45.690477 0)scale(0.996264)"/>
       <use xlink:href="#CMR17-35" transform="translate(70.561536 0)scale(0.996264)"/>
      </g>
     </g>
    </g>
    <g id="xtick_3">
     <g id="line2d_5">
      <g>
       <use xlink:href="#m17d0ec3af5" x="161.793931" y="176.860589" style="stroke: #000000; stroke-width: 0.8"/>
      </g>
     </g>
     <g id="line2d_6">
      <g>
       <use xlink:href="#mb7c0d97767" x="161.793931" y="14.3" style="stroke: #000000; stroke-width: 0.8"/>
      </g>
     </g>
     <g id="text_3">
      <!-- 1.0 -->
      <g transform="translate(156.160417 189.623691)scale(0.0833 -0.0833)">
       <defs>
        <path id="CMR17-31" d="M 1702 4083 
C 1702 4217 1696 4224 1606 4224 
C 1357 3927 979 3833 621 3820 
C 602 3820 570 3820 563 3808 
C 557 3795 557 3782 557 3648 
C 755 3648 1088 3686 1344 3839 
L 1344 467 
C 1344 243 1331 166 781 166 
L 589 166 
L 589 0 
C 896 6 1216 12 1523 12 
C 1830 12 2150 6 2458 0 
L 2458 166 
L 2266 166 
C 1715 166 1702 236 1702 467 
L 1702 4083 
z
" transform="scale(0.015625)"/>
       </defs>
       <use xlink:href="#CMR17-31" transform="scale(0.996264)"/>
       <use xlink:href="#CMR17-2e" transform="translate(45.690477 0)scale(0.996264)"/>
       <use xlink:href="#CMR17-30" transform="translate(70.561536 0)scale(0.996264)"/>
      </g>
     </g>
    </g>
    <g id="xtick_4">
     <g id="line2d_7">
      <g>
       <use xlink:href="#m17d0ec3af5" x="217.746966" y="176.860589" style="stroke: #000000; stroke-width: 0.8"/>
      </g>
     </g>
     <g id="line2d_8">
      <g>
       <use xlink:href="#mb7c0d97767" x="217.746966" y="14.3" style="stroke: #000000; stroke-width: 0.8"/>
      </g>
     </g>
     <g id="text_4">
      <!-- 1.5 -->
      <g transform="translate(212.113451 189.623691)scale(0.0833 -0.0833)">
       <use xlink:href="#CMR17-31" transform="scale(0.996264)"/>
       <use xlink:href="#CMR17-2e" transform="translate(45.690477 0)scale(0.996264)"/>
       <use xlink:href="#CMR17-35" transform="translate(70.561536 0)scale(0.996264)"/>
      </g>
     </g>
    </g>
    <g id="xtick_5">
     <g id="line2d_9">
      <g>
       <use xlink:href="#m17d0ec3af5" x="273.7" y="176.860589" style="stroke: #000000; stroke-width: 0.8"/>
      </g>
     </g>
     <g id="line2d_10">
      <g>
       <use xlink:href="#mb7c0d97767" x="273.7" y="14.3" style="stroke: #000000; stroke-width: 0.8"/>
      </g>
     </g>
     <g id="text_5">
      <!-- 2 -->
      <g transform="translate(271.495582 189.623691)scale(0.0833 -0.0833)">
       <defs>
        <path id="CMR17-32" d="M 2669 990 
L 2554 990 
C 2490 537 2438 460 2413 422 
C 2381 371 1920 371 1830 371 
L 602 371 
C 832 620 1280 1073 1824 1596 
C 2214 1966 2669 2400 2669 3033 
C 2669 3788 2067 4224 1395 4224 
C 691 4224 262 3603 262 3027 
C 262 2777 448 2745 525 2745 
C 589 2745 781 2783 781 3007 
C 781 3206 614 3264 525 3264 
C 486 3264 448 3257 422 3244 
C 544 3788 915 4057 1306 4057 
C 1862 4057 2227 3616 2227 3033 
C 2227 2477 1901 1998 1536 1583 
L 262 147 
L 262 0 
L 2515 0 
L 2669 990 
z
" transform="scale(0.015625)"/>
       </defs>
       <use xlink:href="#CMR17-32" transform="scale(0.996264)"/>
      </g>
     </g>
    </g>
    <g id="xtick_6">
     <g id="line2d_11">
      <defs>
       <path id="m0f8cde4a05" d="M 0 0 
L 0 2 
" style="stroke: #000000; stroke-width: 0.6"/>
      </defs>
      <g>
       <use xlink:href="#m0f8cde4a05" x="77.864379" y="176.860589" style="stroke: #000000; stroke-width: 0.6"/>
      </g>
     </g>
     <g id="line2d_12">
      <defs>
       <path id="medee2f8276" d="M 0 0 
L 0 -2 
" style="stroke: #000000; stroke-width: 0.6"/>
      </defs>
      <g>
       <use xlink:href="#medee2f8276" x="77.864379" y="14.3" style="stroke: #000000; stroke-width: 0.6"/>
      </g>
     </g>
    </g>
    <g id="xtick_7">
     <g id="line2d_13">
      <g>
       <use xlink:href="#m0f8cde4a05" x="133.817414" y="176.860589" style="stroke: #000000; stroke-width: 0.6"/>
      </g>
     </g>
     <g id="line2d_14">
      <g>
       <use xlink:href="#medee2f8276" x="133.817414" y="14.3" style="stroke: #000000; stroke-width: 0.6"/>
      </g>
     </g>
    </g>
    <g id="xtick_8">
     <g id="line2d_15">
      <g>
       <use xlink:href="#m0f8cde4a05" x="189.770448" y="176.860589" style="stroke: #000000; stroke-width: 0.6"/>
      </g>
     </g>
     <g id="line2d_16">
      <g>
       <use xlink:href="#medee2f8276" x="189.770448" y="14.3" style="stroke: #000000; stroke-width: 0.6"/>
      </g>
     </g>
    </g>
    <g id="xtick_9">
     <g id="line2d_17">
      <g>
       <use xlink:href="#m0f8cde4a05" x="245.723483" y="176.860589" style="stroke: #000000; stroke-width: 0.6"/>
      </g>
     </g>
     <g id="line2d_18">
      <g>
       <use xlink:href="#medee2f8276" x="245.723483" y="14.3" style="stroke: #000000; stroke-width: 0.6"/>
      </g>
     </g>
    </g>
    <g id="text_6">
     <!-- $\Phi/\pi$ -->
     <g transform="translate(152.866152 202.70934)scale(0.1 -0.1)">
      <defs>
       <path id="CMR17-8" d="M 2330 851 
C 3366 940 3974 1569 3974 2172 
C 3974 2801 3341 3411 2330 3500 
L 2330 3879 
C 2330 4118 2342 4185 2829 4185 
L 2970 4185 
L 2970 4352 
C 2707 4339 2400 4339 2131 4339 
C 1862 4339 1549 4339 1286 4352 
L 1286 4185 
L 1427 4185 
C 1914 4185 1926 4118 1926 3879 
L 1926 3500 
C 922 3411 294 2794 294 2179 
C 294 1538 947 940 1926 851 
L 1926 472 
C 1926 232 1914 166 1427 166 
L 1286 166 
L 1286 0 
C 1549 12 1862 12 2131 12 
C 2400 12 2707 12 2970 0 
L 2970 166 
L 2829 166 
C 2342 166 2330 232 2330 472 
L 2330 851 
z
M 1926 960 
C 1350 1022 768 1345 768 2172 
C 768 3024 1370 3335 1926 3392 
L 1926 960 
z
M 2330 3392 
C 2835 3348 3501 3068 3501 2179 
C 3501 1264 2810 1003 2330 960 
L 2330 3392 
z
" transform="scale(0.015625)"/>
       <path id="CMMI12-3d" d="M 2746 4563 
C 2746 4569 2784 4665 2784 4678 
C 2784 4755 2720 4800 2669 4800 
C 2637 4800 2579 4800 2528 4659 
L 384 -1364 
C 384 -1370 346 -1466 346 -1479 
C 346 -1556 410 -1600 461 -1600 
C 499 -1600 557 -1594 602 -1460 
L 2746 4563 
z
" transform="scale(0.015625)"/>
       <path id="CMMI12-19" d="M 1658 2406 
L 2381 2406 
C 2208 1691 2099 1225 2099 715 
C 2099 625 2099 -64 2362 -64 
C 2496 -64 2611 57 2611 166 
C 2611 198 2611 210 2566 306 
C 2394 746 2394 1295 2394 1340 
C 2394 1378 2394 1832 2528 2406 
L 3245 2406 
C 3328 2406 3539 2406 3539 2611 
C 3539 2752 3418 2752 3302 2752 
L 1197 2752 
C 1050 2752 832 2752 538 2438 
C 371 2253 166 1915 166 1876 
C 166 1838 198 1825 237 1825 
C 282 1825 288 1844 320 1883 
C 653 2406 986 2406 1146 2406 
L 1510 2406 
C 1370 1927 1210 1372 685 255 
C 634 153 634 140 634 102 
C 634 -32 749 -64 806 -64 
C 992 -64 1043 102 1120 370 
C 1222 695 1222 708 1286 964 
L 1658 2406 
z
" transform="scale(0.015625)"/>
      </defs>
      <use xlink:href="#CMR17-8" transform="scale(0.996264)"/>
      <use xlink:href="#CMMI12-3d" transform="translate(66.509881 0)scale(0.996264)"/>
      <use xlink:href="#CMMI12-19" transform="translate(115.284799 0)scale(0.996264)"/>
     </g>
    </g>
   </g>
   <g id="matplotlib.axis_2">
    <g id="ytick_1">
     <g id="line2d_19">
      <defs>
       <path id="m74a78eae04" d="M 0 0 
L -3.5 0 
" style="stroke: #000000; stroke-width: 0.8"/>
      </defs>
      <g>
       <use xlink:href="#m74a78eae04" x="49.887862" y="149.767157" style="stroke: #000000; stroke-width: 0.8"/>
      </g>
     </g>
     <g id="line2d_20">
      <defs>
       <path id="m5c3db15da1" d="M 0 0 
L 3.5 0 
" style="stroke: #000000; stroke-width: 0.8"/>
      </defs>
      <g>
       <use xlink:href="#m5c3db15da1" x="273.7" y="149.767157" style="stroke: #000000; stroke-width: 0.8"/>
      </g>
     </g>
     <g id="text_7">
      <!-- $\mathdefault{−0.1}$ -->
      <g transform="translate(24.76264 152.648708)scale(0.0833 -0.0833)">
       <defs>
        <path id="CMSY10-0" d="M 4218 1472 
C 4326 1472 4442 1472 4442 1600 
C 4442 1728 4326 1728 4218 1728 
L 755 1728 
C 646 1728 531 1728 531 1600 
C 531 1472 646 1472 755 1472 
L 4218 1472 
z
" transform="scale(0.015625)"/>
        <path id="CMMI12-3a" d="M 1178 307 
C 1178 492 1024 620 870 620 
C 685 620 557 467 557 313 
C 557 128 710 0 864 0 
C 1050 0 1178 153 1178 307 
z
" transform="scale(0.015625)"/>
       </defs>
       <use xlink:href="#CMSY10-0" transform="scale(0.996264)"/>
       <use xlink:href="#CMR17-30" transform="translate(77.487468 0)scale(0.996264)"/>
       <use xlink:href="#CMMI12-3a" transform="translate(123.177945 0)scale(0.996264)"/>
       <use xlink:href="#CMR17-31" transform="translate(150.275122 0)scale(0.996264)"/>
      </g>
     </g>
    </g>
    <g id="ytick_2">
     <g id="line2d_21">
      <g>
       <use xlink:href="#m74a78eae04" x="49.887862" y="95.580294" style="stroke: #000000; stroke-width: 0.8"/>
      </g>
     </g>
     <g id="line2d_22">
      <g>
       <use xlink:href="#m5c3db15da1" x="273.7" y="95.580294" style="stroke: #000000; stroke-width: 0.8"/>
      </g>
     </g>
     <g id="text_8">
      <!-- $\mathdefault{0.0}$ -->
      <g transform="translate(31.620833 98.461845)scale(0.0833 -0.0833)">
       <use xlink:href="#CMR17-30" transform="scale(0.996264)"/>
       <use xlink:href="#CMMI12-3a" transform="translate(45.690477 0)scale(0.996264)"/>
       <use xlink:href="#CMR17-30" transform="translate(72.787654 0)scale(0.996264)"/>
      </g>
     </g>
    </g>
    <g id="ytick_3">
     <g id="line2d_23">
      <g>
       <use xlink:href="#m74a78eae04" x="49.887862" y="41.393431" style="stroke: #000000; stroke-width: 0.8"/>
      </g>
     </g>
     <g id="line2d_24">
      <g>
       <use xlink:href="#m5c3db15da1" x="273.7" y="41.393431" style="stroke: #000000; stroke-width: 0.8"/>
      </g>
     </g>
     <g id="text_9">
      <!-- $\mathdefault{0.1}$ -->
      <g transform="translate(31.620833 44.274982)scale(0.0833 -0.0833)">
       <use xlink:href="#CMR17-30" transform="scale(0.996264)"/>
       <use xlink:href="#CMMI12-3a" transform="translate(45.690477 0)scale(0.996264)"/>
       <use xlink:href="#CMR17-31" transform="translate(72.787654 0)scale(0.996264)"/>
      </g>
     </g>
    </g>
    <g id="ytick_4">
     <g id="line2d_25">
      <defs>
       <path id="mf51b284647" d="M 0 0 
L -2 0 
" style="stroke: #000000; stroke-width: 0.6"/>
      </defs>
      <g>
       <use xlink:href="#mf51b284647" x="49.887862" y="176.860589" style="stroke: #000000; stroke-width: 0.6"/>
      </g>
     </g>
     <g id="line2d_26">
      <defs>
       <path id="mb1c46817d9" d="M 0 0 
L 2 0 
" style="stroke: #000000; stroke-width: 0.6"/>
      </defs>
      <g>
       <use xlink:href="#mb1c46817d9" x="273.7" y="176.860589" style="stroke: #000000; stroke-width: 0.6"/>
      </g>
     </g>
    </g>
    <g id="ytick_5">
     <g id="line2d_27">
      <g>
       <use xlink:href="#mf51b284647" x="49.887862" y="122.673726" style="stroke: #000000; stroke-width: 0.6"/>
      </g>
     </g>
     <g id="line2d_28">
      <g>
       <use xlink:href="#mb1c46817d9" x="273.7" y="122.673726" style="stroke: #000000; stroke-width: 0.6"/>
      </g>
     </g>
    </g>
    <g id="ytick_6">
     <g id="line2d_29">
      <g>
       <use xlink:href="#mf51b284647" x="49.887862" y="68.486863" style="stroke: #000000; stroke-width: 0.6"/>
      </g>
     </g>
     <g id="line2d_30">
      <g>
       <use xlink:href="#mb1c46817d9" x="273.7" y="68.486863" style="stroke: #000000; stroke-width: 0.6"/>
      </g>
     </g>
    </g>
    <g id="ytick_7">
     <g id="line2d_31">
      <g>
       <use xlink:href="#mf51b284647" x="49.887862" y="14.3" style="stroke: #000000; stroke-width: 0.6"/>
      </g>
     </g>
     <g id="line2d_32">
      <g>
       <use xlink:href="#mb1c46817d9" x="273.7" y="14.3" style="stroke: #000000; stroke-width: 0.6"/>
      </g>
     </g>
    </g>
    <g id="text_10">
     <!-- $J(k)$ -->
     <g transform="translate(18.27198 105.446091)rotate(-90)scale(0.1 -0.1)">
      <defs>
       <path id="CMMI12-4a" d="M 3418 3911 
C 3469 4102 3482 4166 3795 4166 
C 3898 4166 3962 4166 3962 4281 
C 3962 4352 3904 4352 3878 4352 
C 3770 4352 3648 4339 3533 4339 
L 3181 4339 
C 2912 4339 2630 4352 2362 4352 
C 2304 4352 2227 4352 2227 4236 
C 2227 4172 2278 4172 2278 4166 
L 2438 4166 
C 2950 4166 2950 4115 2950 4019 
C 2950 4013 2950 3968 2925 3866 
L 2189 953 
C 2022 304 1594 0 1286 0 
C 1069 0 762 99 685 428 
C 710 422 742 415 768 415 
C 979 415 1146 601 1146 787 
C 1146 889 1082 1024 890 1024 
C 774 1024 506 959 506 543 
C 506 149 838 -128 1299 -128 
C 1882 -128 2509 304 2662 908 
L 3418 3911 
z
" transform="scale(0.015625)"/>
       <path id="CMR17-28" d="M 1958 -1562 
C 1958 -1556 1958 -1543 1939 -1524 
C 1645 -1223 858 -403 858 1596 
C 858 3595 1632 4408 1946 4729 
C 1946 4735 1958 4748 1958 4767 
C 1958 4787 1939 4800 1914 4800 
C 1843 4800 1299 4325 986 3620 
C 666 2909 576 2218 576 1603 
C 576 1141 621 360 1005 -467 
C 1312 -1133 1837 -1600 1914 -1600 
C 1946 -1600 1958 -1588 1958 -1562 
z
" transform="scale(0.015625)"/>
       <path id="CMMI12-6b" d="M 1798 4255 
C 1805 4281 1818 4319 1818 4351 
C 1818 4416 1754 4416 1741 4416 
C 1734 4416 1504 4396 1389 4383 
C 1280 4377 1184 4364 1069 4358 
C 915 4345 870 4339 870 4223 
C 870 4159 934 4159 998 4159 
C 1325 4159 1325 4103 1325 4040 
C 1325 4014 1325 4002 1293 3888 
L 378 250 
C 352 153 352 141 352 102 
C 352 -39 461 -64 525 -64 
C 704 -64 742 76 794 275 
L 1094 1476 
C 1555 1425 1830 1232 1830 924 
C 1830 885 1830 860 1811 763 
C 1786 667 1786 590 1786 558 
C 1786 185 2029 -64 2355 -64 
C 2650 -64 2803 205 2854 295 
C 2989 532 3072 892 3072 917 
C 3072 949 3046 975 3008 975 
C 2950 975 2944 949 2918 847 
C 2829 513 2694 64 2368 64 
C 2240 64 2157 128 2157 372 
C 2157 494 2182 635 2208 731 
C 2234 847 2234 853 2234 930 
C 2234 1309 1894 1521 1306 1598 
C 1536 1739 1766 1989 1856 2086 
C 2221 2495 2470 2687 2765 2687 
C 2912 2687 2950 2655 2995 2624 
C 2758 2598 2669 2431 2669 2303 
C 2669 2150 2790 2099 2880 2099 
C 3053 2099 3206 2246 3206 2451 
C 3206 2634 3059 2816 2771 2816 
C 2419 2816 2131 2579 1677 2067 
C 1613 1989 1376 1746 1139 1656 
L 1798 4255 
z
" transform="scale(0.015625)"/>
       <path id="CMR17-29" d="M 1683 1596 
C 1683 2057 1638 2839 1254 3665 
C 947 4332 422 4800 346 4800 
C 326 4800 301 4793 301 4761 
C 301 4748 307 4742 314 4729 
C 621 4408 1402 3595 1402 1603 
C 1402 -396 627 -1210 314 -1530 
C 307 -1543 301 -1549 301 -1562 
C 301 -1594 326 -1600 346 -1600 
C 416 -1600 960 -1127 1274 -422 
C 1594 289 1683 981 1683 1596 
z
" transform="scale(0.015625)"/>
      </defs>
      <use xlink:href="#CMMI12-4a" transform="scale(0.996264)"/>
      <use xlink:href="#CMR17-28" transform="translate(63.142671 0)scale(0.996264)"/>
      <use xlink:href="#CMMI12-6b" transform="translate(98.423438 0)scale(0.996264)"/>
      <use xlink:href="#CMR17-29" transform="translate(152.502639 0)scale(0.996264)"/>
     </g>
    </g>
   </g>
   <g id="line2d_33">
    <path d="M 49.887862 95.235265 
L 50.824315 94.890253 
L 70.489816 80.522062 
L 81.727246 72.572789 
L 91.09177 66.203931 
L 99.519842 60.733363 
L 107.011462 56.122651 
L 114.503082 51.788168 
L 121.058249 48.252016 
L 127.613416 44.982433 
L 133.232131 42.412061 
L 138.850846 40.073738 
L 144.469561 37.984566 
L 150.088275 36.161905 
L 154.770538 34.859312 
L 159.4528 33.76437 
L 160.389252 33.571218 
L 161.325705 64.528564 
L 162.262157 126.632024 
L 163.19861 157.58937 
L 167.880872 156.53721 
L 172.563134 155.275316 
L 177.245397 153.814054 
L 182.864111 151.811777 
L 188.482826 149.554591 
L 194.101541 147.059684 
L 199.720256 144.34399 
L 206.275423 140.918883 
L 212.83059 137.242073 
L 220.32221 132.764754 
L 227.813829 128.030022 
L 236.241902 122.442085 
L 245.606426 115.969944 
L 256.843856 107.933932 
L 272.763548 96.270335 
L 273.7 95.925323 
L 273.7 95.925323 
" clip-path="url(#pa39293196f)" style="fill: none; stroke: #00bfbf; stroke-linecap: square"/>
   </g>
   <g id="line2d_34">
    <path d="M 49.887862 95.23526 
L 50.824315 94.890244 
L 70.489816 80.521919 
L 81.727246 72.572711 
L 91.09177 66.204049 
L 99.519842 60.733802 
L 107.011462 56.123518 
L 114.503082 51.789618 
L 121.058249 48.254125 
L 127.613416 44.985358 
L 133.232131 42.415828 
L 138.850846 40.078506 
L 144.469561 37.990556 
L 150.088275 36.169673 
L 154.770538 34.874312 
L 155.70699 34.65451 
L 156.643442 44.292405 
L 157.579895 75.138341 
L 158.516347 96.191573 
L 161.325705 95.674814 
L 165.071515 94.969015 
L 166.007967 116.022248 
L 166.94442 146.868183 
L 167.880872 156.506079 
L 171.626682 155.535116 
L 176.308944 154.115011 
L 181.927659 152.158316 
L 187.546374 149.943513 
L 193.165088 147.487961 
L 198.783803 144.808672 
L 205.33897 141.42239 
L 211.894138 137.780553 
L 219.385757 133.338576 
L 226.877377 128.634349 
L 235.305449 123.075055 
L 244.669974 116.627824 
L 255.907403 108.612266 
L 272.763548 96.270345 
L 273.7 95.925328 
L 273.7 95.925328 
" clip-path="url(#pa39293196f)" style="fill: none; stroke: #bf00bf; stroke-width: 0.1; stroke-linecap: square"/>
   </g>
   <g id="line2d_35">
    <path d="M 49.887862 95.235248 
L 50.824315 94.89022 
L 70.489816 80.521585 
L 81.727246 72.572626 
L 91.09177 66.204592 
L 99.519842 60.735343 
L 107.011462 56.126368 
L 114.503082 51.794248 
L 121.058249 48.260756 
L 127.613416 44.994468 
L 133.232131 42.427515 
L 138.850846 40.093332 
L 144.469561 38.009756 
L 149.151823 36.484252 
L 151.024728 35.972211 
L 151.96118 40.096469 
L 152.897633 70.433926 
L 153.834085 96.84863 
L 154.770538 97.073169 
L 159.4528 96.091456 
L 168.817324 94.08742 
L 169.753777 94.311959 
L 170.690229 120.726663 
L 171.626682 151.064119 
L 172.563134 155.188377 
L 175.372492 154.38885 
L 180.054754 152.821809 
L 185.673469 150.695129 
L 191.292184 148.320948 
L 196.910898 145.716865 
L 203.466065 142.410796 
L 210.021233 138.841265 
L 216.5764 135.03422 
L 224.06802 130.425246 
L 232.496092 124.955997 
L 241.860616 118.587962 
L 252.161593 111.311505 
L 266.20838 101.095065 
L 272.763548 96.270369 
L 273.7 95.92534 
L 273.7 95.92534 
" clip-path="url(#pa39293196f)" style="fill: none; stroke: #bf00bf; stroke-width: 0.1; stroke-linecap: square"/>
   </g>
   <g id="line2d_36">
    <path d="M 49.887862 95.235236 
L 50.824315 94.890194 
L 70.489816 80.521352 
L 81.727246 72.572978 
L 91.09177 66.206124 
L 99.519842 60.738654 
L 107.011462 56.13196 
L 114.503082 51.802898 
L 121.058249 48.272823 
L 127.613416 45.010774 
L 133.232131 42.448307 
L 138.850846 40.120145 
L 144.469561 38.054761 
L 146.342465 37.481827 
L 147.278918 38.25549 
L 149.151823 95.314592 
L 150.088275 98.196244 
L 152.897633 97.638516 
L 173.499587 92.964344 
L 174.436039 95.845997 
L 176.308944 152.905098 
L 177.245397 153.678761 
L 180.054754 152.783501 
L 184.737016 151.040444 
L 190.355731 148.712282 
L 195.974446 146.149814 
L 202.529613 142.887765 
L 209.08478 139.357691 
L 215.639947 135.585724 
L 223.131567 131.01166 
L 231.559639 125.575307 
L 240.924164 119.236185 
L 251.225141 111.982592 
L 265.271928 101.78285 
L 272.763548 96.270394 
L 273.7 95.925353 
L 273.7 95.925353 
" clip-path="url(#pa39293196f)" style="fill: none; stroke: #bf00bf; stroke-width: 0.1; stroke-linecap: square"/>
   </g>
   <g id="line2d_37">
    <path d="M 49.887862 95.235233 
L 50.824315 94.89019 
L 70.489816 80.521709 
L 81.727246 72.574512 
L 91.09177 66.209597 
L 99.519842 60.74486 
L 107.011462 56.14156 
L 114.503082 51.816969 
L 121.058249 48.291844 
L 127.613416 45.035951 
L 133.232131 42.480335 
L 138.850846 40.166459 
L 141.660203 39.160571 
L 142.596656 39.217596 
L 143.533108 61.099961 
L 144.469561 91.10486 
L 145.406013 99.403168 
L 147.278918 99.094423 
L 155.70699 97.084607 
L 177.245397 91.870718 
L 178.181849 91.757421 
L 179.118302 100.055729 
L 180.054754 130.060628 
L 180.991206 151.942993 
L 181.927659 152.000017 
L 184.737016 150.994129 
L 190.355731 148.680253 
L 195.974446 146.124638 
L 202.529613 142.868745 
L 209.08478 139.343619 
L 215.639947 135.575627 
L 223.131567 131.005083 
L 231.559639 125.571581 
L 240.924164 119.234502 
L 251.225141 111.982108 
L 264.335475 102.469822 
L 272.763548 96.270399 
L 273.7 95.925355 
L 273.7 95.925355 
" clip-path="url(#pa39293196f)" style="fill: none; stroke: #bf00bf; stroke-width: 0.1; stroke-linecap: square"/>
   </g>
   <g id="line2d_38">
    <path d="M 49.887862 95.235257 
L 50.824315 94.890238 
L 70.489816 80.523349 
L 81.727246 72.578286 
L 91.09177 66.216358 
L 99.519842 60.755556 
L 107.011462 56.156966 
L 114.503082 51.838437 
L 121.058249 48.319924 
L 127.613416 45.072286 
L 133.232131 42.527588 
L 136.977941 41.000479 
L 137.914393 40.785901 
L 138.850846 56.493724 
L 139.787298 86.464591 
L 140.723751 100.694324 
L 141.660203 100.61438 
L 146.342465 99.531588 
L 158.516347 96.435519 
L 179.118302 91.17694 
L 181.927659 90.546208 
L 182.864111 90.466265 
L 183.800564 104.695998 
L 184.737016 134.666864 
L 185.673469 150.374687 
L 186.609921 150.160109 
L 190.355731 148.633001 
L 195.974446 146.088303 
L 201.593161 143.321838 
L 208.148328 139.840354 
L 214.703495 136.111011 
L 222.195115 131.578844 
L 229.686734 126.795221 
L 238.114807 121.159911 
L 248.415784 113.981795 
L 260.589666 105.209165 
L 272.763548 96.27035 
L 273.7 95.925331 
L 273.7 95.925331 
" clip-path="url(#pa39293196f)" style="fill: none; stroke: #bf00bf; stroke-width: 0.1; stroke-linecap: square"/>
   </g>
   <g id="line2d_39">
    <path d="M 49.887862 95.235329 
L 50.824315 94.890381 
L 70.489816 80.527181 
L 81.727246 72.585692 
L 91.09177 66.228184 
L 99.519842 60.772846 
L 107.011462 56.180549 
L 113.566629 52.391998 
L 120.121797 48.845163 
L 126.676964 45.567044 
L 132.295679 43.005346 
L 133.232131 42.638085 
L 134.168583 52.076603 
L 135.105036 81.889738 
L 136.041488 102.091676 
L 137.914393 101.784885 
L 145.406013 99.958211 
L 157.579895 96.730308 
L 179.118302 90.964868 
L 186.609921 89.171291 
L 187.546374 89.068912 
L 188.482826 109.27085 
L 189.419279 139.083985 
L 190.355731 148.522504 
L 193.165088 147.333138 
L 198.783803 144.686037 
L 205.33897 141.328254 
L 211.894138 137.709661 
L 219.385757 133.288863 
L 226.877377 128.600854 
L 235.305449 123.054807 
L 244.669974 116.617275 
L 255.907403 108.608215 
L 272.763548 96.270207 
L 273.7 95.92526 
L 273.7 95.92526 
" clip-path="url(#pa39293196f)" style="fill: none; stroke: #bf00bf; stroke-width: 0.1; stroke-linecap: square"/>
   </g>
   <g id="line2d_40">
    <path d="M 49.887862 95.235474 
L 50.824315 94.890671 
L 70.489816 80.534354 
L 81.727246 72.598494 
L 91.09177 66.247346 
L 99.519842 60.799446 
L 107.011462 56.215416 
L 113.566629 52.435562 
L 120.121797 48.898881 
L 126.676964 45.631946 
L 128.549869 44.75186 
L 129.486321 48.199769 
L 130.422774 77.7634 
L 131.359226 103.560423 
L 138.850846 101.816148 
L 148.21537 99.381374 
L 162.262157 95.447183 
L 178.181849 91.025512 
L 187.546374 88.665099 
L 192.228636 87.600166 
L 193.165088 113.397189 
L 194.101541 142.96082 
L 195.037993 146.408729 
L 200.656708 143.696417 
L 207.211875 140.272064 
L 213.767043 136.593198 
L 221.258662 132.110912 
L 228.750282 127.369327 
L 237.178354 121.77259 
L 246.542879 115.290848 
L 258.716761 106.565994 
L 272.763548 96.269917 
L 273.7 95.925115 
L 273.7 95.925115 
" clip-path="url(#pa39293196f)" style="fill: none; stroke: #bf00bf; stroke-width: 0.1; stroke-linecap: square"/>
   </g>
   <g id="line2d_41">
    <path d="M 49.887862 95.235725 
L 50.824315 94.891173 
L 70.489816 80.5463 
L 81.727246 72.618917 
L 91.09177 66.276758 
L 99.519842 60.838972 
L 107.011462 56.266017 
L 113.566629 52.498167 
L 120.121797 48.980188 
L 123.867606 47.161748 
L 124.804059 48.084261 
L 126.676964 102.407128 
L 127.613416 104.555656 
L 130.422774 104.03348 
L 136.977941 102.500791 
L 145.406013 100.291205 
L 156.643442 97.091408 
L 180.054754 90.360156 
L 188.482826 88.201877 
L 195.037993 86.744315 
L 195.974446 86.604933 
L 196.910898 88.753461 
L 198.783803 143.076327 
L 199.720256 143.998841 
L 202.529613 142.658916 
L 208.148328 139.69476 
L 214.703495 135.994654 
L 222.195115 131.489518 
L 229.686734 126.727759 
L 238.114807 121.112014 
L 247.479331 114.614181 
L 259.653213 105.877077 
L 272.763548 96.269415 
L 273.7 95.924864 
L 273.7 95.924864 
" clip-path="url(#pa39293196f)" style="fill: none; stroke: #bf00bf; stroke-width: 0.1; stroke-linecap: square"/>
   </g>
   <g id="line2d_42">
    <path d="M 49.887862 95.236122 
L 50.824315 94.891968 
L 70.489816 80.564823 
L 81.727246 72.649837 
L 91.09177 66.320383 
L 99.519842 60.896899 
L 107.011462 56.341074 
L 113.566629 52.602328 
L 117.312439 50.634039 
L 118.248892 50.211862 
L 119.185344 49.956536 
L 120.121797 51.748644 
L 121.058249 73.661986 
L 121.994701 99.390965 
L 122.931154 105.270255 
L 123.867606 105.46139 
L 125.740511 105.229838 
L 130.422774 104.272586 
L 136.977941 102.696763 
L 145.406013 100.425481 
L 156.643442 97.134592 
L 179.118302 90.472138 
L 187.546374 88.226824 
L 194.101541 86.681213 
L 198.783803 85.784116 
L 199.720256 85.699199 
L 200.656708 85.890333 
L 201.593161 91.769624 
L 202.529613 117.498603 
L 203.466065 139.411945 
L 204.402518 141.204053 
L 205.33897 140.948727 
L 208.148328 139.569398 
L 213.767043 136.453647 
L 220.32221 132.575694 
L 227.813829 127.888996 
L 236.241902 122.342816 
L 245.606426 115.90566 
L 256.843856 107.900317 
L 272.763548 96.268621 
L 273.7 95.924467 
L 273.7 95.924467 
" clip-path="url(#pa39293196f)" style="fill: none; stroke: #bf00bf; stroke-width: 0.1; stroke-linecap: square"/>
   </g>
   <g id="line2d_43">
    <path d="M 49.887862 95.236717 
L 50.824315 94.893158 
L 70.489816 80.592292 
L 81.727246 72.695261 
L 91.09177 66.384437 
L 99.519842 60.98443 
L 106.07501 57.018362 
L 110.757272 54.388223 
L 112.630177 53.49026 
L 113.566629 53.192723 
L 114.503082 53.346468 
L 115.439534 56.830634 
L 116.375987 75.639049 
L 117.312439 97.851198 
L 118.248892 105.233079 
L 119.185344 106.118351 
L 120.121797 106.256177 
L 121.994701 106.113298 
L 125.740511 105.470977 
L 131.359226 104.25165 
L 137.914393 102.612318 
L 146.342465 100.265094 
L 157.579895 96.882169 
L 179.118302 90.35543 
L 187.546374 88.060384 
L 194.101541 86.479841 
L 199.720256 85.340571 
L 202.529613 84.942814 
L 203.466065 84.904412 
L 204.402518 85.042238 
L 205.33897 85.927509 
L 206.275423 93.30939 
L 207.211875 115.52154 
L 208.148328 134.329954 
L 209.08478 137.814121 
L 210.021233 137.967865 
L 210.957685 137.670328 
L 212.83059 136.772365 
L 217.512852 134.142227 
L 224.06802 130.176158 
L 231.559639 125.390479 
L 239.987711 119.749972 
L 250.288688 112.569254 
L 263.399023 103.122781 
L 272.763548 96.26743 
L 273.7 95.923871 
L 273.7 95.923871 
" clip-path="url(#pa39293196f)" style="fill: none; stroke: #bf00bf; stroke-width: 0.1; stroke-linecap: square"/>
   </g>
   <g id="line2d_44">
    <path d="M 49.887862 95.237581 
L 50.824315 94.894885 
L 70.489816 80.632122 
L 81.727246 72.761686 
L 91.09177 66.481696 
L 98.58339 61.713714 
L 104.202105 58.392161 
L 106.07501 57.417846 
L 107.011462 57.008447 
L 107.947915 56.723797 
L 108.884367 56.753324 
L 109.820819 57.855451 
L 110.757272 63.944452 
L 112.630177 98.067164 
L 113.566629 104.765636 
L 114.503082 106.329799 
L 115.439534 106.784476 
L 116.375987 106.915217 
L 118.248892 106.854766 
L 121.058249 106.494921 
L 125.740511 105.642474 
L 131.359226 104.397756 
L 137.914393 102.732063 
L 146.342465 100.345853 
L 157.579895 96.904778 
L 179.118302 90.265558 
L 187.546374 87.932768 
L 194.101541 86.326456 
L 199.720256 85.151897 
L 204.402518 84.404378 
L 206.275423 84.243798 
L 207.211875 84.245372 
L 208.148328 84.376112 
L 209.08478 84.83079 
L 210.021233 86.394952 
L 210.957685 93.093425 
L 212.83059 127.216136 
L 213.767043 133.305137 
L 214.703495 134.407265 
L 215.639947 134.436791 
L 216.5764 134.152141 
L 218.449305 133.272668 
L 222.195115 131.150041 
L 228.750282 127.097086 
L 236.241902 122.203546 
L 245.606426 115.809794 
L 256.843856 107.846128 
L 272.763548 96.265703 
L 273.7 95.923008 
L 273.7 95.923008 
" clip-path="url(#pa39293196f)" style="fill: none; stroke: #bf00bf; stroke-width: 0.1; stroke-linecap: square"/>
   </g>
   <g id="line2d_45">
    <path d="M 49.887862 95.23882 
L 50.824315 94.897365 
L 70.489816 80.690097 
L 80.790793 73.501849 
L 89.218865 67.862443 
L 95.774033 63.728088 
L 99.519842 61.615522 
L 101.392747 60.803341 
L 102.3292 60.582606 
L 103.265652 60.672317 
L 104.202105 61.540063 
L 105.138557 64.710194 
L 106.07501 73.756603 
L 107.011462 88.139146 
L 107.947915 99.574842 
L 108.884367 104.490888 
L 109.820819 106.258635 
L 110.757272 106.972983 
L 111.693724 107.286324 
L 113.566629 107.451833 
L 116.375987 107.28619 
L 120.121797 106.787297 
L 124.804059 105.943993 
L 130.422774 104.71774 
L 136.977941 103.064616 
L 145.406013 100.679278 
L 155.70699 97.512478 
L 180.054754 89.930951 
L 188.482826 87.602693 
L 195.037993 86.012028 
L 200.656708 84.856556 
L 205.33897 84.098014 
L 209.08478 83.730791 
L 210.957685 83.743471 
L 211.894138 83.874265 
L 212.83059 84.187605 
L 213.767043 84.901953 
L 214.703495 86.669701 
L 215.639947 91.585746 
L 216.5764 103.021443 
L 217.512852 117.403985 
L 218.449305 126.450395 
L 219.385757 129.620525 
L 220.32221 130.488271 
L 221.258662 130.577983 
L 222.195115 130.357248 
L 224.06802 129.545066 
L 226.877377 127.989694 
L 231.559639 125.107627 
L 239.051259 120.198226 
L 248.415784 113.770178 
L 260.589666 105.106934 
L 272.763548 96.263224 
L 273.7 95.921768 
L 273.7 95.921768 
" clip-path="url(#pa39293196f)" style="fill: none; stroke: #bf00bf; stroke-width: 0.1; stroke-linecap: square"/>
   </g>
   <g id="line2d_46">
    <path d="M 49.887862 95.240635 
L 50.824315 94.900995 
L 69.553364 81.439085 
L 79.854341 74.298341 
L 87.34596 69.36757 
L 91.09177 67.091253 
L 93.901128 65.624342 
L 95.774033 64.981202 
L 96.710485 64.917001 
L 97.646938 65.236483 
L 98.58339 66.36038 
L 99.519842 69.262446 
L 100.456295 75.5871 
L 102.3292 95.275968 
L 103.265652 101.525924 
L 104.202105 104.636178 
L 105.138557 106.151178 
L 106.07501 106.93754 
L 107.011462 107.369346 
L 108.884367 107.742738 
L 110.757272 107.817417 
L 113.566629 107.683765 
L 117.312439 107.270947 
L 121.994701 106.528867 
L 127.613416 105.402848 
L 134.168583 103.839617 
L 141.660203 101.801984 
L 151.024728 98.994424 
L 169.753777 93.045294 
L 180.991206 89.628316 
L 188.482826 87.56257 
L 195.037993 85.966087 
L 200.656708 84.803342 
L 205.33897 84.020893 
L 210.021233 83.476824 
L 212.83059 83.343171 
L 214.703495 83.41785 
L 216.5764 83.791242 
L 217.512852 84.223049 
L 218.449305 85.009411 
L 219.385757 86.52441 
L 220.32221 89.634665 
L 221.258662 95.884621 
L 223.131567 115.573489 
L 224.06802 121.898142 
L 225.004472 124.800208 
L 225.940925 125.924106 
L 226.877377 126.243587 
L 227.813829 126.179386 
L 229.686734 125.536246 
L 232.496092 124.069335 
L 236.241902 121.793018 
L 242.797069 117.494594 
L 252.161593 111.040436 
L 264.335475 102.360169 
L 272.763548 96.259594 
L 273.7 95.919954 
L 273.7 95.919954 
" clip-path="url(#pa39293196f)" style="fill: none; stroke: #bf00bf; stroke-width: 0.1; stroke-linecap: square"/>
   </g>
   <g id="line2d_47">
    <path d="M 49.887862 95.243496 
L 50.824315 94.90672 
L 68.616911 82.236598 
L 77.044983 76.477022 
L 82.663698 72.889165 
L 85.473056 71.295948 
L 87.34596 70.418205 
L 88.282413 70.086347 
L 89.218865 69.875806 
L 90.155318 69.85834 
L 91.09177 70.16285 
L 92.028223 71.026886 
L 92.964675 72.877034 
L 93.901128 76.35323 
L 94.83758 81.918332 
L 96.710485 95.463722 
L 97.646938 100.23786 
L 98.58339 103.223027 
L 99.519842 105.012094 
L 100.456295 106.103518 
L 101.392747 106.793075 
L 102.3292 107.242832 
L 104.202105 107.742485 
L 106.07501 107.955728 
L 108.884367 108.005253 
L 112.630177 107.794293 
L 117.312439 107.259218 
L 121.994701 106.508495 
L 127.613416 105.384619 
L 134.168583 103.826605 
L 141.660203 101.794117 
L 151.024728 98.990988 
L 168.817324 93.342947 
L 180.054754 89.907681 
L 188.482826 87.574861 
L 195.037993 85.983607 
L 200.656708 84.823813 
L 206.275423 83.90137 
L 210.957685 83.366296 
L 214.703495 83.155336 
L 217.512852 83.204861 
L 219.385757 83.418103 
L 221.258662 83.917756 
L 222.195115 84.367514 
L 223.131567 85.057071 
L 224.06802 86.148494 
L 225.004472 87.937562 
L 225.940925 90.922729 
L 226.877377 95.696866 
L 229.686734 114.807359 
L 230.623187 118.283555 
L 231.559639 120.133703 
L 232.496092 120.997738 
L 233.432544 121.302248 
L 234.368997 121.284782 
L 235.305449 121.074241 
L 237.178354 120.330802 
L 239.987711 118.826328 
L 243.733521 116.519177 
L 250.288688 112.158824 
L 259.653213 105.63151 
L 272.763548 96.253869 
L 273.7 95.917093 
L 273.7 95.917093 
" clip-path="url(#pa39293196f)" style="fill: none; stroke: #bf00bf; stroke-width: 0.1; stroke-linecap: square"/>
   </g>
   <g id="line2d_48">
    <path d="M 49.887862 95.248926 
L 50.824315 94.917592 
L 65.807554 84.442841 
L 72.362721 80.110753 
L 76.108531 77.859084 
L 78.917888 76.440141 
L 80.790793 75.776342 
L 81.727246 75.600694 
L 82.663698 75.591213 
L 83.600151 75.825996 
L 84.536603 76.424098 
L 85.473056 77.558959 
L 86.409508 79.45228 
L 87.34596 82.301078 
L 88.282413 86.097316 
L 90.155318 94.693287 
L 91.09177 98.267164 
L 92.028223 100.982938 
L 92.964675 102.938186 
L 93.901128 104.323884 
L 94.83758 105.31226 
L 95.774033 106.028632 
L 96.710485 106.557341 
L 98.58339 107.254894 
L 100.456295 107.660491 
L 103.265652 107.961791 
L 106.07501 108.039632 
L 109.820819 107.918812 
L 114.503082 107.508857 
L 119.185344 106.875851 
L 124.804059 105.877344 
L 130.422774 104.663322 
L 136.977941 103.026661 
L 144.469561 100.932983 
L 154.770538 97.799478 
L 180.991206 89.685807 
L 188.482826 87.645133 
L 195.037993 86.071182 
L 200.656708 84.924338 
L 206.275423 84.007713 
L 210.957685 83.458037 
L 215.639947 83.154391 
L 219.385757 83.152932 
L 222.195115 83.367187 
L 224.06802 83.675727 
L 225.940925 84.206701 
L 226.877377 84.603248 
L 227.813829 85.131957 
L 228.750282 85.848329 
L 229.686734 86.836704 
L 230.623187 88.222403 
L 231.559639 90.177651 
L 232.496092 92.893425 
L 233.432544 96.467302 
L 236.241902 108.859511 
L 237.178354 111.708309 
L 238.114807 113.601629 
L 239.051259 114.736491 
L 239.987711 115.334593 
L 240.924164 115.569376 
L 241.860616 115.559895 
L 242.797069 115.384246 
L 244.669974 114.720447 
L 247.479331 113.301505 
L 251.225141 111.049836 
L 256.843856 107.353442 
L 266.20838 100.869998 
L 272.763548 96.242997 
L 273.7 95.911663 
L 273.7 95.911663 
" clip-path="url(#pa39293196f)" style="fill: none; stroke: #bf00bf; stroke-width: 0.1; stroke-linecap: square"/>
   </g>
   <g id="line2d_49">
    <path d="M 49.887862 95.264237 
L 50.824315 94.948285 
L 60.188839 88.732837 
L 64.871101 85.850048 
L 67.680459 84.315058 
L 69.553364 83.447062 
L 71.426269 82.78942 
L 73.299174 82.478523 
L 74.235626 82.522098 
L 75.172078 82.752533 
L 76.108531 83.223058 
L 77.044983 83.994207 
L 77.981436 85.124154 
L 78.917888 86.649011 
L 79.854341 88.555084 
L 84.536603 99.371004 
L 85.473056 100.918187 
L 86.409508 102.188456 
L 87.34596 103.221677 
L 88.282413 104.061222 
L 90.155318 105.30854 
L 92.028223 106.161318 
L 93.901128 106.759361 
L 96.710485 107.347949 
L 99.519842 107.690098 
L 103.265652 107.884937 
L 107.011462 107.857506 
L 111.693724 107.577661 
L 116.375987 107.071723 
L 121.994701 106.213813 
L 127.613416 105.12501 
L 134.168583 103.614426 
L 141.660203 101.638839 
L 151.024728 98.907841 
L 168.817324 93.397177 
L 180.054754 90.048573 
L 188.482826 87.78002 
L 195.037993 86.236709 
L 200.656708 85.113316 
L 206.275423 84.214002 
L 210.957685 83.667283 
L 215.639947 83.338872 
L 219.385757 83.263895 
L 223.131567 83.397253 
L 225.940925 83.67586 
L 228.750282 84.170691 
L 230.623187 84.674525 
L 232.496092 85.386817 
L 234.368997 86.414461 
L 235.305449 87.099367 
L 236.241902 87.938912 
L 237.178354 88.972133 
L 238.114807 90.242402 
L 239.051259 91.789584 
L 239.987711 93.63405 
L 241.860616 98.060026 
L 243.733521 102.605505 
L 244.669974 104.511578 
L 245.606426 106.036434 
L 246.542879 107.166382 
L 247.479331 107.937531 
L 248.415784 108.408055 
L 249.352236 108.638491 
L 250.288688 108.682065 
L 252.161593 108.371168 
L 254.034498 107.713527 
L 256.843856 106.358491 
L 260.589666 104.19184 
L 266.20838 100.598844 
L 272.763548 96.212303 
L 273.7 95.896351 
L 273.7 95.896351 
" clip-path="url(#pa39293196f)" style="fill: none; stroke: #bf00bf; stroke-width: 0.1; stroke-linecap: square"/>
   </g>
   <g id="line2d_50">
    <path d="M 49.887862 95.346275 
L 50.824315 95.112988 
L 55.506577 92.884327 
L 58.315934 91.768035 
L 60.188839 91.201545 
L 62.061744 90.847417 
L 63.934649 90.783022 
L 65.807554 91.094254 
L 66.744006 91.414785 
L 68.616911 92.408923 
L 70.489816 93.841124 
L 73.299174 96.503907 
L 76.108531 99.196362 
L 77.981436 100.76898 
L 79.854341 102.107058 
L 81.727246 103.220381 
L 83.600151 104.138824 
L 86.409508 105.221912 
L 89.218865 106.031189 
L 92.028223 106.630668 
L 95.774033 107.174538 
L 99.519842 107.482372 
L 103.265652 107.593087 
L 107.947915 107.493375 
L 112.630177 107.162935 
L 117.312439 106.63051 
L 122.931154 105.759395 
L 128.549869 104.670854 
L 135.105036 103.173053 
L 142.596656 101.225186 
L 151.96118 98.545187 
L 183.800564 89.179884 
L 191.292184 87.318708 
L 197.847351 85.920545 
L 203.466065 84.936156 
L 209.08478 84.187829 
L 213.767043 83.773437 
L 218.449305 83.57759 
L 223.131567 83.633237 
L 226.877377 83.888785 
L 230.623187 84.368936 
L 233.432544 84.908719 
L 236.241902 85.642193 
L 239.051259 86.62523 
L 240.924164 87.45873 
L 242.797069 88.470432 
L 244.669974 89.693105 
L 246.542879 91.149503 
L 249.352236 93.732313 
L 253.098046 97.319465 
L 254.970951 98.751665 
L 256.843856 99.745804 
L 258.716761 100.27413 
L 260.589666 100.386921 
L 262.46257 100.167153 
L 264.335475 99.698098 
L 267.144833 98.675716 
L 270.890643 96.970337 
L 272.763548 96.0476 
L 273.7 95.814313 
L 273.7 95.814313 
" clip-path="url(#pa39293196f)" style="fill: none; stroke: #bf00bf; stroke-width: 0.1; stroke-linecap: square"/>
   </g>
   <g id="line2d_51">
    <path d="M 49.887862 95.614358 
L 52.697219 95.800591 
L 56.443029 96.242184 
L 59.252387 96.767501 
L 62.061744 97.488248 
L 65.807554 98.715628 
L 80.790793 104.064643 
L 84.536603 105.042122 
L 88.282413 105.82189 
L 92.028223 106.409987 
L 96.710485 106.891051 
L 101.392747 107.110419 
L 106.07501 107.090171 
L 110.757272 106.851814 
L 115.439534 106.416239 
L 121.058249 105.661829 
L 126.676964 104.686871 
L 133.232131 103.314807 
L 140.723751 101.499405 
L 150.088275 98.965649 
L 165.071515 94.621291 
L 178.181849 90.898836 
L 186.609921 88.724742 
L 194.101541 87.033509 
L 200.656708 85.800898 
L 206.275423 84.969227 
L 211.894138 84.380771 
L 216.5764 84.101317 
L 221.258662 84.035748 
L 225.940925 84.205441 
L 230.623187 84.632384 
L 234.368997 85.174061 
L 238.114807 85.905112 
L 241.860616 86.833015 
L 245.606426 87.956789 
L 250.288688 89.602878 
L 260.589666 93.390797 
L 263.399023 94.174463 
L 266.20838 94.764455 
L 269.95419 95.271217 
L 273.7 95.54623 
L 273.7 95.54623 
" clip-path="url(#pa39293196f)" style="fill: none; stroke: #bf00bf; stroke-width: 0.1; stroke-linecap: square"/>
   </g>
   <g id="line2d_52">
    <path d="M 49.887862 95.702041 
L 50.824315 95.823909 
L 61.125292 98.614298 
L 77.981436 103.345499 
L 83.600151 104.589247 
L 88.282413 105.399775 
L 92.964675 105.98765 
L 97.646938 106.350029 
L 102.3292 106.492351 
L 107.011462 106.425299 
L 111.693724 106.162783 
L 117.312439 105.612104 
L 122.931154 104.83202 
L 129.486321 103.672159 
L 136.041488 102.28893 
L 144.469561 100.258077 
L 154.770538 97.522503 
L 180.991206 90.43108 
L 189.419279 88.456427 
L 195.974446 87.132162 
L 202.529613 86.044902 
L 208.148328 85.337964 
L 213.767043 84.870325 
L 218.449305 84.68418 
L 223.131567 84.699353 
L 227.813829 84.928655 
L 232.496092 85.380963 
L 237.178354 86.058834 
L 241.860616 86.954989 
L 247.479331 88.286621 
L 254.034498 90.095748 
L 269.95419 94.601103 
L 272.763548 95.33668 
L 273.7 95.458548 
L 273.7 95.458548 
" clip-path="url(#pa39293196f)" style="fill: none; stroke: #bf00bf; stroke-width: 0.1; stroke-linecap: square"/>
   </g>
   <g id="line2d_53">
    <path d="M 49.887862 95.710903 
L 50.824315 95.841508 
L 69.553364 100.952418 
L 76.108531 102.526421 
L 81.727246 103.673174 
L 87.34596 104.581927 
L 92.028223 105.135477 
L 96.710485 105.495237 
L 101.392747 105.660811 
L 106.07501 105.637378 
L 111.693724 105.372978 
L 117.312439 104.870951 
L 122.931154 104.155919 
L 129.486321 103.087938 
L 136.977941 101.612397 
L 145.406013 99.705151 
L 156.643442 96.90749 
L 179.118302 91.233284 
L 187.546374 89.350958 
L 195.037993 87.906184 
L 201.593161 86.871816 
L 207.211875 86.190479 
L 212.83059 85.726418 
L 218.449305 85.503799 
L 223.131567 85.517539 
L 227.813829 85.721691 
L 232.496092 86.120447 
L 237.178354 86.712102 
L 242.797069 87.663091 
L 248.415784 88.845307 
L 254.970951 90.448605 
L 265.271928 93.233074 
L 272.763548 95.319081 
L 273.7 95.449685 
L 273.7 95.449685 
" clip-path="url(#pa39293196f)" style="fill: none; stroke: #ff0000; stroke-width: 0.1; stroke-linecap: square"/>
   </g>
   <g id="line2d_54">
    <path d="M 49.887862 95.702411 
L 50.824315 95.824497 
L 65.807554 99.619731 
L 73.299174 101.305978 
L 79.854341 102.562463 
L 85.473056 103.428724 
L 91.09177 104.071378 
L 96.710485 104.475054 
L 102.3292 104.635699 
L 107.947915 104.55879 
L 113.566629 104.257096 
L 119.185344 103.748537 
L 125.740511 102.922299 
L 132.295679 101.880727 
L 139.787298 100.476685 
L 149.151823 98.487519 
L 164.135062 95.033627 
L 179.118302 91.652206 
L 187.546374 89.956768 
L 195.037993 88.660557 
L 201.593161 87.737343 
L 208.148328 87.051025 
L 213.767043 86.678185 
L 219.385757 86.524633 
L 225.004472 86.605078 
L 230.623187 86.927679 
L 236.241902 87.491797 
L 241.860616 88.285968 
L 247.479331 89.286912 
L 254.034498 90.6701 
L 262.46257 92.687721 
L 273.7 95.458177 
L 273.7 95.458177 
" clip-path="url(#pa39293196f)" style="fill: none; stroke: #ff0000; stroke-width: 0.1; stroke-linecap: square"/>
   </g>
   <g id="line2d_55">
    <path d="M 49.887862 95.686238 
L 51.760767 96.003861 
L 65.807554 99.065879 
L 74.235626 100.666812 
L 80.790793 101.703245 
L 87.34596 102.509407 
L 92.964675 102.993808 
L 98.58339 103.276328 
L 104.202105 103.354759 
L 109.820819 103.233969 
L 116.375987 102.855637 
L 122.931154 102.24476 
L 130.422774 101.299585 
L 138.850846 99.979585 
L 148.21537 98.279687 
L 163.19861 95.29577 
L 179.118302 92.177569 
L 188.482826 90.565069 
L 195.974446 89.478464 
L 203.466065 88.627335 
L 210.021233 88.112786 
L 216.5764 87.841867 
L 222.195115 87.819687 
L 227.813829 87.999967 
L 233.432544 88.384192 
L 239.051259 88.966212 
L 245.606426 89.875589 
L 253.098046 91.173295 
L 261.526118 92.877562 
L 273.7 95.47435 
L 273.7 95.47435 
" clip-path="url(#pa39293196f)" style="fill: none; stroke: #ff0000; stroke-width: 0.1; stroke-linecap: square"/>
   </g>
   <g id="line2d_56">
    <path d="M 49.887862 95.664417 
L 51.760767 95.916608 
L 66.744006 98.494427 
L 75.172078 99.737996 
L 82.663698 100.636084 
L 89.218865 101.224346 
L 95.774033 101.606238 
L 102.3292 101.771455 
L 108.884367 101.71991 
L 115.439534 101.460508 
L 122.931154 100.930433 
L 130.422774 100.182336 
L 138.850846 99.127604 
L 149.151823 97.615429 
L 168.817324 94.436161 
L 181.927659 92.42507 
L 191.292184 91.194975 
L 199.720256 90.312481 
L 207.211875 89.753242 
L 213.767043 89.465317 
L 220.32221 89.383344 
L 226.877377 89.517373 
L 233.432544 89.868697 
L 239.987711 90.428508 
L 247.479331 91.298496 
L 255.907403 92.518031 
L 266.20838 94.244412 
L 273.7 95.496172 
L 273.7 95.496172 
" clip-path="url(#pa39293196f)" style="fill: none; stroke: #ff0000; stroke-width: 0.1; stroke-linecap: square"/>
   </g>
   <g id="line2d_57">
    <path d="M 49.887862 95.637352 
L 51.760767 95.808411 
L 68.616911 97.759367 
L 78.917888 98.736403 
L 88.282413 99.389447 
L 96.710485 99.742952 
L 105.138557 99.854453 
L 113.566629 99.722415 
L 121.994701 99.361183 
L 131.359226 98.72415 
L 141.660203 97.794868 
L 155.70699 96.278952 
L 183.800564 93.182169 
L 194.101541 92.291314 
L 203.466065 91.700542 
L 211.894138 91.388297 
L 220.32221 91.309655 
L 228.750282 91.475673 
L 237.178354 91.880995 
L 245.606426 92.502912 
L 255.907403 93.500652 
L 269.95419 95.124682 
L 273.7 95.523236 
L 273.7 95.523236 
" clip-path="url(#pa39293196f)" style="fill: none; stroke: #ff0000; stroke-width: 0.1; stroke-linecap: square"/>
   </g>
   <g id="line2d_58">
    <path d="M 49.887862 95.605437 
L 54.570124 95.831098 
L 77.044983 96.918026 
L 91.09177 97.371686 
L 103.265652 97.54444 
L 115.439534 97.4842 
L 127.613416 97.19803 
L 141.660203 96.636584 
L 162.262157 95.554413 
L 186.609921 94.314042 
L 200.656708 93.827541 
L 212.83059 93.625366 
L 225.004472 93.655729 
L 237.178354 93.912897 
L 251.225141 94.441609 
L 270.890643 95.429578 
L 273.7 95.555152 
L 273.7 95.555152 
" clip-path="url(#pa39293196f)" style="fill: none; stroke: #ff0000; stroke-width: 0.1; stroke-linecap: square"/>
   </g>
   <g id="line2d_59">
    <path d="M 49.887862 95.570676 
L 62.061744 95.337194 
L 85.473056 95.005045 
L 106.07501 94.946565 
L 129.486321 95.11921 
L 166.94442 95.660904 
L 205.33897 96.15012 
L 227.813829 96.213266 
L 248.415784 96.040362 
L 273.7 95.589912 
L 273.7 95.589912 
" clip-path="url(#pa39293196f)" style="fill: none; stroke: #ff0000; stroke-width: 0.1; stroke-linecap: square"/>
   </g>
   <g id="line2d_60">
    <path d="M 49.887862 95.537813 
L 52.697219 95.325683 
L 71.426269 93.74309 
L 82.663698 93.008697 
L 92.964675 92.557028 
L 102.3292 92.363621 
L 111.693724 92.391214 
L 121.058249 92.637957 
L 131.359226 93.141896 
L 142.596656 93.920828 
L 157.579895 95.198641 
L 182.864111 97.383291 
L 194.101541 98.126863 
L 204.402518 98.588912 
L 213.767043 98.792705 
L 223.131567 98.775755 
L 232.496092 98.539272 
L 242.797069 98.045431 
L 254.034498 97.275218 
L 269.017738 96.003865 
L 273.7 95.622776 
L 273.7 95.622776 
" clip-path="url(#pa39293196f)" style="fill: none; stroke: #ff0000; stroke-width: 0.1; stroke-linecap: square"/>
   </g>
   <g id="line2d_61">
    <path d="M 49.887862 95.510461 
L 51.760767 95.301089 
L 68.616911 92.900889 
L 78.917888 91.669712 
L 87.34596 90.881612 
L 94.83758 90.386995 
L 102.3292 90.112608 
L 109.820819 90.07551 
L 117.312439 90.283132 
L 124.804059 90.731959 
L 132.295679 91.40664 
L 140.723751 92.401044 
L 150.088275 93.731329 
L 166.94442 96.407268 
L 180.054754 98.381561 
L 189.419279 99.552941 
L 196.910898 100.280267 
L 204.402518 100.78747 
L 211.894138 101.056174 
L 219.385757 101.079967 
L 226.877377 100.863654 
L 234.368997 100.422026 
L 242.797069 99.685137 
L 252.161593 98.619862 
L 263.399023 97.097514 
L 273.7 95.650128 
L 273.7 95.650128 
" clip-path="url(#pa39293196f)" style="fill: none; stroke: #ff0000; stroke-width: 0.1; stroke-linecap: square"/>
   </g>
   <g id="line2d_62">
    <path d="M 49.887862 95.488315 
L 51.760767 95.212536 
L 66.744006 92.370599 
L 76.108531 90.809261 
L 83.600151 89.759583 
L 91.09177 88.937251 
L 97.646938 88.436401 
L 104.202105 88.163649 
L 110.757272 88.13608 
L 117.312439 88.363674 
L 123.867606 88.847799 
L 130.422774 89.579841 
L 136.977941 90.540206 
L 144.469561 91.877167 
L 153.834085 93.812583 
L 180.991206 99.63863 
L 188.482826 100.916478 
L 195.037993 101.81427 
L 201.593161 102.476984 
L 208.148328 102.888234 
L 214.703495 103.042381 
L 221.258662 102.943402 
L 227.813829 102.603462 
L 234.368997 102.041405 
L 241.860616 101.158177 
L 250.288688 99.908348 
L 259.653213 98.28079 
L 273.7 95.672273 
L 273.7 95.672273 
" clip-path="url(#pa39293196f)" style="fill: none; stroke: #ff0000; stroke-width: 0.1; stroke-linecap: square"/>
   </g>
   <g id="line2d_63">
    <path d="M 49.887862 95.470003 
L 51.760767 95.139308 
L 66.744006 91.724533 
L 75.172078 90.010484 
L 82.663698 88.697564 
L 89.218865 87.757389 
L 95.774033 87.048672 
L 101.392747 86.649395 
L 107.011462 86.460282 
L 112.630177 86.494625 
L 118.248892 86.761042 
L 123.867606 87.262358 
L 129.486321 87.994474 
L 135.105036 88.945391 
L 141.660203 90.303423 
L 149.151823 92.12375 
L 158.516347 94.660811 
L 175.372492 99.277199 
L 182.864111 101.066037 
L 189.419279 102.388114 
L 195.037993 103.303756 
L 200.656708 103.998015 
L 206.275423 104.460265 
L 211.894138 104.687637 
L 217.512852 104.683998 
L 223.131567 104.458825 
L 228.750282 104.026082 
L 235.305449 103.282276 
L 241.860616 102.311825 
L 249.352236 100.970702 
L 257.780308 99.233513 
L 269.95419 96.461323 
L 273.7 95.690585 
L 273.7 95.690585 
" clip-path="url(#pa39293196f)" style="fill: none; stroke: #ff0000; stroke-width: 0.1; stroke-linecap: square"/>
   </g>
   <g id="line2d_64">
    <path d="M 49.887862 95.454533 
L 50.824315 95.328803 
L 65.807554 91.409379 
L 74.235626 89.415703 
L 81.727246 87.866109 
L 88.282413 86.734376 
L 93.901128 85.963682 
L 99.519842 85.402861 
L 105.138557 85.07418 
L 110.757272 84.996755 
L 115.439534 85.134946 
L 120.121797 85.463406 
L 124.804059 85.984102 
L 129.486321 86.694838 
L 135.105036 87.788383 
L 140.723751 89.123124 
L 147.278918 90.939719 
L 154.770538 93.267869 
L 178.181849 100.764831 
L 184.737016 102.50734 
L 190.355731 103.764847 
L 195.974446 104.772517 
L 200.656708 105.407794 
L 205.33897 105.851611 
L 210.021233 106.103516 
L 214.703495 106.166957 
L 220.32221 106.003899 
L 225.940925 105.595536 
L 231.559639 104.962158 
L 238.114807 103.969733 
L 244.669974 102.742327 
L 252.161593 101.105619 
L 261.526118 98.80309 
L 273.7 95.706056 
L 273.7 95.706056 
" clip-path="url(#pa39293196f)" style="fill: none; stroke: #ff0000; stroke-width: 0.1; stroke-linecap: square"/>
   </g>
   <g id="line2d_65">
    <path d="M 49.887862 95.441301 
L 50.824315 95.302341 
L 65.807554 90.965949 
L 74.235626 88.75123 
L 81.727246 87.020532 
L 88.282413 85.747187 
L 93.901128 84.871463 
L 99.519842 84.224397 
L 105.138557 83.832161 
L 109.820819 83.716893 
L 114.503082 83.806127 
L 119.185344 84.108348 
L 123.867606 84.628414 
L 128.549869 85.366672 
L 133.232131 86.318055 
L 137.914393 87.471305 
L 143.533108 89.095822 
L 150.088275 91.265454 
L 158.516347 94.342617 
L 173.499587 99.895135 
L 180.054754 102.064766 
L 185.673469 103.689284 
L 190.355731 104.842534 
L 195.037993 105.793917 
L 199.720256 106.532174 
L 204.402518 107.052241 
L 209.08478 107.354461 
L 213.767043 107.443696 
L 218.449305 107.328428 
L 223.131567 107.019933 
L 228.750282 106.413583 
L 234.368997 105.574065 
L 240.924164 104.336956 
L 247.479331 102.866039 
L 254.970951 100.958622 
L 264.335475 98.337419 
L 273.7 95.719288 
L 273.7 95.719288 
" clip-path="url(#pa39293196f)" style="fill: none; stroke: #ff0000; stroke-width: 0.1; stroke-linecap: square"/>
   </g>
   <g id="line2d_66">
    <path d="M 49.887862 95.42995 
L 50.824315 95.279642 
L 65.807554 90.58514 
L 74.235626 88.179731 
L 80.790793 86.512238 
L 87.34596 85.077628 
L 92.964675 84.071362 
L 98.58339 83.304177 
L 103.265652 82.869128 
L 107.947915 82.637082 
L 112.630177 82.622514 
L 117.312439 82.837446 
L 121.994701 83.290526 
L 126.676964 83.985959 
L 131.359226 84.922367 
L 136.041488 86.091673 
L 140.723751 87.478161 
L 146.342465 89.394354 
L 152.897633 91.904314 
L 162.262157 95.776833 
L 172.563134 99.997727 
L 179.118302 102.432664 
L 184.737016 104.261741 
L 189.419279 105.56376 
L 194.101541 106.641347 
L 198.783803 107.481936 
L 203.466065 108.080254 
L 208.148328 108.437297 
L 212.83059 108.559179 
L 217.512852 108.456021 
L 222.195115 108.140927 
L 226.877377 107.62913 
L 232.496092 106.778849 
L 238.114807 105.699768 
L 244.669974 104.193488 
L 252.161593 102.207373 
L 260.589666 99.724815 
L 273.7 95.730638 
L 273.7 95.730638 
" clip-path="url(#pa39293196f)" style="fill: none; stroke: #ff0000; stroke-width: 0.1; stroke-linecap: square"/>
   </g>
   <g id="line2d_67">
    <path d="M 49.887862 95.420272 
L 50.824315 95.260286 
L 64.871101 90.560167 
L 73.299174 87.963466 
L 79.854341 86.14671 
L 86.409508 84.565276 
L 92.028223 83.437583 
L 97.646938 82.555744 
L 102.3292 82.032554 
L 107.011462 81.721346 
L 111.693724 81.63901 
L 116.375987 81.800254 
L 121.058249 82.216601 
L 125.740511 82.895189 
L 130.422774 83.837428 
L 135.105036 85.03761 
L 139.787298 86.481645 
L 144.469561 88.146144 
L 150.088275 90.387415 
L 157.579895 93.664466 
L 173.499587 100.773174 
L 179.118302 103.014445 
L 183.800564 104.678943 
L 188.482826 106.122978 
L 193.165088 107.323161 
L 197.847351 108.2654 
L 202.529613 108.943988 
L 207.211875 109.360334 
L 211.894138 109.521579 
L 216.5764 109.439243 
L 221.258662 109.128035 
L 225.940925 108.604845 
L 231.559639 107.723006 
L 237.178354 106.595313 
L 242.797069 105.255447 
L 249.352236 103.469055 
L 256.843856 101.197867 
L 267.144833 97.812127 
L 272.763548 95.900302 
L 273.7 95.740317 
L 273.7 95.740317 
" clip-path="url(#pa39293196f)" style="fill: none; stroke: #ff0000; stroke-width: 0.1; stroke-linecap: square"/>
   </g>
   <g id="line2d_68">
    <path d="M 49.887862 95.412155 
L 50.824315 95.244053 
L 64.871101 90.30318 
L 73.299174 87.568395 
L 79.854341 85.650438 
L 86.409508 83.975595 
L 92.028223 82.776045 
L 97.646938 81.832053 
L 102.3292 81.266195 
L 107.011462 80.922292 
L 111.693724 80.818978 
L 116.375987 80.972822 
L 121.058249 81.397239 
L 124.804059 81.937775 
L 128.549869 82.659185 
L 133.232131 83.81326 
L 137.914393 85.237876 
L 142.596656 86.913045 
L 147.278918 88.808045 
L 152.897633 91.313191 
L 161.325705 95.351925 
L 171.626682 100.279142 
L 177.245397 102.74729 
L 181.927659 104.601304 
L 186.609921 106.228472 
L 191.292184 107.600245 
L 195.974446 108.698708 
L 200.656708 109.515637 
L 205.33897 110.051085 
L 210.021233 110.311767 
L 214.703495 110.309477 
L 219.385757 110.059668 
L 224.06802 109.580261 
L 228.750282 108.890714 
L 234.368997 107.81448 
L 239.987711 106.500552 
L 246.542879 104.714701 
L 254.034498 102.408289 
L 262.46257 99.572019 
L 273.7 95.748434 
L 273.7 95.748434 
" clip-path="url(#pa39293196f)" style="fill: none; stroke: #ff0000; stroke-width: 0.1; stroke-linecap: square"/>
   </g>
   <g id="line2d_69">
    <path d="M 49.887862 95.405557 
L 50.824315 95.230858 
L 64.871101 90.094262 
L 73.299174 87.247148 
L 79.854341 85.246784 
L 85.473056 83.728439 
L 91.09177 82.429887 
L 96.710485 81.388394 
L 101.392747 80.743842 
L 106.07501 80.32507 
L 110.757272 80.152421 
L 115.439534 80.244481 
L 119.185344 80.519425 
L 122.931154 80.980117 
L 126.676964 81.630478 
L 130.422774 82.471585 
L 134.168583 83.501062 
L 138.850846 85.042628 
L 143.533108 86.845688 
L 148.21537 88.875921 
L 153.834085 91.546547 
L 163.19861 96.301657 
L 171.626682 100.527466 
L 177.245397 103.121329 
L 181.927659 105.065576 
L 186.609921 106.767486 
L 191.292184 108.197512 
L 195.037993 109.13334 
L 198.783803 109.87914 
L 202.529613 110.434341 
L 206.275423 110.801514 
L 210.021233 110.985782 
L 214.703495 110.969883 
L 219.385757 110.696435 
L 224.06802 110.184842 
L 228.750282 109.455906 
L 234.368997 108.324564 
L 239.987711 106.948631 
L 246.542879 105.08369 
L 254.034498 102.680334 
L 262.46257 99.72944 
L 273.7 95.755032 
L 273.7 95.755032 
" clip-path="url(#pa39293196f)" style="fill: none; stroke: #ff0000; stroke-width: 0.1; stroke-linecap: square"/>
   </g>
   <g id="line2d_70">
    <path d="M 49.887862 95.40049 
L 50.824315 95.220725 
L 64.871101 89.933869 
L 73.299174 87.000606 
L 79.854341 84.937099 
L 85.473056 83.368401 
L 91.09177 82.024016 
L 95.774033 81.102766 
L 100.456295 80.386452 
L 105.138557 79.89739 
L 109.820819 79.657206 
L 114.503082 79.686061 
L 118.248892 79.914817 
L 121.994701 80.334403 
L 125.740511 80.949964 
L 129.486321 81.763874 
L 133.232131 82.775085 
L 136.977941 83.978477 
L 141.660203 85.737612 
L 146.342465 87.751121 
L 151.96118 90.4417 
L 159.4528 94.332059 
L 171.626682 100.718888 
L 177.245397 103.409467 
L 181.927659 105.422977 
L 186.609921 107.182112 
L 190.355731 108.385504 
L 194.101541 109.396715 
L 197.847351 110.210625 
L 201.593161 110.826185 
L 205.33897 111.245772 
L 209.08478 111.474528 
L 212.83059 111.519743 
L 217.512852 111.331818 
L 222.195115 110.890835 
L 226.877377 110.2182 
L 231.559639 109.336138 
L 237.178354 108.032859 
L 242.797069 106.498908 
L 249.352236 104.468108 
L 256.843856 101.900404 
L 266.20838 98.443699 
L 272.763548 95.939864 
L 273.7 95.760099 
L 273.7 95.760099 
" clip-path="url(#pa39293196f)" style="fill: none; stroke: #ff0000; stroke-width: 0.1; stroke-linecap: square"/>
   </g>
   <g id="line2d_71">
    <path d="M 49.887862 95.397013 
L 50.824315 95.213771 
L 64.871101 89.82393 
L 73.299174 86.831878 
L 79.854341 84.725491 
L 85.473056 83.12277 
L 91.09177 81.747585 
L 95.774033 80.803691 
L 100.456295 80.068035 
L 105.138557 79.563529 
L 109.820819 79.312472 
L 113.566629 79.308226 
L 117.312439 79.489228 
L 121.058249 79.863627 
L 124.804059 80.437558 
L 128.549869 81.214513 
L 132.295679 82.194655 
L 136.041488 83.374124 
L 140.723751 85.115287 
L 145.406013 87.126088 
L 150.088275 89.365114 
L 156.643442 92.777939 
L 174.436039 102.25911 
L 179.118302 104.456436 
L 183.800564 106.416195 
L 188.482826 108.099638 
L 192.228636 109.229882 
L 195.974446 110.15942 
L 199.720256 110.885462 
L 203.466065 111.409068 
L 207.211875 111.734454 
L 210.957685 111.868314 
L 214.703495 111.819212 
L 219.385757 111.515735 
L 224.06802 110.963186 
L 228.750282 110.18404 
L 233.432544 109.201262 
L 239.051259 107.785452 
L 244.669974 106.148561 
L 251.225141 104.010232 
L 258.716761 101.336659 
L 269.017738 97.40974 
L 272.763548 95.946817 
L 273.7 95.763576 
L 273.7 95.763576 
" clip-path="url(#pa39293196f)" style="fill: none; stroke: #ff0000; stroke-width: 0.1; stroke-linecap: square"/>
   </g>
   <g id="line2d_72">
    <path d="M 49.887862 95.395231 
L 50.824315 95.210208 
L 64.871101 89.767816 
L 73.299174 86.746261 
L 79.854341 84.618776 
L 85.473056 82.999674 
L 91.09177 81.610031 
L 95.774033 80.65582 
L 100.456295 79.911661 
L 105.138557 79.400715 
L 109.820819 79.145546 
L 113.566629 79.13988 
L 117.312439 79.321288 
L 121.058249 79.698073 
L 124.804059 80.276515 
L 128.549869 81.060235 
L 132.295679 82.049497 
L 136.041488 83.240497 
L 140.723751 84.999446 
L 145.406013 87.031589 
L 150.088275 89.295094 
L 156.643442 92.746146 
L 174.436039 102.334248 
L 179.118302 104.55547 
L 183.800564 106.535887 
L 188.482826 108.236374 
L 192.228636 109.377544 
L 195.974446 110.315607 
L 199.720256 111.04784 
L 203.466065 111.575412 
L 207.211875 111.902674 
L 210.957685 112.03647 
L 214.703495 111.985516 
L 219.385757 111.677438 
L 224.06802 111.118016 
L 228.750282 110.329986 
L 233.432544 109.336555 
L 239.051259 107.905943 
L 244.669974 106.252382 
L 251.225141 104.092687 
L 258.716761 101.392772 
L 269.017738 97.427532 
L 272.763548 95.950381 
L 273.7 95.765358 
L 273.7 95.765358 
" clip-path="url(#pa39293196f)" style="fill: none; stroke: #ff0000; stroke-width: 0.1; stroke-linecap: square"/>
   </g>
   <g id="line2d_73">
    <path d="M 49.887862 95.395298 
L 50.824315 95.210342 
L 64.871101 89.770452 
L 73.299174 86.751413 
L 79.854341 84.626694 
L 85.473056 83.010584 
L 91.09177 81.624485 
L 95.774033 80.673583 
L 100.456295 79.932959 
L 105.138557 79.425633 
L 109.820819 79.173991 
L 113.566629 79.170933 
L 117.312439 79.35462 
L 121.058249 79.733215 
L 124.804059 80.312855 
L 128.549869 81.097022 
L 132.295679 82.085852 
L 136.041488 83.275439 
L 140.723751 85.031148 
L 145.406013 87.058406 
L 150.088275 89.315511 
L 156.643442 92.755629 
L 174.436039 102.312441 
L 179.118302 104.527549 
L 183.800564 106.503404 
L 188.482826 108.200983 
L 192.228636 109.340993 
L 195.974446 110.278854 
L 199.720256 111.011733 
L 203.466065 111.540671 
L 207.211875 111.869874 
L 210.957685 112.006043 
L 214.703495 111.957759 
L 219.385757 111.653244 
L 224.06802 111.097437 
L 228.750282 110.312906 
L 233.432544 109.322728 
L 239.051259 107.895571 
L 244.669974 106.244907 
L 251.225141 104.087869 
L 258.716761 101.390137 
L 269.017738 97.426846 
L 272.763548 95.950246 
L 273.7 95.76529 
L 273.7 95.76529 
" clip-path="url(#pa39293196f)" style="fill: none; stroke: #ff0000; stroke-width: 0.1; stroke-linecap: square"/>
   </g>
   <g id="line2d_74">
    <path d="M 49.887862 95.397426 
L 50.824315 95.214598 
L 64.871101 89.838561 
L 73.299174 86.857723 
L 79.854341 84.762361 
L 85.473056 83.170827 
L 91.09177 81.808319 
L 95.774033 80.875893 
L 100.456295 80.152187 
L 105.138557 79.659655 
L 109.820819 79.420003 
L 113.566629 79.423994 
L 117.312439 79.611994 
L 121.058249 79.991703 
L 124.804059 80.568795 
L 128.549869 81.346316 
L 132.295679 82.324027 
L 136.041488 83.497751 
L 140.723751 85.226789 
L 145.406013 87.219974 
L 151.024728 89.901926 
L 157.579895 93.31009 
L 173.499587 101.724237 
L 179.118302 104.358602 
L 183.800564 106.301823 
L 188.482826 107.974251 
L 192.228636 109.099602 
L 195.974446 110.027492 
L 199.720256 110.754788 
L 203.466065 111.282136 
L 207.211875 111.613297 
L 210.957685 111.754505 
L 215.639947 111.676407 
L 220.32221 111.333075 
L 225.004472 110.745412 
L 229.686734 109.935502 
L 234.368997 108.925938 
L 239.987711 107.482795 
L 245.606426 105.823446 
L 252.161593 103.664787 
L 260.589666 100.62688 
L 273.7 95.763162 
L 273.7 95.763162 
" clip-path="url(#pa39293196f)" style="fill: none; stroke: #ff0000; stroke-width: 0.1; stroke-linecap: square"/>
   </g>
   <g id="line2d_75">
    <path d="M 49.887862 95.401896 
L 50.824315 95.223538 
L 64.871101 89.981044 
L 73.299174 87.078862 
L 79.854341 85.042928 
L 85.473056 83.5003 
L 91.09177 82.183887 
L 95.774033 81.286875 
L 100.456295 80.594934 
L 105.138557 80.129466 
L 109.820819 79.910938 
L 114.503082 79.958127 
L 118.248892 80.198109 
L 121.994701 80.62494 
L 125.740511 81.242906 
L 129.486321 82.053574 
L 133.232131 83.055204 
L 137.914393 84.566791 
L 142.596656 86.346897 
L 147.278918 88.363126 
L 152.897633 91.031393 
L 161.325705 95.336793 
L 171.626682 100.589231 
L 177.245397 103.217644 
L 181.927659 105.189811 
L 186.609921 106.918425 
L 191.292184 108.373459 
L 195.037993 109.327714 
L 198.783803 110.090231 
L 202.529613 110.66015 
L 206.275423 111.039774 
L 210.021233 111.233977 
L 214.703495 111.226634 
L 219.385757 110.957148 
L 224.06802 110.444709 
L 228.750282 109.710023 
L 233.432544 108.774607 
L 239.051259 107.41788 
L 244.669974 105.84119 
L 251.225141 103.773288 
L 258.716761 101.179544 
L 269.017738 97.360882 
L 272.763548 95.937051 
L 273.7 95.758693 
L 273.7 95.758693 
" clip-path="url(#pa39293196f)" style="fill: none; stroke: #ff0000; stroke-width: 0.1; stroke-linecap: square"/>
   </g>
   <g id="line2d_76">
    <path d="M 49.887862 95.409073 
L 50.824315 95.237891 
L 64.871101 90.209407 
L 73.299174 87.432387 
L 79.854341 85.490254 
L 85.473056 84.024158 
L 91.09177 82.779168 
L 96.710485 81.791091 
L 101.392747 81.189385 
L 106.07501 80.810172 
L 110.757272 80.671749 
L 115.439534 80.790325 
L 120.121797 81.179023 
L 123.867606 81.690572 
L 127.613416 82.382687 
L 132.295679 83.500067 
L 136.977941 84.888712 
L 141.660203 86.529979 
L 146.342465 88.394968 
L 151.96118 90.872323 
L 159.4528 94.437974 
L 172.563134 100.716157 
L 178.181849 103.154777 
L 182.864111 104.977836 
L 187.546374 106.570556 
L 192.228636 107.906122 
L 196.910898 108.967863 
L 201.593161 109.748302 
L 206.275423 110.247804 
L 210.957685 110.473065 
L 215.639947 110.435644 
L 220.32221 110.150649 
L 225.004472 109.635646 
L 229.686734 108.909796 
L 235.305449 107.788807 
L 240.924164 106.428778 
L 247.479331 104.587796 
L 254.970951 102.217795 
L 264.335475 98.97825 
L 272.763548 95.922697 
L 273.7 95.751515 
L 273.7 95.751515 
" clip-path="url(#pa39293196f)" style="fill: none; stroke: #ff0000; stroke-width: 0.1; stroke-linecap: square"/>
   </g>
   <g id="line2d_77">
    <path d="M 49.887862 95.419412 
L 50.824315 95.258569 
L 64.871101 90.537903 
L 73.299174 87.939849 
L 79.854341 86.130892 
L 86.409508 84.566014 
L 92.028223 83.459415 
L 97.646938 82.604263 
L 102.3292 82.106549 
L 107.011462 81.82246 
L 111.693724 81.767318 
L 116.375987 81.953975 
L 121.058249 82.391895 
L 125.740511 83.086098 
L 130.422774 84.035988 
L 135.105036 85.234195 
L 139.787298 86.665551 
L 144.469561 88.306399 
L 150.088275 90.505872 
L 157.579895 93.710005 
L 174.436039 101.036159 
L 180.054754 103.19769 
L 184.737016 104.79895 
L 189.419279 106.185291 
L 194.101541 107.334787 
L 198.783803 108.233896 
L 203.466065 108.876693 
L 208.148328 109.2638 
L 212.83059 109.401217 
L 217.512852 109.299167 
L 222.195115 108.971062 
L 226.877377 108.432624 
L 232.496092 107.533326 
L 238.114807 106.387994 
L 243.733521 105.029696 
L 250.288688 103.22074 
L 257.780308 100.923356 
L 268.081285 97.505233 
L 272.763548 95.902019 
L 273.7 95.741176 
L 273.7 95.741176 
" clip-path="url(#pa39293196f)" style="fill: none; stroke: #ff0000; stroke-width: 0.1; stroke-linecap: square"/>
   </g>
   <g id="line2d_78">
    <path d="M 49.887862 95.433416 
L 50.824315 95.286576 
L 64.871101 90.982069 
L 73.299174 88.624307 
L 79.854341 86.992653 
L 86.409508 85.5925 
L 92.028223 84.613365 
L 97.646938 83.868986 
L 102.3292 83.447571 
L 107.011462 83.222055 
L 111.693724 83.204508 
L 116.375987 83.404378 
L 121.058249 83.827766 
L 125.740511 84.476622 
L 130.422774 85.347912 
L 135.105036 86.43285 
L 140.723751 87.994982 
L 146.342465 89.803661 
L 152.897633 92.154723 
L 163.19861 96.128977 
L 173.499587 100.039566 
L 180.054754 102.289111 
L 185.673469 103.980252 
L 190.355731 105.18653 
L 195.037993 106.18746 
L 199.720256 106.970492 
L 204.402518 107.529227 
L 209.08478 107.862723 
L 213.767043 107.974689 
L 218.449305 107.872659 
L 223.131567 107.567211 
L 228.750282 106.950505 
L 234.368997 106.085222 
L 239.987711 104.999517 
L 246.542879 103.494122 
L 254.034498 101.519099 
L 262.46257 99.062318 
L 273.7 95.727172 
L 273.7 95.727172 
" clip-path="url(#pa39293196f)" style="fill: none; stroke: #ff0000; stroke-width: 0.1; stroke-linecap: square"/>
   </g>
   <g id="line2d_79">
    <path d="M 49.887862 95.451387 
L 50.824315 95.322514 
L 65.807554 91.311898 
L 74.235626 89.284961 
L 81.727246 87.722752 
L 88.282413 86.594692 
L 93.901128 85.83799 
L 99.519842 85.300136 
L 105.138557 85.001547 
L 110.757272 84.95871 
L 115.439534 85.12682 
L 120.121797 85.483961 
L 124.804059 86.029963 
L 130.422774 86.928243 
L 136.041488 88.076436 
L 141.660203 89.448909 
L 148.21537 91.28564 
L 156.643442 93.906584 
L 176.308944 100.150479 
L 182.864111 101.954611 
L 188.482826 103.29191 
L 194.101541 104.39996 
L 199.720256 105.254795 
L 204.402518 105.763225 
L 209.08478 106.082454 
L 213.767043 106.213057 
L 219.385757 106.126648 
L 225.004472 105.786918 
L 230.623187 105.21108 
L 236.241902 104.42011 
L 242.797069 103.257322 
L 249.352236 101.875627 
L 257.780308 99.848691 
L 268.081285 97.122084 
L 272.763548 95.838075 
L 273.7 95.709202 
L 273.7 95.709202 
" clip-path="url(#pa39293196f)" style="fill: none; stroke: #ff0000; stroke-width: 0.1; stroke-linecap: square"/>
   </g>
   <g id="line2d_80">
    <path d="M 49.887862 95.472526 
L 51.760767 95.149411 
L 65.807554 92.018991 
L 74.235626 90.341681 
L 81.727246 89.062733 
L 88.282413 88.152706 
L 94.83758 87.472368 
L 100.456295 87.093339 
L 106.07501 86.917579 
L 111.693724 86.954907 
L 117.312439 87.210315 
L 122.931154 87.683264 
L 128.549869 88.367071 
L 135.105036 89.413253 
L 141.660203 90.695356 
L 149.151823 92.391541 
L 159.4528 94.975236 
L 175.372492 98.991999 
L 182.864111 100.66126 
L 189.419279 101.912133 
L 195.974446 102.921649 
L 201.593161 103.571052 
L 207.211875 104.008036 
L 212.83059 104.226977 
L 218.449305 104.228305 
L 224.06802 104.017865 
L 229.686734 103.606211 
L 236.241902 102.891223 
L 242.797069 101.950966 
L 250.288688 100.643654 
L 258.716761 98.943097 
L 270.890643 96.226305 
L 273.7 95.688062 
L 273.7 95.688062 
" clip-path="url(#pa39293196f)" style="fill: none; stroke: #ff0000; stroke-width: 0.1; stroke-linecap: square"/>
   </g>
   <g id="line2d_81">
    <path d="M 49.887862 95.493411 
L 51.760767 95.232923 
L 66.744006 92.556979 
L 76.108531 91.103843 
L 83.600151 90.141924 
L 91.09177 89.404842 
L 97.646938 88.972199 
L 104.202105 88.756564 
L 110.757272 88.769331 
L 117.312439 89.014596 
L 123.867606 89.48842 
L 130.422774 90.178336 
L 137.914393 91.203925 
L 146.342465 92.605532 
L 157.579895 94.742153 
L 178.181849 98.721465 
L 186.609921 100.097372 
L 194.101541 101.093334 
L 200.656708 101.753472 
L 207.211875 102.195207 
L 213.767043 102.407305 
L 220.32221 102.387012 
L 226.877377 102.139519 
L 233.432544 101.677191 
L 240.924164 100.90991 
L 248.415784 99.92275 
L 257.780308 98.446224 
L 269.95419 96.274172 
L 273.7 95.667178 
L 273.7 95.667178 
" clip-path="url(#pa39293196f)" style="fill: none; stroke: #ff0000; stroke-width: 0.1; stroke-linecap: square"/>
   </g>
   <g id="line2d_82">
    <path d="M 49.887862 95.509905 
L 51.760767 95.298872 
L 67.680459 93.008787 
L 77.981436 91.757469 
L 86.409508 90.95519 
L 93.901128 90.449834 
L 101.392747 90.165458 
L 108.884367 90.117417 
L 116.375987 90.311119 
L 123.867606 90.74122 
L 131.359226 91.391284 
L 139.787298 92.351155 
L 150.088275 93.775626 
L 167.880872 96.532049 
L 180.991206 98.444231 
L 190.355731 99.575389 
L 198.783803 100.349682 
L 206.275423 100.808405 
L 213.767043 101.032175 
L 221.258662 101.014271 
L 228.750282 100.758792 
L 236.241902 100.279904 
L 244.669974 99.503226 
L 254.034498 98.397513 
L 265.271928 96.836195 
L 273.7 95.650684 
L 273.7 95.650684 
" clip-path="url(#pa39293196f)" style="fill: none; stroke: #ff0000; stroke-width: 0.1; stroke-linecap: square"/>
   </g>
   <g id="line2d_83">
    <path d="M 49.887862 95.521523 
L 51.760767 95.345327 
L 68.616911 93.332044 
L 78.917888 92.312069 
L 88.282413 91.611576 
L 96.710485 91.208399 
L 105.138557 91.046011 
L 112.630177 91.113402 
L 121.058249 91.425926 
L 129.486321 91.974043 
L 138.850846 92.823381 
L 150.088275 94.09522 
L 188.482826 98.70414 
L 197.847351 99.457681 
L 206.275423 99.903885 
L 214.703495 100.105959 
L 222.195115 100.073179 
L 230.623187 99.801563 
L 239.051259 99.298454 
L 248.415784 98.504058 
L 259.653213 97.299882 
L 273.7 95.639065 
L 273.7 95.639065 
" clip-path="url(#pa39293196f)" style="fill: none; stroke: #ff0000; stroke-width: 0.1; stroke-linecap: square"/>
   </g>
   <g id="line2d_84">
    <path d="M 49.887862 95.529732 
L 52.697219 95.27724 
L 70.489816 93.474089 
L 81.727246 92.570451 
L 91.09177 92.036988 
L 99.519842 91.761665 
L 107.947915 91.697889 
L 116.375987 91.850772 
L 124.804059 92.2133 
L 134.168583 92.838388 
L 144.469561 93.746373 
L 159.4528 95.322289 
L 180.991206 97.593415 
L 192.228636 98.532187 
L 201.593161 99.09049 
L 210.021233 99.38467 
L 218.449305 99.465508 
L 226.877377 99.330062 
L 235.305449 98.987376 
L 244.669974 98.388472 
L 255.907403 97.424995 
L 270.890643 95.883349 
L 273.7 95.630857 
L 273.7 95.630857 
" clip-path="url(#pa39293196f)" style="fill: none; stroke: #ff0000; stroke-width: 0.1; stroke-linecap: square"/>
   </g>
   <g id="line2d_85">
    <path d="M 49.887862 95.535752 
L 52.697219 95.313328 
L 70.489816 93.725644 
L 81.727246 92.931356 
L 92.028223 92.428126 
L 101.392747 92.195055 
L 110.757272 92.193891 
L 120.121797 92.426133 
L 129.486321 92.877064 
L 139.787298 93.589132 
L 152.897633 94.729619 
L 186.609921 97.78518 
L 196.910898 98.440252 
L 206.275423 98.828072 
L 215.639947 98.991101 
L 225.004472 98.919473 
L 234.368997 98.619506 
L 244.669974 98.052124 
L 255.907403 97.20484 
L 271.827095 95.758372 
L 273.7 95.624836 
L 273.7 95.624836 
" clip-path="url(#pa39293196f)" style="fill: none; stroke: #ff0000; stroke-width: 0.1; stroke-linecap: square"/>
   </g>
   <g id="line2d_86">
    <path d="M 49.887862 95.540336 
L 52.697219 95.340802 
L 71.426269 93.850401 
L 83.600151 93.107792 
L 93.901128 92.697876 
L 103.265652 92.531139 
L 112.630177 92.573629 
L 121.994701 92.823419 
L 132.295679 93.317686 
L 144.469561 94.142809 
L 161.325705 95.53984 
L 182.864111 97.294638 
L 195.037993 98.047173 
L 205.33897 98.461232 
L 214.703495 98.629266 
L 224.06802 98.587483 
L 234.368997 98.304211 
L 244.669974 97.796581 
L 256.843856 96.966562 
L 273.7 95.620253 
L 273.7 95.620253 
" clip-path="url(#pa39293196f)" style="fill: none; stroke: #ff0000; stroke-width: 0.1; stroke-linecap: square"/>
   </g>
   <g id="line2d_87">
    <path d="M 49.887862 95.543934 
L 53.633672 95.289955 
L 72.362721 93.947042 
L 84.536603 93.289464 
L 95.774033 92.914479 
L 106.07501 92.800457 
L 116.375987 92.917296 
L 126.676964 93.256215 
L 137.914393 93.84643 
L 151.96118 94.818991 
L 188.482826 97.480568 
L 199.720256 98.017585 
L 210.021233 98.297902 
L 220.32221 98.351837 
L 230.623187 98.175865 
L 240.924164 97.785463 
L 253.098046 97.093574 
L 269.017738 95.942848 
L 273.7 95.616655 
L 273.7 95.616655 
" clip-path="url(#pa39293196f)" style="fill: none; stroke: #ff0000; stroke-width: 0.1; stroke-linecap: square"/>
   </g>
   <g id="line2d_88">
    <path d="M 49.887862 95.546827 
L 53.633672 95.313056 
L 73.299174 94.023576 
L 85.473056 93.435311 
L 96.710485 93.109982 
L 107.011462 93.024911 
L 117.312439 93.152129 
L 128.549869 93.520957 
L 140.723751 94.14988 
L 156.643442 95.210429 
L 185.673469 97.173721 
L 197.847351 97.75282 
L 209.08478 98.063965 
L 219.385757 98.133521 
L 229.686734 97.991169 
L 240.924164 97.609322 
L 253.098046 96.972977 
L 269.95419 95.847532 
L 273.7 95.613762 
L 273.7 95.613762 
" clip-path="url(#pa39293196f)" style="fill: none; stroke: #ff0000; stroke-width: 0.1; stroke-linecap: square"/>
   </g>
   <g id="line2d_89">
    <path d="M 49.887862 95.549197 
L 53.633672 95.331987 
L 73.299174 94.134038 
L 86.409508 93.554669 
L 97.646938 93.270858 
L 108.884367 93.214461 
L 120.121797 93.391767 
L 131.359226 93.785927 
L 144.469561 94.467346 
L 165.071515 95.799164 
L 185.673469 97.059124 
L 198.783803 97.629192 
L 210.021233 97.900206 
L 221.258662 97.941753 
L 232.496092 97.75046 
L 244.669974 97.303623 
L 258.716761 96.546545 
L 273.7 95.611391 
L 273.7 95.611391 
" clip-path="url(#pa39293196f)" style="fill: none; stroke: #ff0000; stroke-width: 0.1; stroke-linecap: square"/>
   </g>
   <g id="line2d_90">
    <path d="M 49.887862 95.551169 
L 53.633672 95.347732 
L 74.235626 94.180145 
L 87.34596 93.653827 
L 99.519842 93.39417 
L 110.757272 93.378362 
L 121.994701 93.580139 
L 134.168583 94.021246 
L 149.151823 94.805925 
L 193.165088 97.297237 
L 205.33897 97.671119 
L 216.5764 97.801476 
L 227.813829 97.712543 
L 239.987711 97.380081 
L 253.098046 96.792053 
L 271.827095 95.696735 
L 273.7 95.609419 
L 273.7 95.609419 
" clip-path="url(#pa39293196f)" style="fill: none; stroke: #ff0000; stroke-width: 0.1; stroke-linecap: square"/>
   </g>
   <g id="line2d_91">
    <path d="M 49.887862 95.552828 
L 54.570124 95.306435 
L 75.172078 94.217818 
L 88.282413 93.73717 
L 100.456295 93.510241 
L 111.693724 93.512895 
L 123.867606 93.745829 
L 136.977941 94.233506 
L 152.897633 95.061259 
L 189.419279 97.049527 
L 202.529613 97.488812 
L 214.703495 97.667853 
L 225.940925 97.618664 
L 238.114807 97.339381 
L 251.225141 96.813446 
L 269.017738 95.854153 
L 273.7 95.60776 
L 273.7 95.60776 
" clip-path="url(#pa39293196f)" style="fill: none; stroke: #ff0000; stroke-width: 0.1; stroke-linecap: square"/>
   </g>
   <g id="line2d_92">
    <path d="M 49.887862 95.554238 
L 54.570124 95.320486 
L 75.172078 94.287817 
L 89.218865 93.807846 
L 101.392747 93.60967 
L 113.566629 93.639248 
L 125.740511 93.893657 
L 139.787298 94.427416 
L 158.516347 95.397343 
L 186.609921 96.857274 
L 200.656708 97.344478 
L 212.83059 97.54866 
L 225.004472 97.524962 
L 237.178354 97.276624 
L 251.225141 96.750109 
L 269.95419 95.788355 
L 273.7 95.606351 
L 273.7 95.606351 
" clip-path="url(#pa39293196f)" style="fill: none; stroke: #ff0000; stroke-width: 0.1; stroke-linecap: square"/>
   </g>
   <g id="line2d_93">
    <path d="M 49.887862 95.555443 
L 54.570124 95.332502 
L 76.108531 94.310336 
L 90.155318 93.868172 
L 102.3292 93.695572 
L 114.503082 93.740851 
L 127.613416 94.027194 
L 141.660203 94.563984 
L 162.262157 95.605244 
L 186.609921 96.797671 
L 200.656708 97.262265 
L 212.83059 97.457088 
L 225.004472 97.434653 
L 237.178354 97.197978 
L 251.225141 96.695955 
L 269.95419 95.778733 
L 273.7 95.605146 
L 273.7 95.605146 
" clip-path="url(#pa39293196f)" style="fill: none; stroke: #ff0000; stroke-width: 0.1; stroke-linecap: square"/>
   </g>
   <g id="line2d_94">
    <path d="M 49.887862 95.556478 
L 54.570124 95.342829 
L 76.108531 94.363324 
L 90.155318 93.939716 
L 103.265652 93.770295 
L 115.439534 93.829981 
L 128.549869 94.120268 
L 143.533108 94.688684 
L 167.880872 95.88948 
L 188.482826 96.818081 
L 202.529613 97.233382 
L 215.639947 97.392287 
L 227.813829 97.322399 
L 240.924164 97.02287 
L 255.907403 96.448278 
L 273.7 95.60411 
L 273.7 95.60411 
" clip-path="url(#pa39293196f)" style="fill: none; stroke: #ff0000; stroke-width: 0.1; stroke-linecap: square"/>
   </g>
   <g id="line2d_95">
    <path d="M 49.887862 95.557371 
L 54.570124 95.351732 
L 76.108531 94.409002 
L 91.09177 93.982305 
L 104.202105 93.835642 
L 117.312439 93.922608 
L 130.422774 94.23193 
L 146.342465 94.845102 
L 198.783803 97.08645 
L 211.894138 97.303857 
L 225.004472 97.290236 
L 238.114807 97.047801 
L 253.098046 96.533811 
L 273.7 95.603217 
L 273.7 95.603217 
" clip-path="url(#pa39293196f)" style="fill: none; stroke: #ff0000; stroke-width: 0.1; stroke-linecap: square"/>
   </g>
   <g id="line2d_96">
    <path d="M 49.887862 95.558142 
L 55.506577 95.315579 
L 77.044983 94.415954 
L 92.028223 94.018817 
L 105.138557 93.89302 
L 118.248892 93.993198 
L 132.295679 94.335822 
L 149.151823 94.993013 
L 195.037993 96.937644 
L 209.08478 97.218875 
L 222.195115 97.254496 
L 235.305449 97.065993 
L 249.352236 96.644878 
L 268.081285 95.84501 
L 273.7 95.602447 
L 273.7 95.602447 
" clip-path="url(#pa39293196f)" style="fill: none; stroke: #ff0000; stroke-width: 0.1; stroke-linecap: square"/>
   </g>
   <g id="line2d_97">
    <path d="M 49.887862 95.558807 
L 55.506577 95.323529 
L 77.044983 94.450959 
L 92.028223 94.065823 
L 105.138557 93.943882 
L 118.248892 94.041106 
L 132.295679 94.373436 
L 149.151823 95.010781 
L 195.037993 96.896632 
L 209.08478 97.169432 
L 222.195115 97.204048 
L 235.305449 97.021284 
L 250.288688 96.579175 
L 269.95419 95.751865 
L 273.7 95.601781 
L 273.7 95.601781 
" clip-path="url(#pa39293196f)" style="fill: none; stroke: #ff0000; stroke-width: 0.1; stroke-linecap: square"/>
   </g>
   <g id="line2d_98">
    <path d="M 49.887862 95.55938 
L 55.506577 95.330373 
L 77.981436 94.451187 
L 92.964675 94.090913 
L 106.07501 93.98732 
L 119.185344 94.097095 
L 133.232131 94.434514 
L 151.024728 95.105416 
L 193.165088 96.809775 
L 207.211875 97.104686 
L 220.32221 97.168983 
L 233.432544 97.020547 
L 248.415784 96.617446 
L 267.144833 95.871434 
L 273.7 95.601209 
L 273.7 95.601209 
" clip-path="url(#pa39293196f)" style="fill: none; stroke: #ff0000; stroke-width: 0.1; stroke-linecap: square"/>
   </g>
   <g id="line2d_99">
    <path d="M 49.887862 95.55987 
L 55.506577 95.336234 
L 77.981436 94.477691 
L 92.964675 94.125916 
L 107.011462 94.025561 
L 121.058249 94.163885 
L 136.041488 94.550242 
L 154.770538 95.275222 
L 190.355731 96.699051 
L 205.33897 97.042976 
L 219.385757 97.134076 
L 233.432544 96.986707 
L 248.415784 96.593105 
L 268.081285 95.824355 
L 273.7 95.600718 
L 273.7 95.600718 
" clip-path="url(#pa39293196f)" style="fill: none; stroke: #ff0000; stroke-width: 0.1; stroke-linecap: square"/>
   </g>
   <g id="line2d_100">
    <path d="M 49.887862 95.560287 
L 55.506577 95.341212 
L 77.981436 94.500202 
L 92.964675 94.155643 
L 107.011462 94.057379 
L 121.058249 94.192908 
L 136.041488 94.571371 
L 154.770538 95.281484 
L 190.355731 96.676107 
L 205.33897 97.013013 
L 219.385757 97.102286 
L 233.432544 96.957967 
L 248.415784 96.57243 
L 268.081285 95.819377 
L 273.7 95.600302 
L 273.7 95.600302 
" clip-path="url(#pa39293196f)" style="fill: none; stroke: #ff0000; stroke-width: 0.1; stroke-linecap: square"/>
   </g>
   <g id="line2d_101">
    <path d="M 49.887862 95.560636 
L 55.506577 95.345388 
L 77.981436 94.519083 
L 92.964675 94.180574 
L 107.011462 94.084062 
L 121.058249 94.217245 
L 136.041488 94.589087 
L 155.70699 95.325463 
L 190.355731 96.656868 
L 205.33897 96.987886 
L 219.385757 97.075626 
L 233.432544 96.933864 
L 248.415784 96.55509 
L 268.081285 95.815201 
L 273.7 95.599952 
L 273.7 95.599952 
" clip-path="url(#pa39293196f)" style="fill: none; stroke: #ff0000; stroke-width: 0.1; stroke-linecap: square"/>
   </g>
   <g id="line2d_102">
    <path d="M 49.887862 95.560924 
L 55.506577 95.348825 
L 77.981436 94.534624 
L 92.964675 94.201093 
L 107.011462 94.106021 
L 121.058249 94.237273 
L 136.041488 94.603666 
L 155.70699 95.329214 
L 190.355731 96.641036 
L 205.33897 96.967208 
L 219.385757 97.053685 
L 233.432544 96.914025 
L 248.415784 96.540817 
L 268.081285 95.811764 
L 273.7 95.599664 
L 273.7 95.599664 
" clip-path="url(#pa39293196f)" style="fill: none; stroke: #ff0000; stroke-width: 0.1; stroke-linecap: square"/>
   </g>
   <g id="line2d_103">
    <path d="M 49.887862 95.561154 
L 55.506577 95.351574 
L 77.981436 94.547053 
L 93.901128 94.204397 
L 107.947915 94.125308 
L 121.994701 94.269596 
L 136.977941 94.644391 
L 157.579895 95.408108 
L 189.419279 96.601373 
L 205.33897 96.950673 
L 219.385757 97.036138 
L 233.432544 96.898159 
L 248.415784 96.529402 
L 268.081285 95.809015 
L 273.7 95.599434 
L 273.7 95.599434 
" clip-path="url(#pa39293196f)" style="fill: none; stroke: #ff0000; stroke-width: 0.1; stroke-linecap: square"/>
   </g>
   <g id="line2d_104">
    <path d="M 49.887862 95.56133 
L 55.506577 95.353674 
L 78.917888 94.530148 
L 93.901128 94.217054 
L 107.947915 94.138707 
L 121.994701 94.28168 
L 137.914393 94.682468 
L 158.516347 95.447486 
L 189.419279 96.591952 
L 205.33897 96.938042 
L 219.385757 97.022735 
L 233.432544 96.886039 
L 248.415784 96.520681 
L 269.017738 95.769384 
L 273.7 95.599259 
L 273.7 95.599259 
" clip-path="url(#pa39293196f)" style="fill: none; stroke: #ff0000; stroke-width: 0.1; stroke-linecap: square"/>
   </g>
   <g id="line2d_105">
    <path d="M 49.887862 95.561454 
L 55.506577 95.355154 
L 78.917888 94.537013 
L 94.83758 94.21401 
L 108.884367 94.150839 
L 122.931154 94.307141 
L 138.850846 94.718227 
L 160.389252 95.523685 
L 189.419279 96.585313 
L 205.33897 96.929141 
L 219.385757 97.013289 
L 233.432544 96.877497 
L 249.352236 96.485616 
L 269.95419 95.730733 
L 273.7 95.599135 
L 273.7 95.599135 
" clip-path="url(#pa39293196f)" style="fill: none; stroke: #ff0000; stroke-width: 0.1; stroke-linecap: square"/>
   </g>
   <g id="line2d_106">
    <path d="M 49.887862 95.561527 
L 55.506577 95.356034 
L 78.917888 94.541095 
L 94.83758 94.219362 
L 108.884367 94.156445 
L 122.931154 94.312139 
L 138.850846 94.721614 
L 160.389252 95.523907 
L 189.419279 96.581365 
L 205.33897 96.923848 
L 219.385757 97.007671 
L 233.432544 96.872418 
L 249.352236 96.482075 
L 269.95419 95.730145 
L 273.7 95.599061 
L 273.7 95.599061 
" clip-path="url(#pa39293196f)" style="fill: none; stroke: #ff0000; stroke-width: 0.1; stroke-linecap: square"/>
   </g>
   <g id="line2d_107">
    <path d="M 49.887862 95.561552 
L 56.443029 95.319389 
L 78.917888 94.54245 
L 94.83758 94.221138 
L 108.884367 94.158305 
L 122.931154 94.313798 
L 138.850846 94.722739 
L 160.389252 95.523981 
L 189.419279 96.580054 
L 205.33897 96.922091 
L 219.385757 97.005807 
L 233.432544 96.870732 
L 249.352236 96.480899 
L 269.95419 95.72995 
L 273.7 95.599037 
L 273.7 95.599037 
" clip-path="url(#pa39293196f)" style="fill: none; stroke: #ff0000; stroke-width: 0.1; stroke-linecap: square"/>
   </g>
   <g id="patch_3">
    <path d="M 49.887862 176.860589 
L 49.887862 14.3 
" style="fill: none; stroke: #000000; stroke-width: 0.8; stroke-linejoin: miter; stroke-linecap: square"/>
   </g>
   <g id="patch_4">
    <path d="M 273.7 176.860589 
L 273.7 14.3 
" style="fill: none; stroke: #000000; stroke-width: 0.8; stroke-linejoin: miter; stroke-linecap: square"/>
   </g>
   <g id="patch_5">
    <path d="M 49.887862 176.860589 
L 273.7 176.860589 
" style="fill: none; stroke: #000000; stroke-width: 0.8; stroke-linejoin: miter; stroke-linecap: square"/>
   </g>
   <g id="patch_6">
    <path d="M 49.887862 14.3 
L 273.7 14.3 
" style="fill: none; stroke: #000000; stroke-width: 0.8; stroke-linejoin: miter; stroke-linecap: square"/>
   </g>
  </g>
 </g>
 <defs>
  <clipPath id="pa39293196f">
   <rect x="49.887862" y="14.3" width="223.812138" height="162.560589"/>
  </clipPath>
 </defs>
</svg>
