<?xml version="1.0" encoding="utf-8" standalone="no"?>
<!DOCTYPE svg PUBLIC "-//W3C//DTD SVG 1.1//EN"
  "http://www.w3.org/Graphics/SVG/1.1/DTD/svg11.dtd">
<!-- Created with matplotlib (https://matplotlib.org/) -->
<svg height="208.8pt" version="1.1" viewBox="0 0 280.8 208.8" width="280.8pt" xmlns="http://www.w3.org/2000/svg" xmlns:xlink="http://www.w3.org/1999/xlink">
 <metadata>
  <rdf:RDF xmlns:cc="http://creativecommons.org/ns#" xmlns:dc="http://purl.org/dc/elements/1.1/" xmlns:rdf="http://www.w3.org/1999/02/22-rdf-syntax-ns#">
   <cc:Work>
    <dc:type rdf:resource="http://purl.org/dc/dcmitype/StillImage"/>
    <dc:date>2022-04-04T14:47:53.415362</dc:date>
    <dc:format>image/svg+xml</dc:format>
    <dc:creator>
     <cc:Agent>
      <dc:title>Matplotlib v3.3.4, https://matplotlib.org/</dc:title>
     </cc:Agent>
    </dc:creator>
   </cc:Work>
  </rdf:RDF>
 </metadata>
 <defs>
  <style type="text/css">*{stroke-linecap:butt;stroke-linejoin:round;}</style>
 </defs>
 <g id="figure_1">
  <g id="patch_1">
   <path d="M 0 208.8 
L 280.8 208.8 
L 280.8 0 
L 0 0 
z
" style="fill:#ffffff;"/>
  </g>
  <g id="axes_1">
   <g id="patch_2">
    <path d="M 46.287862 173.260589 
L 270.1 173.260589 
L 270.1 10.7 
L 46.287862 10.7 
z
" style="fill:#ffffff;"/>
   </g>
   <g id="matplotlib.axis_1">
    <g id="xtick_1">
     <g id="line2d_1">
      <defs>
       <path d="M 0 0 
L 0 3.5 
" id="m920a0a3883" style="stroke:#000000;stroke-width:0.8;"/>
      </defs>
      <g>
       <use style="stroke:#000000;stroke-width:0.8;" x="46.287862" xlink:href="#m920a0a3883" y="173.260589"/>
      </g>
     </g>
     <g id="line2d_2">
      <defs>
       <path d="M 0 0 
L 0 -3.5 
" id="mf204ab7cd6" style="stroke:#000000;stroke-width:0.8;"/>
      </defs>
      <g>
       <use style="stroke:#000000;stroke-width:0.8;" x="46.287862" xlink:href="#mf204ab7cd6" y="10.7"/>
      </g>
     </g>
     <g id="text_1">
      <!-- 0 -->
      <g transform="translate(44.083444 186.023691)scale(0.0833 -0.0833)">
       <defs>
        <path d="M 42 31.84375 
C 42 37.96875 41.90625 48.421875 37.703125 56.453125 
C 34 63.484375 28.09375 66 22.90625 66 
C 18.09375 66 12 63.78125 8.203125 56.5625 
C 4.203125 49.015625 3.796875 39.671875 3.796875 31.84375 
C 3.796875 26.109375 3.90625 17.375 7 9.734375 
C 11.296875 -0.609375 19 -2 22.90625 -2 
C 27.5 -2 34.5 -0.109375 38.59375 9.4375 
C 41.59375 16.375 42 24.5 42 31.84375 
z
M 22.90625 -0.40625 
C 16.5 -0.40625 12.703125 5.125 11.296875 12.75 
C 10.203125 18.6875 10.203125 27.328125 10.203125 32.953125 
C 10.203125 40.6875 10.203125 47.109375 11.5 53.234375 
C 13.40625 61.78125 19 64.390625 22.90625 64.390625 
C 27 64.390625 32.296875 61.671875 34.203125 53.4375 
C 35.5 47.71875 35.59375 40.984375 35.59375 32.953125 
C 35.59375 26.421875 35.59375 18.375 34.40625 12.453125 
C 32.296875 1.5 26.40625 -0.40625 22.90625 -0.40625 
z
" id="CMR17-48"/>
       </defs>
       <use transform="scale(0.996264)" xlink:href="#CMR17-48"/>
      </g>
     </g>
    </g>
    <g id="xtick_2">
     <g id="line2d_3">
      <g>
       <use style="stroke:#000000;stroke-width:0.8;" x="102.240897" xlink:href="#m920a0a3883" y="173.260589"/>
      </g>
     </g>
     <g id="line2d_4">
      <g>
       <use style="stroke:#000000;stroke-width:0.8;" x="102.240897" xlink:href="#mf204ab7cd6" y="10.7"/>
      </g>
     </g>
     <g id="text_2">
      <!-- 0.5 -->
      <g transform="translate(96.607382 186.023691)scale(0.0833 -0.0833)">
       <defs>
        <path d="M 16.59375 4.09375 
C 16.59375 6.59375 14.59375 8.1875 12.5 8.1875 
C 10.5 8.1875 8.40625 6.59375 8.40625 4.09375 
C 8.40625 1.59375 10.40625 0 12.5 0 
C 14.5 0 16.59375 1.59375 16.59375 4.09375 
z
" id="CMR17-46"/>
        <path d="M 11.40625 58.59375 
C 12.40625 58.1875 16.5 56.890625 20.703125 56.890625 
C 30 56.890625 35.09375 61.890625 38 64.6875 
C 38 65.484375 38 66 37.40625 66 
C 37.296875 66 37.09375 66 36.296875 65.59375 
C 32.796875 64.09375 28.703125 63 23.703125 63 
C 20.703125 63 16.203125 63.359375 11.296875 65.484375 
C 10.203125 66 10 66 9.90625 66 
C 9.40625 66 9.296875 65.890625 9.296875 63.90625 
L 9.296875 34.859375 
C 9.296875 33.015625 9.296875 32.5 10.296875 32.5 
C 10.796875 32.5 11 32.703125 11.5 33.421875 
C 14.703125 38.046875 19.09375 40 24.09375 40 
C 27.59375 40 35.09375 37.734375 35.09375 20.203125 
C 35.09375 16.984375 35.09375 11.1875 32.09375 6.59375 
C 29.59375 2.484375 25.703125 0.390625 21.40625 0.390625 
C 14.796875 0.390625 8.09375 4.984375 6.296875 12.6875 
C 6.703125 12.59375 7.5 12.390625 7.90625 12.390625 
C 9.203125 12.390625 11.703125 13.09375 11.703125 16.1875 
C 11.703125 18.890625 9.796875 20 7.90625 20 
C 5.59375 20 4.09375 18.59375 4.09375 15.796875 
C 4.09375 7.09375 11 -2 21.59375 -2 
C 31.90625 -2 41.703125 6.890625 41.703125 19.796875 
C 41.703125 32.09375 33.90625 41.59375 24.203125 41.59375 
C 19.09375 41.59375 14.796875 39.6875 11.40625 36 
z
" id="CMR17-53"/>
       </defs>
       <use transform="scale(0.996264)" xlink:href="#CMR17-48"/>
       <use transform="translate(45.690477 0)scale(0.996264)" xlink:href="#CMR17-46"/>
       <use transform="translate(70.561536 0)scale(0.996264)" xlink:href="#CMR17-53"/>
      </g>
     </g>
    </g>
    <g id="xtick_3">
     <g id="line2d_5">
      <g>
       <use style="stroke:#000000;stroke-width:0.8;" x="158.193931" xlink:href="#m920a0a3883" y="173.260589"/>
      </g>
     </g>
     <g id="line2d_6">
      <g>
       <use style="stroke:#000000;stroke-width:0.8;" x="158.193931" xlink:href="#mf204ab7cd6" y="10.7"/>
      </g>
     </g>
     <g id="text_3">
      <!-- 1.0 -->
      <g transform="translate(152.560417 186.023691)scale(0.0833 -0.0833)">
       <defs>
        <path d="M 26.59375 63.796875 
C 26.59375 65.890625 26.5 66 25.09375 66 
C 21.203125 61.359375 15.296875 59.890625 9.703125 59.6875 
C 9.40625 59.6875 8.90625 59.6875 8.796875 59.5 
C 8.703125 59.296875 8.703125 59.09375 8.703125 57 
C 11.796875 57 17 57.59375 21 59.984375 
L 21 7.296875 
C 21 3.796875 20.796875 2.59375 12.203125 2.59375 
L 9.203125 2.59375 
L 9.203125 0 
C 14 0.09375 19 0.1875 23.796875 0.1875 
C 28.59375 0.1875 33.59375 0.09375 38.40625 0 
L 38.40625 2.59375 
L 35.40625 2.59375 
C 26.796875 2.59375 26.59375 3.6875 26.59375 7.296875 
z
" id="CMR17-49"/>
       </defs>
       <use transform="scale(0.996264)" xlink:href="#CMR17-49"/>
       <use transform="translate(45.690477 0)scale(0.996264)" xlink:href="#CMR17-46"/>
       <use transform="translate(70.561536 0)scale(0.996264)" xlink:href="#CMR17-48"/>
      </g>
     </g>
    </g>
    <g id="xtick_4">
     <g id="line2d_7">
      <g>
       <use style="stroke:#000000;stroke-width:0.8;" x="214.146966" xlink:href="#m920a0a3883" y="173.260589"/>
      </g>
     </g>
     <g id="line2d_8">
      <g>
       <use style="stroke:#000000;stroke-width:0.8;" x="214.146966" xlink:href="#mf204ab7cd6" y="10.7"/>
      </g>
     </g>
     <g id="text_4">
      <!-- 1.5 -->
      <g transform="translate(208.513451 186.023691)scale(0.0833 -0.0833)">
       <use transform="scale(0.996264)" xlink:href="#CMR17-49"/>
       <use transform="translate(45.690477 0)scale(0.996264)" xlink:href="#CMR17-46"/>
       <use transform="translate(70.561536 0)scale(0.996264)" xlink:href="#CMR17-53"/>
      </g>
     </g>
    </g>
    <g id="xtick_5">
     <g id="line2d_9">
      <g>
       <use style="stroke:#000000;stroke-width:0.8;" x="270.1" xlink:href="#m920a0a3883" y="173.260589"/>
      </g>
     </g>
     <g id="line2d_10">
      <g>
       <use style="stroke:#000000;stroke-width:0.8;" x="270.1" xlink:href="#mf204ab7cd6" y="10.7"/>
      </g>
     </g>
     <g id="text_5">
      <!-- 2 -->
      <g transform="translate(267.895582 186.023691)scale(0.0833 -0.0833)">
       <defs>
        <path d="M 41.703125 15.46875 
L 39.90625 15.46875 
C 38.90625 8.390625 38.09375 7.1875 37.703125 6.59375 
C 37.203125 5.796875 30 5.796875 28.59375 5.796875 
L 9.40625 5.796875 
C 13 9.6875 20 16.765625 28.5 24.9375 
C 34.59375 30.71875 41.703125 37.5 41.703125 47.390625 
C 41.703125 59.1875 32.296875 66 21.796875 66 
C 10.796875 66 4.09375 56.296875 4.09375 47.296875 
C 4.09375 43.390625 7 42.890625 8.203125 42.890625 
C 9.203125 42.890625 12.203125 43.484375 12.203125 46.984375 
C 12.203125 50.09375 9.59375 51 8.203125 51 
C 7.59375 51 7 50.890625 6.59375 50.6875 
C 8.5 59.1875 14.296875 63.390625 20.40625 63.390625 
C 29.09375 63.390625 34.796875 56.5 34.796875 47.390625 
C 34.796875 38.703125 29.703125 31.21875 24 24.734375 
L 4.09375 2.296875 
L 4.09375 0 
L 39.296875 0 
z
" id="CMR17-50"/>
       </defs>
       <use transform="scale(0.996264)" xlink:href="#CMR17-50"/>
      </g>
     </g>
    </g>
    <g id="xtick_6">
     <g id="line2d_11">
      <defs>
       <path d="M 0 0 
L 0 2 
" id="macda974c63" style="stroke:#000000;stroke-width:0.6;"/>
      </defs>
      <g>
       <use style="stroke:#000000;stroke-width:0.6;" x="74.264379" xlink:href="#macda974c63" y="173.260589"/>
      </g>
     </g>
     <g id="line2d_12">
      <defs>
       <path d="M 0 0 
L 0 -2 
" id="mbbb03fa0a0" style="stroke:#000000;stroke-width:0.6;"/>
      </defs>
      <g>
       <use style="stroke:#000000;stroke-width:0.6;" x="74.264379" xlink:href="#mbbb03fa0a0" y="10.7"/>
      </g>
     </g>
    </g>
    <g id="xtick_7">
     <g id="line2d_13">
      <g>
       <use style="stroke:#000000;stroke-width:0.6;" x="130.217414" xlink:href="#macda974c63" y="173.260589"/>
      </g>
     </g>
     <g id="line2d_14">
      <g>
       <use style="stroke:#000000;stroke-width:0.6;" x="130.217414" xlink:href="#mbbb03fa0a0" y="10.7"/>
      </g>
     </g>
    </g>
    <g id="xtick_8">
     <g id="line2d_15">
      <g>
       <use style="stroke:#000000;stroke-width:0.6;" x="186.170448" xlink:href="#macda974c63" y="173.260589"/>
      </g>
     </g>
     <g id="line2d_16">
      <g>
       <use style="stroke:#000000;stroke-width:0.6;" x="186.170448" xlink:href="#mbbb03fa0a0" y="10.7"/>
      </g>
     </g>
    </g>
    <g id="xtick_9">
     <g id="line2d_17">
      <g>
       <use style="stroke:#000000;stroke-width:0.6;" x="242.123483" xlink:href="#macda974c63" y="173.260589"/>
      </g>
     </g>
     <g id="line2d_18">
      <g>
       <use style="stroke:#000000;stroke-width:0.6;" x="242.123483" xlink:href="#mbbb03fa0a0" y="10.7"/>
      </g>
     </g>
    </g>
    <g id="text_6">
     <!-- $\Phi/\pi$ -->
     <g transform="translate(149.266152 199.10934)scale(0.1 -0.1)">
      <defs>
       <path d="M 36.40625 13.296875 
C 52.59375 14.6875 62.09375 24.515625 62.09375 33.9375 
C 62.09375 43.765625 52.203125 53.296875 36.40625 54.6875 
L 36.40625 60.609375 
C 36.40625 64.34375 36.59375 65.390625 44.203125 65.390625 
L 46.40625 65.390625 
L 46.40625 68 
C 42.296875 67.796875 37.5 67.796875 33.296875 67.796875 
C 29.09375 67.796875 24.203125 67.796875 20.09375 68 
L 20.09375 65.390625 
L 22.296875 65.390625 
C 29.90625 65.390625 30.09375 64.34375 30.09375 60.609375 
L 30.09375 54.6875 
C 14.40625 53.296875 4.59375 43.65625 4.59375 34.046875 
C 4.59375 24.03125 14.796875 14.6875 30.09375 13.296875 
L 30.09375 7.375 
C 30.09375 3.625 29.90625 2.59375 22.296875 2.59375 
L 20.09375 2.59375 
L 20.09375 0 
C 24.203125 0.1875 29.09375 0.1875 33.296875 0.1875 
C 37.5 0.1875 42.296875 0.1875 46.40625 0 
L 46.40625 2.59375 
L 44.203125 2.59375 
C 36.59375 2.59375 36.40625 3.625 36.40625 7.375 
z
M 30.09375 15 
C 21.09375 15.96875 12 21.015625 12 33.9375 
C 12 47.25 21.40625 52.109375 30.09375 53 
z
M 36.40625 53 
C 44.296875 52.3125 54.703125 47.9375 54.703125 34.046875 
C 54.703125 19.75 43.90625 15.671875 36.40625 15 
z
" id="CMR17-8"/>
       <path d="M 42.90625 71.296875 
C 42.90625 71.390625 43.5 72.890625 43.5 73.09375 
C 43.5 74.296875 42.5 75 41.703125 75 
C 41.203125 75 40.296875 75 39.5 72.796875 
L 6 -21.3125 
C 6 -21.40625 5.40625 -22.90625 5.40625 -23.109375 
C 5.40625 -24.3125 6.40625 -25 7.203125 -25 
C 7.796875 -25 8.703125 -24.90625 9.40625 -22.8125 
z
" id="CMMI12-61"/>
       <path d="M 25.90625 37.59375 
L 37.203125 37.59375 
C 34.5 26.421875 32.796875 19.140625 32.796875 11.171875 
C 32.796875 9.765625 32.796875 -1 36.90625 -1 
C 39 -1 40.796875 0.890625 40.796875 2.59375 
C 40.796875 3.09375 40.796875 3.28125 40.09375 4.78125 
C 37.40625 11.65625 37.40625 20.234375 37.40625 20.9375 
C 37.40625 21.53125 37.40625 28.625 39.5 37.59375 
L 50.703125 37.59375 
C 52 37.59375 55.296875 37.59375 55.296875 40.796875 
C 55.296875 43 53.40625 43 51.59375 43 
L 18.703125 43 
C 16.40625 43 13 43 8.40625 38.09375 
C 5.796875 35.203125 2.59375 29.921875 2.59375 29.3125 
C 2.59375 28.71875 3.09375 28.515625 3.703125 28.515625 
C 4.40625 28.515625 4.5 28.8125 5 29.421875 
C 10.203125 37.59375 15.40625 37.59375 17.90625 37.59375 
L 23.59375 37.59375 
C 21.40625 30.109375 18.90625 21.4375 10.703125 3.984375 
C 9.90625 2.390625 9.90625 2.1875 9.90625 1.59375 
C 9.90625 -0.5 11.703125 -1 12.59375 -1 
C 15.5 -1 16.296875 1.59375 17.5 5.78125 
C 19.09375 10.859375 19.09375 11.0625 20.09375 15.0625 
z
" id="CMMI12-25"/>
      </defs>
      <use transform="scale(0.996264)" xlink:href="#CMR17-8"/>
      <use transform="translate(66.509881 0)scale(0.996264)" xlink:href="#CMMI12-61"/>
      <use transform="translate(115.284799 0)scale(0.996264)" xlink:href="#CMMI12-25"/>
     </g>
    </g>
   </g>
   <g id="matplotlib.axis_2">
    <g id="ytick_1">
     <g id="line2d_19">
      <defs>
       <path d="M 0 0 
L -3.5 0 
" id="m8dd168b178" style="stroke:#000000;stroke-width:0.8;"/>
      </defs>
      <g>
       <use style="stroke:#000000;stroke-width:0.8;" x="46.287862" xlink:href="#m8dd168b178" y="146.167157"/>
      </g>
     </g>
     <g id="line2d_20">
      <defs>
       <path d="M 0 0 
L 3.5 0 
" id="mf25c39c219" style="stroke:#000000;stroke-width:0.8;"/>
      </defs>
      <g>
       <use style="stroke:#000000;stroke-width:0.8;" x="270.1" xlink:href="#mf25c39c219" y="146.167157"/>
      </g>
     </g>
     <g id="text_7">
      <!-- $\mathdefault{−0.1}$ -->
      <g transform="translate(21.16264 149.048708)scale(0.0833 -0.0833)">
       <defs>
        <path d="M 65.90625 23 
C 67.59375 23 69.40625 23 69.40625 25 
C 69.40625 27 67.59375 27 65.90625 27 
L 11.796875 27 
C 10.09375 27 8.296875 27 8.296875 25 
C 8.296875 23 10.09375 23 11.796875 23 
z
" id="CMSY10-0"/>
        <path d="M 18.40625 4.796875 
C 18.40625 7.6875 16 9.6875 13.59375 9.6875 
C 10.703125 9.6875 8.703125 7.296875 8.703125 4.890625 
C 8.703125 2 11.09375 0 13.5 0 
C 16.40625 0 18.40625 2.390625 18.40625 4.796875 
z
" id="CMMI12-58"/>
       </defs>
       <use transform="scale(0.996264)" xlink:href="#CMSY10-0"/>
       <use transform="translate(77.487468 0)scale(0.996264)" xlink:href="#CMR17-48"/>
       <use transform="translate(123.177945 0)scale(0.996264)" xlink:href="#CMMI12-58"/>
       <use transform="translate(150.275122 0)scale(0.996264)" xlink:href="#CMR17-49"/>
      </g>
     </g>
    </g>
    <g id="ytick_2">
     <g id="line2d_21">
      <g>
       <use style="stroke:#000000;stroke-width:0.8;" x="46.287862" xlink:href="#m8dd168b178" y="91.980294"/>
      </g>
     </g>
     <g id="line2d_22">
      <g>
       <use style="stroke:#000000;stroke-width:0.8;" x="270.1" xlink:href="#mf25c39c219" y="91.980294"/>
      </g>
     </g>
     <g id="text_8">
      <!-- $\mathdefault{0.0}$ -->
      <g transform="translate(28.020833 94.861845)scale(0.0833 -0.0833)">
       <use transform="scale(0.996264)" xlink:href="#CMR17-48"/>
       <use transform="translate(45.690477 0)scale(0.996264)" xlink:href="#CMMI12-58"/>
       <use transform="translate(72.787654 0)scale(0.996264)" xlink:href="#CMR17-48"/>
      </g>
     </g>
    </g>
    <g id="ytick_3">
     <g id="line2d_23">
      <g>
       <use style="stroke:#000000;stroke-width:0.8;" x="46.287862" xlink:href="#m8dd168b178" y="37.793431"/>
      </g>
     </g>
     <g id="line2d_24">
      <g>
       <use style="stroke:#000000;stroke-width:0.8;" x="270.1" xlink:href="#mf25c39c219" y="37.793431"/>
      </g>
     </g>
     <g id="text_9">
      <!-- $\mathdefault{0.1}$ -->
      <g transform="translate(28.020833 40.674982)scale(0.0833 -0.0833)">
       <use transform="scale(0.996264)" xlink:href="#CMR17-48"/>
       <use transform="translate(45.690477 0)scale(0.996264)" xlink:href="#CMMI12-58"/>
       <use transform="translate(72.787654 0)scale(0.996264)" xlink:href="#CMR17-49"/>
      </g>
     </g>
    </g>
    <g id="ytick_4">
     <g id="line2d_25">
      <defs>
       <path d="M 0 0 
L -2 0 
" id="mdc4dd86d74" style="stroke:#000000;stroke-width:0.6;"/>
      </defs>
      <g>
       <use style="stroke:#000000;stroke-width:0.6;" x="46.287862" xlink:href="#mdc4dd86d74" y="173.260589"/>
      </g>
     </g>
     <g id="line2d_26">
      <defs>
       <path d="M 0 0 
L 2 0 
" id="mf594c1eeb7" style="stroke:#000000;stroke-width:0.6;"/>
      </defs>
      <g>
       <use style="stroke:#000000;stroke-width:0.6;" x="270.1" xlink:href="#mf594c1eeb7" y="173.260589"/>
      </g>
     </g>
    </g>
    <g id="ytick_5">
     <g id="line2d_27">
      <g>
       <use style="stroke:#000000;stroke-width:0.6;" x="46.287862" xlink:href="#mdc4dd86d74" y="119.073726"/>
      </g>
     </g>
     <g id="line2d_28">
      <g>
       <use style="stroke:#000000;stroke-width:0.6;" x="270.1" xlink:href="#mf594c1eeb7" y="119.073726"/>
      </g>
     </g>
    </g>
    <g id="ytick_6">
     <g id="line2d_29">
      <g>
       <use style="stroke:#000000;stroke-width:0.6;" x="46.287862" xlink:href="#mdc4dd86d74" y="64.886863"/>
      </g>
     </g>
     <g id="line2d_30">
      <g>
       <use style="stroke:#000000;stroke-width:0.6;" x="270.1" xlink:href="#mf594c1eeb7" y="64.886863"/>
      </g>
     </g>
    </g>
    <g id="ytick_7">
     <g id="line2d_31">
      <g>
       <use style="stroke:#000000;stroke-width:0.6;" x="46.287862" xlink:href="#mdc4dd86d74" y="10.7"/>
      </g>
     </g>
     <g id="line2d_32">
      <g>
       <use style="stroke:#000000;stroke-width:0.6;" x="270.1" xlink:href="#mf594c1eeb7" y="10.7"/>
      </g>
     </g>
    </g>
    <g id="text_10">
     <!-- $J(k)$ -->
     <g transform="translate(14.67198 101.846091)rotate(-90)scale(0.1 -0.1)">
      <defs>
       <path d="M 53.40625 61.109375 
C 54.203125 64.09375 54.40625 65.09375 59.296875 65.09375 
C 60.90625 65.09375 61.90625 65.09375 61.90625 66.890625 
C 61.90625 68 61 68 60.59375 68 
C 58.90625 68 57 67.796875 55.203125 67.796875 
L 49.703125 67.796875 
C 45.5 67.796875 41.09375 68 36.90625 68 
C 36 68 34.796875 68 34.796875 66.1875 
C 34.796875 65.1875 35.59375 65.1875 35.59375 65.09375 
L 38.09375 65.09375 
C 46.09375 65.09375 46.09375 64.296875 46.09375 62.796875 
C 46.09375 62.703125 46.09375 62 45.703125 60.40625 
L 34.203125 14.890625 
C 31.59375 4.75 24.90625 0 20.09375 0 
C 16.703125 0 11.90625 1.546875 10.703125 6.6875 
C 11.09375 6.59375 11.59375 6.484375 12 6.484375 
C 15.296875 6.484375 17.90625 9.390625 17.90625 12.296875 
C 17.90625 13.890625 16.90625 16 13.90625 16 
C 12.09375 16 7.90625 14.984375 7.90625 8.484375 
C 7.90625 2.328125 13.09375 -2 20.296875 -2 
C 29.40625 -2 39.203125 4.75 41.59375 14.1875 
z
" id="CMMI12-74"/>
       <path d="M 30.59375 -24.40625 
C 30.59375 -24.3125 30.59375 -24.109375 30.296875 -23.8125 
C 25.703125 -19.109375 13.40625 -6.296875 13.40625 24.9375 
C 13.40625 56.171875 25.5 68.875 30.40625 73.890625 
C 30.40625 73.984375 30.59375 74.1875 30.59375 74.484375 
C 30.59375 74.796875 30.296875 75 29.90625 75 
C 28.796875 75 20.296875 67.578125 15.40625 56.5625 
C 10.40625 45.453125 9 34.65625 9 25.046875 
C 9 17.828125 9.703125 5.625 15.703125 -7.296875 
C 20.5 -17.703125 28.703125 -25 29.90625 -25 
C 30.40625 -25 30.59375 -24.8125 30.59375 -24.40625 
z
" id="CMR17-40"/>
       <path d="M 28.09375 66.484375 
C 28.203125 66.890625 28.40625 67.484375 28.40625 67.984375 
C 28.40625 69 27.40625 69 27.203125 69 
C 27.09375 69 23.5 68.6875 21.703125 68.484375 
C 20 68.390625 18.5 68.1875 16.703125 68.09375 
C 14.296875 67.890625 13.59375 67.796875 13.59375 65.984375 
C 13.59375 64.984375 14.59375 64.984375 15.59375 64.984375 
C 20.703125 64.984375 20.703125 64.109375 20.703125 63.125 
C 20.703125 62.71875 20.703125 62.53125 20.203125 60.75 
L 5.90625 3.90625 
C 5.5 2.390625 5.5 2.203125 5.5 1.59375 
C 5.5 -0.609375 7.203125 -1 8.203125 -1 
C 11 -1 11.59375 1.1875 12.40625 4.296875 
L 17.09375 23.0625 
C 24.296875 22.265625 28.59375 19.25 28.59375 14.4375 
C 28.59375 13.828125 28.59375 13.4375 28.296875 11.921875 
C 27.90625 10.421875 27.90625 9.21875 27.90625 8.71875 
C 27.90625 2.890625 31.703125 -1 36.796875 -1 
C 41.40625 -1 43.796875 3.203125 44.59375 4.609375 
C 46.703125 8.3125 48 13.9375 48 14.328125 
C 48 14.828125 47.59375 15.234375 47 15.234375 
C 46.09375 15.234375 46 14.828125 45.59375 13.234375 
C 44.203125 8.015625 42.09375 1 37 1 
C 35 1 33.703125 2 33.703125 5.8125 
C 33.703125 7.71875 34.09375 9.921875 34.5 11.421875 
C 34.90625 13.234375 34.90625 13.328125 34.90625 14.53125 
C 34.90625 20.453125 29.59375 23.765625 20.40625 24.96875 
C 24 27.171875 27.59375 31.078125 29 32.59375 
C 34.703125 38.984375 38.59375 41.984375 43.203125 41.984375 
C 45.5 41.984375 46.09375 41.484375 46.796875 41 
C 43.09375 40.59375 41.703125 37.984375 41.703125 35.984375 
C 41.703125 33.59375 43.59375 32.796875 45 32.796875 
C 47.703125 32.796875 50.09375 35.09375 50.09375 38.296875 
C 50.09375 41.15625 47.796875 44 43.296875 44 
C 37.796875 44 33.296875 40.296875 26.203125 32.296875 
C 25.203125 31.078125 21.5 27.28125 17.796875 25.875 
z
" id="CMMI12-107"/>
       <path d="M 26.296875 24.9375 
C 26.296875 32.140625 25.59375 44.359375 19.59375 57.265625 
C 14.796875 67.6875 6.59375 75 5.40625 75 
C 5.09375 75 4.703125 74.890625 4.703125 74.390625 
C 4.703125 74.1875 4.796875 74.09375 4.90625 73.890625 
C 9.703125 68.875 21.90625 56.171875 21.90625 25.046875 
C 21.90625 -6.1875 9.796875 -18.90625 4.90625 -23.90625 
C 4.796875 -24.109375 4.703125 -24.203125 4.703125 -24.40625 
C 4.703125 -24.90625 5.09375 -25 5.40625 -25 
C 6.5 -25 15 -17.609375 19.90625 -6.59375 
C 24.90625 4.515625 26.296875 15.328125 26.296875 24.9375 
z
" id="CMR17-41"/>
      </defs>
      <use transform="scale(0.996264)" xlink:href="#CMMI12-74"/>
      <use transform="translate(63.142671 0)scale(0.996264)" xlink:href="#CMR17-40"/>
      <use transform="translate(98.423438 0)scale(0.996264)" xlink:href="#CMMI12-107"/>
      <use transform="translate(152.502639 0)scale(0.996264)" xlink:href="#CMR17-41"/>
     </g>
    </g>
   </g>
   <g id="line2d_33">
    <path clip-path="url(#pac7cef8cea)" d="M 46.287862 91.635265 
L 47.224315 91.290253 
L 66.889816 76.922062 
L 78.127246 68.972789 
L 87.49177 62.603931 
L 95.919842 57.133363 
L 103.411462 52.522651 
L 110.903082 48.188168 
L 117.458249 44.652016 
L 124.013416 41.382433 
L 129.632131 38.812061 
L 135.250846 36.473738 
L 140.869561 34.384566 
L 146.488275 32.561905 
L 151.170538 31.259312 
L 155.8528 30.16437 
L 156.789252 29.971218 
L 157.725705 60.928564 
L 158.662157 123.032024 
L 159.59861 153.98937 
L 164.280872 152.93721 
L 168.963134 151.675316 
L 173.645397 150.214054 
L 179.264111 148.211777 
L 184.882826 145.954591 
L 190.501541 143.459684 
L 196.120256 140.74399 
L 202.675423 137.318883 
L 209.23059 133.642073 
L 216.72221 129.164754 
L 224.213829 124.430022 
L 232.641902 118.842085 
L 242.006426 112.369944 
L 253.243856 104.333932 
L 269.163548 92.670335 
L 270.1 92.325323 
L 270.1 92.325323 
" style="fill:none;stroke:#00bfbf;stroke-linecap:square;"/>
   </g>
   <g id="line2d_34">
    <path clip-path="url(#pac7cef8cea)" d="M 46.287862 91.63526 
L 47.224315 91.290244 
L 66.889816 76.921919 
L 78.127246 68.972711 
L 87.49177 62.604049 
L 95.919842 57.133802 
L 103.411462 52.523518 
L 110.903082 48.189618 
L 117.458249 44.654125 
L 124.013416 41.385358 
L 129.632131 38.815828 
L 135.250846 36.478506 
L 140.869561 34.390556 
L 146.488275 32.569673 
L 151.170538 31.274312 
L 152.10699 31.05451 
L 153.043442 40.692405 
L 153.979895 71.538341 
L 154.916347 92.591573 
L 157.725705 92.074814 
L 161.471515 91.369015 
L 162.407967 112.422248 
L 163.34442 143.268183 
L 164.280872 152.906079 
L 168.026682 151.935116 
L 172.708944 150.515011 
L 178.327659 148.558316 
L 183.946374 146.343513 
L 189.565088 143.887961 
L 195.183803 141.208672 
L 201.73897 137.82239 
L 208.294138 134.180553 
L 215.785757 129.738576 
L 223.277377 125.034349 
L 231.705449 119.475055 
L 241.069974 113.027824 
L 252.307403 105.012266 
L 269.163548 92.670345 
L 270.1 92.325328 
L 270.1 92.325328 
" style="fill:none;stroke:#bf00bf;stroke-linecap:square;stroke-width:0.1;"/>
   </g>
   <g id="line2d_35">
    <path clip-path="url(#pac7cef8cea)" d="M 46.287862 91.635248 
L 47.224315 91.29022 
L 66.889816 76.921585 
L 78.127246 68.972626 
L 87.49177 62.604592 
L 95.919842 57.135343 
L 103.411462 52.526368 
L 110.903082 48.194248 
L 117.458249 44.660756 
L 124.013416 41.394468 
L 129.632131 38.827515 
L 135.250846 36.493332 
L 140.869561 34.409756 
L 145.551823 32.884252 
L 147.424728 32.372211 
L 148.36118 36.496469 
L 149.297633 66.833926 
L 150.234085 93.24863 
L 151.170538 93.473169 
L 155.8528 92.491456 
L 165.217324 90.48742 
L 166.153777 90.711959 
L 167.090229 117.126663 
L 168.026682 147.464119 
L 168.963134 151.588377 
L 171.772492 150.78885 
L 176.454754 149.221809 
L 182.073469 147.095129 
L 187.692184 144.720948 
L 193.310898 142.116865 
L 199.866065 138.810796 
L 206.421233 135.241265 
L 212.9764 131.43422 
L 220.46802 126.825246 
L 228.896092 121.355997 
L 238.260616 114.987962 
L 248.561593 107.711505 
L 262.60838 97.495065 
L 269.163548 92.670369 
L 270.1 92.32534 
L 270.1 92.32534 
" style="fill:none;stroke:#bf00bf;stroke-linecap:square;stroke-width:0.1;"/>
   </g>
   <g id="line2d_36">
    <path clip-path="url(#pac7cef8cea)" d="M 46.287862 91.635236 
L 47.224315 91.290194 
L 66.889816 76.921352 
L 78.127246 68.972978 
L 87.49177 62.606124 
L 95.919842 57.138654 
L 103.411462 52.53196 
L 110.903082 48.202898 
L 117.458249 44.672823 
L 124.013416 41.410774 
L 129.632131 38.848307 
L 135.250846 36.520145 
L 140.869561 34.454761 
L 142.742465 33.881827 
L 143.678918 34.65549 
L 145.551823 91.714592 
L 146.488275 94.596244 
L 149.297633 94.038516 
L 169.899587 89.364344 
L 170.836039 92.245997 
L 172.708944 149.305098 
L 173.645397 150.078761 
L 176.454754 149.183501 
L 181.137016 147.440444 
L 186.755731 145.112282 
L 192.374446 142.549814 
L 198.929613 139.287765 
L 205.48478 135.757691 
L 212.039947 131.985724 
L 219.531567 127.41166 
L 227.959639 121.975307 
L 237.324164 115.636185 
L 247.625141 108.382592 
L 261.671928 98.18285 
L 269.163548 92.670394 
L 270.1 92.325353 
L 270.1 92.325353 
" style="fill:none;stroke:#bf00bf;stroke-linecap:square;stroke-width:0.1;"/>
   </g>
   <g id="line2d_37">
    <path clip-path="url(#pac7cef8cea)" d="M 46.287862 91.635233 
L 47.224315 91.29019 
L 66.889816 76.921709 
L 78.127246 68.974512 
L 87.49177 62.609597 
L 95.919842 57.14486 
L 103.411462 52.54156 
L 110.903082 48.216969 
L 117.458249 44.691844 
L 124.013416 41.435951 
L 129.632131 38.880335 
L 135.250846 36.566459 
L 138.060203 35.560571 
L 138.996656 35.617596 
L 139.933108 57.499961 
L 140.869561 87.50486 
L 141.806013 95.803168 
L 143.678918 95.494423 
L 152.10699 93.484607 
L 173.645397 88.270718 
L 174.581849 88.157421 
L 175.518302 96.455729 
L 176.454754 126.460628 
L 177.391206 148.342993 
L 178.327659 148.400017 
L 181.137016 147.394129 
L 186.755731 145.080253 
L 192.374446 142.524638 
L 198.929613 139.268745 
L 205.48478 135.743619 
L 212.039947 131.975627 
L 219.531567 127.405083 
L 227.959639 121.971581 
L 237.324164 115.634502 
L 247.625141 108.382108 
L 260.735475 98.869822 
L 269.163548 92.670399 
L 270.1 92.325355 
L 270.1 92.325355 
" style="fill:none;stroke:#bf00bf;stroke-linecap:square;stroke-width:0.1;"/>
   </g>
   <g id="line2d_38">
    <path clip-path="url(#pac7cef8cea)" d="M 46.287862 91.635257 
L 47.224315 91.290238 
L 66.889816 76.923349 
L 78.127246 68.978286 
L 87.49177 62.616358 
L 95.919842 57.155556 
L 103.411462 52.556966 
L 110.903082 48.238437 
L 117.458249 44.719924 
L 124.013416 41.472286 
L 129.632131 38.927588 
L 133.377941 37.400479 
L 134.314393 37.185901 
L 135.250846 52.893724 
L 136.187298 82.864591 
L 137.123751 97.094324 
L 138.060203 97.01438 
L 142.742465 95.931588 
L 154.916347 92.835519 
L 175.518302 87.57694 
L 178.327659 86.946208 
L 179.264111 86.866265 
L 180.200564 101.095998 
L 181.137016 131.066864 
L 182.073469 146.774687 
L 183.009921 146.560109 
L 186.755731 145.033001 
L 192.374446 142.488303 
L 197.993161 139.721838 
L 204.548328 136.240354 
L 211.103495 132.511011 
L 218.595115 127.978844 
L 226.086734 123.195221 
L 234.514807 117.559911 
L 244.815784 110.381795 
L 256.989666 101.609165 
L 269.163548 92.67035 
L 270.1 92.325331 
L 270.1 92.325331 
" style="fill:none;stroke:#bf00bf;stroke-linecap:square;stroke-width:0.1;"/>
   </g>
   <g id="line2d_39">
    <path clip-path="url(#pac7cef8cea)" d="M 46.287862 91.635329 
L 47.224315 91.290381 
L 66.889816 76.927181 
L 78.127246 68.985692 
L 87.49177 62.628184 
L 95.919842 57.172846 
L 103.411462 52.580549 
L 109.966629 48.791998 
L 116.521797 45.245163 
L 123.076964 41.967044 
L 128.695679 39.405346 
L 129.632131 39.038085 
L 130.568583 48.476603 
L 131.505036 78.289738 
L 132.441488 98.491676 
L 134.314393 98.184885 
L 141.806013 96.358211 
L 153.979895 93.130308 
L 175.518302 87.364868 
L 183.009921 85.571291 
L 183.946374 85.468912 
L 184.882826 105.67085 
L 185.819279 135.483985 
L 186.755731 144.922504 
L 189.565088 143.733138 
L 195.183803 141.086037 
L 201.73897 137.728254 
L 208.294138 134.109661 
L 215.785757 129.688863 
L 223.277377 125.000854 
L 231.705449 119.454807 
L 241.069974 113.017275 
L 252.307403 105.008215 
L 269.163548 92.670207 
L 270.1 92.32526 
L 270.1 92.32526 
" style="fill:none;stroke:#bf00bf;stroke-linecap:square;stroke-width:0.1;"/>
   </g>
   <g id="line2d_40">
    <path clip-path="url(#pac7cef8cea)" d="M 46.287862 91.635474 
L 47.224315 91.290671 
L 66.889816 76.934354 
L 78.127246 68.998494 
L 87.49177 62.647346 
L 95.919842 57.199446 
L 103.411462 52.615416 
L 109.966629 48.835562 
L 116.521797 45.298881 
L 123.076964 42.031946 
L 124.949869 41.15186 
L 125.886321 44.599769 
L 126.822774 74.1634 
L 127.759226 99.960423 
L 135.250846 98.216148 
L 144.61537 95.781374 
L 158.662157 91.847183 
L 174.581849 87.425512 
L 183.946374 85.065099 
L 188.628636 84.000166 
L 189.565088 109.797189 
L 190.501541 139.36082 
L 191.437993 142.808729 
L 197.056708 140.096417 
L 203.611875 136.672064 
L 210.167043 132.993198 
L 217.658662 128.510912 
L 225.150282 123.769327 
L 233.578354 118.17259 
L 242.942879 111.690848 
L 255.116761 102.965994 
L 269.163548 92.669917 
L 270.1 92.325115 
L 270.1 92.325115 
" style="fill:none;stroke:#bf00bf;stroke-linecap:square;stroke-width:0.1;"/>
   </g>
   <g id="line2d_41">
    <path clip-path="url(#pac7cef8cea)" d="M 46.287862 91.635725 
L 47.224315 91.291173 
L 66.889816 76.9463 
L 78.127246 69.018917 
L 87.49177 62.676758 
L 95.919842 57.238972 
L 103.411462 52.666017 
L 109.966629 48.898167 
L 116.521797 45.380188 
L 120.267606 43.561748 
L 121.204059 44.484261 
L 123.076964 98.807128 
L 124.013416 100.955656 
L 126.822774 100.43348 
L 133.377941 98.900791 
L 141.806013 96.691205 
L 153.043442 93.491408 
L 176.454754 86.760156 
L 184.882826 84.601877 
L 191.437993 83.144315 
L 192.374446 83.004933 
L 193.310898 85.153461 
L 195.183803 139.476327 
L 196.120256 140.398841 
L 198.929613 139.058916 
L 204.548328 136.09476 
L 211.103495 132.394654 
L 218.595115 127.889518 
L 226.086734 123.127759 
L 234.514807 117.512014 
L 243.879331 111.014181 
L 256.053213 102.277077 
L 269.163548 92.669415 
L 270.1 92.324864 
L 270.1 92.324864 
" style="fill:none;stroke:#bf00bf;stroke-linecap:square;stroke-width:0.1;"/>
   </g>
   <g id="line2d_42">
    <path clip-path="url(#pac7cef8cea)" d="M 46.287862 91.636122 
L 47.224315 91.291968 
L 66.889816 76.964823 
L 78.127246 69.049837 
L 87.49177 62.720383 
L 95.919842 57.296899 
L 103.411462 52.741074 
L 109.966629 49.002328 
L 113.712439 47.034039 
L 114.648892 46.611862 
L 115.585344 46.356536 
L 116.521797 48.148644 
L 117.458249 70.061986 
L 118.394701 95.790965 
L 119.331154 101.670255 
L 120.267606 101.86139 
L 122.140511 101.629838 
L 126.822774 100.672586 
L 133.377941 99.096763 
L 141.806013 96.825481 
L 153.043442 93.534592 
L 175.518302 86.872138 
L 183.946374 84.626824 
L 190.501541 83.081213 
L 195.183803 82.184116 
L 196.120256 82.099199 
L 197.056708 82.290333 
L 197.993161 88.169624 
L 198.929613 113.898603 
L 199.866065 135.811945 
L 200.802518 137.604053 
L 201.73897 137.348727 
L 204.548328 135.969398 
L 210.167043 132.853647 
L 216.72221 128.975694 
L 224.213829 124.288996 
L 232.641902 118.742816 
L 242.006426 112.30566 
L 253.243856 104.300317 
L 269.163548 92.668621 
L 270.1 92.324467 
L 270.1 92.324467 
" style="fill:none;stroke:#bf00bf;stroke-linecap:square;stroke-width:0.1;"/>
   </g>
   <g id="line2d_43">
    <path clip-path="url(#pac7cef8cea)" d="M 46.287862 91.636717 
L 47.224315 91.293158 
L 66.889816 76.992292 
L 78.127246 69.095261 
L 87.49177 62.784437 
L 95.919842 57.38443 
L 102.47501 53.418362 
L 107.157272 50.788223 
L 109.030177 49.89026 
L 109.966629 49.592723 
L 110.903082 49.746468 
L 111.839534 53.230634 
L 112.775987 72.039049 
L 113.712439 94.251198 
L 114.648892 101.633079 
L 115.585344 102.518351 
L 116.521797 102.656177 
L 118.394701 102.513298 
L 122.140511 101.870977 
L 127.759226 100.65165 
L 134.314393 99.012318 
L 142.742465 96.665094 
L 153.979895 93.282169 
L 175.518302 86.75543 
L 183.946374 84.460384 
L 190.501541 82.879841 
L 196.120256 81.740571 
L 198.929613 81.342814 
L 199.866065 81.304412 
L 200.802518 81.442238 
L 201.73897 82.327509 
L 202.675423 89.70939 
L 203.611875 111.92154 
L 204.548328 130.729954 
L 205.48478 134.214121 
L 206.421233 134.367865 
L 207.357685 134.070328 
L 209.23059 133.172365 
L 213.912852 130.542227 
L 220.46802 126.576158 
L 227.959639 121.790479 
L 236.387711 116.149972 
L 246.688688 108.969254 
L 259.799023 99.522781 
L 269.163548 92.66743 
L 270.1 92.323871 
L 270.1 92.323871 
" style="fill:none;stroke:#bf00bf;stroke-linecap:square;stroke-width:0.1;"/>
   </g>
   <g id="line2d_44">
    <path clip-path="url(#pac7cef8cea)" d="M 46.287862 91.637581 
L 47.224315 91.294885 
L 66.889816 77.032122 
L 78.127246 69.161686 
L 87.49177 62.881696 
L 94.98339 58.113714 
L 100.602105 54.792161 
L 102.47501 53.817846 
L 103.411462 53.408447 
L 104.347915 53.123797 
L 105.284367 53.153324 
L 106.220819 54.255451 
L 107.157272 60.344452 
L 109.030177 94.467164 
L 109.966629 101.165636 
L 110.903082 102.729799 
L 111.839534 103.184476 
L 112.775987 103.315217 
L 114.648892 103.254766 
L 117.458249 102.894921 
L 122.140511 102.042474 
L 127.759226 100.797756 
L 134.314393 99.132063 
L 142.742465 96.745853 
L 153.979895 93.304778 
L 175.518302 86.665558 
L 183.946374 84.332768 
L 190.501541 82.726456 
L 196.120256 81.551897 
L 200.802518 80.804378 
L 202.675423 80.643798 
L 203.611875 80.645372 
L 204.548328 80.776112 
L 205.48478 81.23079 
L 206.421233 82.794952 
L 207.357685 89.493425 
L 209.23059 123.616136 
L 210.167043 129.705137 
L 211.103495 130.807265 
L 212.039947 130.836791 
L 212.9764 130.552141 
L 214.849305 129.672668 
L 218.595115 127.550041 
L 225.150282 123.497086 
L 232.641902 118.603546 
L 242.006426 112.209794 
L 253.243856 104.246128 
L 269.163548 92.665703 
L 270.1 92.323008 
L 270.1 92.323008 
" style="fill:none;stroke:#bf00bf;stroke-linecap:square;stroke-width:0.1;"/>
   </g>
   <g id="line2d_45">
    <path clip-path="url(#pac7cef8cea)" d="M 46.287862 91.63882 
L 47.224315 91.297365 
L 66.889816 77.090097 
L 77.190793 69.901849 
L 85.618865 64.262443 
L 92.174033 60.128088 
L 95.919842 58.015522 
L 97.792747 57.203341 
L 98.7292 56.982606 
L 99.665652 57.072317 
L 100.602105 57.940063 
L 101.538557 61.110194 
L 102.47501 70.156603 
L 103.411462 84.539146 
L 104.347915 95.974842 
L 105.284367 100.890888 
L 106.220819 102.658635 
L 107.157272 103.372983 
L 108.093724 103.686324 
L 109.966629 103.851833 
L 112.775987 103.68619 
L 116.521797 103.187297 
L 121.204059 102.343993 
L 126.822774 101.11774 
L 133.377941 99.464616 
L 141.806013 97.079278 
L 152.10699 93.912478 
L 176.454754 86.330951 
L 184.882826 84.002693 
L 191.437993 82.412028 
L 197.056708 81.256556 
L 201.73897 80.498014 
L 205.48478 80.130791 
L 207.357685 80.143471 
L 208.294138 80.274265 
L 209.23059 80.587605 
L 210.167043 81.301953 
L 211.103495 83.069701 
L 212.039947 87.985746 
L 212.9764 99.421443 
L 213.912852 113.803985 
L 214.849305 122.850395 
L 215.785757 126.020525 
L 216.72221 126.888271 
L 217.658662 126.977983 
L 218.595115 126.757248 
L 220.46802 125.945066 
L 223.277377 124.389694 
L 227.959639 121.507627 
L 235.451259 116.598226 
L 244.815784 110.170178 
L 256.989666 101.506934 
L 269.163548 92.663224 
L 270.1 92.321768 
L 270.1 92.321768 
" style="fill:none;stroke:#bf00bf;stroke-linecap:square;stroke-width:0.1;"/>
   </g>
   <g id="line2d_46">
    <path clip-path="url(#pac7cef8cea)" d="M 46.287862 91.640635 
L 47.224315 91.300995 
L 65.953364 77.839085 
L 76.254341 70.698341 
L 83.74596 65.76757 
L 87.49177 63.491253 
L 90.301128 62.024342 
L 92.174033 61.381202 
L 93.110485 61.317001 
L 94.046938 61.636483 
L 94.98339 62.76038 
L 95.919842 65.662446 
L 96.856295 71.9871 
L 98.7292 91.675968 
L 99.665652 97.925924 
L 100.602105 101.036178 
L 101.538557 102.551178 
L 102.47501 103.33754 
L 103.411462 103.769346 
L 105.284367 104.142738 
L 107.157272 104.217417 
L 109.966629 104.083765 
L 113.712439 103.670947 
L 118.394701 102.928867 
L 124.013416 101.802848 
L 130.568583 100.239617 
L 138.060203 98.201984 
L 147.424728 95.394424 
L 166.153777 89.445294 
L 177.391206 86.028316 
L 184.882826 83.96257 
L 191.437993 82.366087 
L 197.056708 81.203342 
L 201.73897 80.420893 
L 206.421233 79.876824 
L 209.23059 79.743171 
L 211.103495 79.81785 
L 212.9764 80.191242 
L 213.912852 80.623049 
L 214.849305 81.409411 
L 215.785757 82.92441 
L 216.72221 86.034665 
L 217.658662 92.284621 
L 219.531567 111.973489 
L 220.46802 118.298142 
L 221.404472 121.200208 
L 222.340925 122.324106 
L 223.277377 122.643587 
L 224.213829 122.579386 
L 226.086734 121.936246 
L 228.896092 120.469335 
L 232.641902 118.193018 
L 239.197069 113.894594 
L 248.561593 107.440436 
L 260.735475 98.760169 
L 269.163548 92.659594 
L 270.1 92.319954 
L 270.1 92.319954 
" style="fill:none;stroke:#bf00bf;stroke-linecap:square;stroke-width:0.1;"/>
   </g>
   <g id="line2d_47">
    <path clip-path="url(#pac7cef8cea)" d="M 46.287862 91.643496 
L 47.224315 91.30672 
L 65.016911 78.636598 
L 73.444983 72.877022 
L 79.063698 69.289165 
L 81.873056 67.695948 
L 83.74596 66.818205 
L 84.682413 66.486347 
L 85.618865 66.275806 
L 86.555318 66.25834 
L 87.49177 66.56285 
L 88.428223 67.426886 
L 89.364675 69.277034 
L 90.301128 72.75323 
L 91.23758 78.318332 
L 93.110485 91.863722 
L 94.046938 96.63786 
L 94.98339 99.623027 
L 95.919842 101.412094 
L 96.856295 102.503518 
L 97.792747 103.193075 
L 98.7292 103.642832 
L 100.602105 104.142485 
L 102.47501 104.355728 
L 105.284367 104.405253 
L 109.030177 104.194293 
L 113.712439 103.659218 
L 118.394701 102.908495 
L 124.013416 101.784619 
L 130.568583 100.226605 
L 138.060203 98.194117 
L 147.424728 95.390988 
L 165.217324 89.742947 
L 176.454754 86.307681 
L 184.882826 83.974861 
L 191.437993 82.383607 
L 197.056708 81.223813 
L 202.675423 80.30137 
L 207.357685 79.766296 
L 211.103495 79.555336 
L 213.912852 79.604861 
L 215.785757 79.818103 
L 217.658662 80.317756 
L 218.595115 80.767514 
L 219.531567 81.457071 
L 220.46802 82.548494 
L 221.404472 84.337562 
L 222.340925 87.322729 
L 223.277377 92.096866 
L 226.086734 111.207359 
L 227.023187 114.683555 
L 227.959639 116.533703 
L 228.896092 117.397738 
L 229.832544 117.702248 
L 230.768997 117.684782 
L 231.705449 117.474241 
L 233.578354 116.730802 
L 236.387711 115.226328 
L 240.133521 112.919177 
L 246.688688 108.558824 
L 256.053213 102.03151 
L 269.163548 92.653869 
L 270.1 92.317093 
L 270.1 92.317093 
" style="fill:none;stroke:#bf00bf;stroke-linecap:square;stroke-width:0.1;"/>
   </g>
   <g id="line2d_48">
    <path clip-path="url(#pac7cef8cea)" d="M 46.287862 91.648926 
L 47.224315 91.317592 
L 62.207554 80.842841 
L 68.762721 76.510753 
L 72.508531 74.259084 
L 75.317888 72.840141 
L 77.190793 72.176342 
L 78.127246 72.000694 
L 79.063698 71.991213 
L 80.000151 72.225996 
L 80.936603 72.824098 
L 81.873056 73.958959 
L 82.809508 75.85228 
L 83.74596 78.701078 
L 84.682413 82.497316 
L 86.555318 91.093287 
L 87.49177 94.667164 
L 88.428223 97.382938 
L 89.364675 99.338186 
L 90.301128 100.723884 
L 91.23758 101.71226 
L 92.174033 102.428632 
L 93.110485 102.957341 
L 94.98339 103.654894 
L 96.856295 104.060491 
L 99.665652 104.361791 
L 102.47501 104.439632 
L 106.220819 104.318812 
L 110.903082 103.908857 
L 115.585344 103.275851 
L 121.204059 102.277344 
L 126.822774 101.063322 
L 133.377941 99.426661 
L 140.869561 97.332983 
L 151.170538 94.199478 
L 177.391206 86.085807 
L 184.882826 84.045133 
L 191.437993 82.471182 
L 197.056708 81.324338 
L 202.675423 80.407713 
L 207.357685 79.858037 
L 212.039947 79.554391 
L 215.785757 79.552932 
L 218.595115 79.767187 
L 220.46802 80.075727 
L 222.340925 80.606701 
L 223.277377 81.003248 
L 224.213829 81.531957 
L 225.150282 82.248329 
L 226.086734 83.236704 
L 227.023187 84.622403 
L 227.959639 86.577651 
L 228.896092 89.293425 
L 229.832544 92.867302 
L 232.641902 105.259511 
L 233.578354 108.108309 
L 234.514807 110.001629 
L 235.451259 111.136491 
L 236.387711 111.734593 
L 237.324164 111.969376 
L 238.260616 111.959895 
L 239.197069 111.784246 
L 241.069974 111.120447 
L 243.879331 109.701505 
L 247.625141 107.449836 
L 253.243856 103.753442 
L 262.60838 97.269998 
L 269.163548 92.642997 
L 270.1 92.311663 
L 270.1 92.311663 
" style="fill:none;stroke:#bf00bf;stroke-linecap:square;stroke-width:0.1;"/>
   </g>
   <g id="line2d_49">
    <path clip-path="url(#pac7cef8cea)" d="M 46.287862 91.664237 
L 47.224315 91.348285 
L 56.588839 85.132837 
L 61.271101 82.250048 
L 64.080459 80.715058 
L 65.953364 79.847062 
L 67.826269 79.18942 
L 69.699174 78.878523 
L 70.635626 78.922098 
L 71.572078 79.152533 
L 72.508531 79.623058 
L 73.444983 80.394207 
L 74.381436 81.524154 
L 75.317888 83.049011 
L 76.254341 84.955084 
L 80.936603 95.771004 
L 81.873056 97.318187 
L 82.809508 98.588456 
L 83.74596 99.621677 
L 84.682413 100.461222 
L 86.555318 101.70854 
L 88.428223 102.561318 
L 90.301128 103.159361 
L 93.110485 103.747949 
L 95.919842 104.090098 
L 99.665652 104.284937 
L 103.411462 104.257506 
L 108.093724 103.977661 
L 112.775987 103.471723 
L 118.394701 102.613813 
L 124.013416 101.52501 
L 130.568583 100.014426 
L 138.060203 98.038839 
L 147.424728 95.307841 
L 165.217324 89.797177 
L 176.454754 86.448573 
L 184.882826 84.18002 
L 191.437993 82.636709 
L 197.056708 81.513316 
L 202.675423 80.614002 
L 207.357685 80.067283 
L 212.039947 79.738872 
L 215.785757 79.663895 
L 219.531567 79.797253 
L 222.340925 80.07586 
L 225.150282 80.570691 
L 227.023187 81.074525 
L 228.896092 81.786817 
L 230.768997 82.814461 
L 231.705449 83.499367 
L 232.641902 84.338912 
L 233.578354 85.372133 
L 234.514807 86.642402 
L 235.451259 88.189584 
L 236.387711 90.03405 
L 238.260616 94.460026 
L 240.133521 99.005505 
L 241.069974 100.911578 
L 242.006426 102.436434 
L 242.942879 103.566382 
L 243.879331 104.337531 
L 244.815784 104.808055 
L 245.752236 105.038491 
L 246.688688 105.082065 
L 248.561593 104.771168 
L 250.434498 104.113527 
L 253.243856 102.758491 
L 256.989666 100.59184 
L 262.60838 96.998844 
L 269.163548 92.612303 
L 270.1 92.296351 
L 270.1 92.296351 
" style="fill:none;stroke:#bf00bf;stroke-linecap:square;stroke-width:0.1;"/>
   </g>
   <g id="line2d_50">
    <path clip-path="url(#pac7cef8cea)" d="M 46.287862 91.746275 
L 47.224315 91.512988 
L 51.906577 89.284327 
L 54.715934 88.168035 
L 56.588839 87.601545 
L 58.461744 87.247417 
L 60.334649 87.183022 
L 62.207554 87.494254 
L 63.144006 87.814785 
L 65.016911 88.808923 
L 66.889816 90.241124 
L 69.699174 92.903907 
L 72.508531 95.596362 
L 74.381436 97.16898 
L 76.254341 98.507058 
L 78.127246 99.620381 
L 80.000151 100.538824 
L 82.809508 101.621912 
L 85.618865 102.431189 
L 88.428223 103.030668 
L 92.174033 103.574538 
L 95.919842 103.882372 
L 99.665652 103.993087 
L 104.347915 103.893375 
L 109.030177 103.562935 
L 113.712439 103.03051 
L 119.331154 102.159395 
L 124.949869 101.070854 
L 131.505036 99.573053 
L 138.996656 97.625186 
L 148.36118 94.945187 
L 180.200564 85.579884 
L 187.692184 83.718708 
L 194.247351 82.320545 
L 199.866065 81.336156 
L 205.48478 80.587829 
L 210.167043 80.173437 
L 214.849305 79.97759 
L 219.531567 80.033237 
L 223.277377 80.288785 
L 227.023187 80.768936 
L 229.832544 81.308719 
L 232.641902 82.042193 
L 235.451259 83.02523 
L 237.324164 83.85873 
L 239.197069 84.870432 
L 241.069974 86.093105 
L 242.942879 87.549503 
L 245.752236 90.132313 
L 249.498046 93.719465 
L 251.370951 95.151665 
L 253.243856 96.145804 
L 255.116761 96.67413 
L 256.989666 96.786921 
L 258.86257 96.567153 
L 260.735475 96.098098 
L 263.544833 95.075716 
L 267.290643 93.370337 
L 269.163548 92.4476 
L 270.1 92.214313 
L 270.1 92.214313 
" style="fill:none;stroke:#bf00bf;stroke-linecap:square;stroke-width:0.1;"/>
   </g>
   <g id="line2d_51">
    <path clip-path="url(#pac7cef8cea)" d="M 46.287862 92.014358 
L 49.097219 92.200591 
L 52.843029 92.642184 
L 55.652387 93.167501 
L 58.461744 93.888248 
L 62.207554 95.115628 
L 77.190793 100.464643 
L 80.936603 101.442122 
L 84.682413 102.22189 
L 88.428223 102.809987 
L 93.110485 103.291051 
L 97.792747 103.510419 
L 102.47501 103.490171 
L 107.157272 103.251814 
L 111.839534 102.816239 
L 117.458249 102.061829 
L 123.076964 101.086871 
L 129.632131 99.714807 
L 137.123751 97.899405 
L 146.488275 95.365649 
L 161.471515 91.021291 
L 174.581849 87.298836 
L 183.009921 85.124742 
L 190.501541 83.433509 
L 197.056708 82.200898 
L 202.675423 81.369227 
L 208.294138 80.780771 
L 212.9764 80.501317 
L 217.658662 80.435748 
L 222.340925 80.605441 
L 227.023187 81.032384 
L 230.768997 81.574061 
L 234.514807 82.305112 
L 238.260616 83.233015 
L 242.006426 84.356789 
L 246.688688 86.002878 
L 256.989666 89.790797 
L 259.799023 90.574463 
L 262.60838 91.164455 
L 266.35419 91.671217 
L 270.1 91.94623 
L 270.1 91.94623 
" style="fill:none;stroke:#bf00bf;stroke-linecap:square;stroke-width:0.1;"/>
   </g>
   <g id="line2d_52">
    <path clip-path="url(#pac7cef8cea)" d="M 46.287862 92.102041 
L 47.224315 92.223909 
L 57.525292 95.014298 
L 74.381436 99.745499 
L 80.000151 100.989247 
L 84.682413 101.799775 
L 89.364675 102.38765 
L 94.046938 102.750029 
L 98.7292 102.892351 
L 103.411462 102.825299 
L 108.093724 102.562783 
L 113.712439 102.012104 
L 119.331154 101.23202 
L 125.886321 100.072159 
L 132.441488 98.68893 
L 140.869561 96.658077 
L 151.170538 93.922503 
L 177.391206 86.83108 
L 185.819279 84.856427 
L 192.374446 83.532162 
L 198.929613 82.444902 
L 204.548328 81.737964 
L 210.167043 81.270325 
L 214.849305 81.08418 
L 219.531567 81.099353 
L 224.213829 81.328655 
L 228.896092 81.780963 
L 233.578354 82.458834 
L 238.260616 83.354989 
L 243.879331 84.686621 
L 250.434498 86.495748 
L 266.35419 91.001103 
L 269.163548 91.73668 
L 270.1 91.858548 
L 270.1 91.858548 
" style="fill:none;stroke:#bf00bf;stroke-linecap:square;stroke-width:0.1;"/>
   </g>
   <g id="line2d_53">
    <path clip-path="url(#pac7cef8cea)" d="M 46.287862 92.110903 
L 47.224315 92.241508 
L 65.953364 97.352418 
L 72.508531 98.926421 
L 78.127246 100.073174 
L 83.74596 100.981927 
L 88.428223 101.535477 
L 93.110485 101.895237 
L 97.792747 102.060811 
L 102.47501 102.037378 
L 108.093724 101.772978 
L 113.712439 101.270951 
L 119.331154 100.555919 
L 125.886321 99.487938 
L 133.377941 98.012397 
L 141.806013 96.105151 
L 153.043442 93.30749 
L 175.518302 87.633284 
L 183.946374 85.750958 
L 191.437993 84.306184 
L 197.993161 83.271816 
L 203.611875 82.590479 
L 209.23059 82.126418 
L 214.849305 81.903799 
L 219.531567 81.917539 
L 224.213829 82.121691 
L 228.896092 82.520447 
L 233.578354 83.112102 
L 239.197069 84.063091 
L 244.815784 85.245307 
L 251.370951 86.848605 
L 261.671928 89.633074 
L 269.163548 91.719081 
L 270.1 91.849685 
L 270.1 91.849685 
" style="fill:none;stroke:#ff0000;stroke-linecap:square;stroke-width:0.1;"/>
   </g>
   <g id="line2d_54">
    <path clip-path="url(#pac7cef8cea)" d="M 46.287862 92.102411 
L 47.224315 92.224497 
L 62.207554 96.019731 
L 69.699174 97.705978 
L 76.254341 98.962463 
L 81.873056 99.828724 
L 87.49177 100.471378 
L 93.110485 100.875054 
L 98.7292 101.035699 
L 104.347915 100.95879 
L 109.966629 100.657096 
L 115.585344 100.148537 
L 122.140511 99.322299 
L 128.695679 98.280727 
L 136.187298 96.876685 
L 145.551823 94.887519 
L 160.535062 91.433627 
L 175.518302 88.052206 
L 183.946374 86.356768 
L 191.437993 85.060557 
L 197.993161 84.137343 
L 204.548328 83.451025 
L 210.167043 83.078185 
L 215.785757 82.924633 
L 221.404472 83.005078 
L 227.023187 83.327679 
L 232.641902 83.891797 
L 238.260616 84.685968 
L 243.879331 85.686912 
L 250.434498 87.0701 
L 258.86257 89.087721 
L 270.1 91.858177 
L 270.1 91.858177 
" style="fill:none;stroke:#ff0000;stroke-linecap:square;stroke-width:0.1;"/>
   </g>
   <g id="line2d_55">
    <path clip-path="url(#pac7cef8cea)" d="M 46.287862 92.086238 
L 48.160767 92.403861 
L 62.207554 95.465879 
L 70.635626 97.066812 
L 77.190793 98.103245 
L 83.74596 98.909407 
L 89.364675 99.393808 
L 94.98339 99.676328 
L 100.602105 99.754759 
L 106.220819 99.633969 
L 112.775987 99.255637 
L 119.331154 98.64476 
L 126.822774 97.699585 
L 135.250846 96.379585 
L 144.61537 94.679687 
L 159.59861 91.69577 
L 175.518302 88.577569 
L 184.882826 86.965069 
L 192.374446 85.878464 
L 199.866065 85.027335 
L 206.421233 84.512786 
L 212.9764 84.241867 
L 218.595115 84.219687 
L 224.213829 84.399967 
L 229.832544 84.784192 
L 235.451259 85.366212 
L 242.006426 86.275589 
L 249.498046 87.573295 
L 257.926118 89.277562 
L 270.1 91.87435 
L 270.1 91.87435 
" style="fill:none;stroke:#ff0000;stroke-linecap:square;stroke-width:0.1;"/>
   </g>
   <g id="line2d_56">
    <path clip-path="url(#pac7cef8cea)" d="M 46.287862 92.064417 
L 48.160767 92.316608 
L 63.144006 94.894427 
L 71.572078 96.137996 
L 79.063698 97.036084 
L 85.618865 97.624346 
L 92.174033 98.006238 
L 98.7292 98.171455 
L 105.284367 98.11991 
L 111.839534 97.860508 
L 119.331154 97.330433 
L 126.822774 96.582336 
L 135.250846 95.527604 
L 145.551823 94.015429 
L 165.217324 90.836161 
L 178.327659 88.82507 
L 187.692184 87.594975 
L 196.120256 86.712481 
L 203.611875 86.153242 
L 210.167043 85.865317 
L 216.72221 85.783344 
L 223.277377 85.917373 
L 229.832544 86.268697 
L 236.387711 86.828508 
L 243.879331 87.698496 
L 252.307403 88.918031 
L 262.60838 90.644412 
L 270.1 91.896172 
L 270.1 91.896172 
" style="fill:none;stroke:#ff0000;stroke-linecap:square;stroke-width:0.1;"/>
   </g>
   <g id="line2d_57">
    <path clip-path="url(#pac7cef8cea)" d="M 46.287862 92.037352 
L 48.160767 92.208411 
L 65.016911 94.159367 
L 75.317888 95.136403 
L 84.682413 95.789447 
L 93.110485 96.142952 
L 101.538557 96.254453 
L 109.966629 96.122415 
L 118.394701 95.761183 
L 127.759226 95.12415 
L 138.060203 94.194868 
L 152.10699 92.678952 
L 180.200564 89.582169 
L 190.501541 88.691314 
L 199.866065 88.100542 
L 208.294138 87.788297 
L 216.72221 87.709655 
L 225.150282 87.875673 
L 233.578354 88.280995 
L 242.006426 88.902912 
L 252.307403 89.900652 
L 266.35419 91.524682 
L 270.1 91.923236 
L 270.1 91.923236 
" style="fill:none;stroke:#ff0000;stroke-linecap:square;stroke-width:0.1;"/>
   </g>
   <g id="line2d_58">
    <path clip-path="url(#pac7cef8cea)" d="M 46.287862 92.005437 
L 50.970124 92.231098 
L 73.444983 93.318026 
L 87.49177 93.771686 
L 99.665652 93.94444 
L 111.839534 93.8842 
L 124.013416 93.59803 
L 138.060203 93.036584 
L 158.662157 91.954413 
L 183.009921 90.714042 
L 197.056708 90.227541 
L 209.23059 90.025366 
L 221.404472 90.055729 
L 233.578354 90.312897 
L 247.625141 90.841609 
L 267.290643 91.829578 
L 270.1 91.955152 
L 270.1 91.955152 
" style="fill:none;stroke:#ff0000;stroke-linecap:square;stroke-width:0.1;"/>
   </g>
   <g id="line2d_59">
    <path clip-path="url(#pac7cef8cea)" d="M 46.287862 91.970676 
L 58.461744 91.737194 
L 81.873056 91.405045 
L 102.47501 91.346565 
L 125.886321 91.51921 
L 163.34442 92.060904 
L 201.73897 92.55012 
L 224.213829 92.613266 
L 244.815784 92.440362 
L 270.1 91.989912 
L 270.1 91.989912 
" style="fill:none;stroke:#ff0000;stroke-linecap:square;stroke-width:0.1;"/>
   </g>
   <g id="line2d_60">
    <path clip-path="url(#pac7cef8cea)" d="M 46.287862 91.937813 
L 49.097219 91.725683 
L 67.826269 90.14309 
L 79.063698 89.408697 
L 89.364675 88.957028 
L 98.7292 88.763621 
L 108.093724 88.791214 
L 117.458249 89.037957 
L 127.759226 89.541896 
L 138.996656 90.320828 
L 153.979895 91.598641 
L 179.264111 93.783291 
L 190.501541 94.526863 
L 200.802518 94.988912 
L 210.167043 95.192705 
L 219.531567 95.175755 
L 228.896092 94.939272 
L 239.197069 94.445431 
L 250.434498 93.675218 
L 265.417738 92.403865 
L 270.1 92.022776 
L 270.1 92.022776 
" style="fill:none;stroke:#ff0000;stroke-linecap:square;stroke-width:0.1;"/>
   </g>
   <g id="line2d_61">
    <path clip-path="url(#pac7cef8cea)" d="M 46.287862 91.910461 
L 48.160767 91.701089 
L 65.016911 89.300889 
L 75.317888 88.069712 
L 83.74596 87.281612 
L 91.23758 86.786995 
L 98.7292 86.512608 
L 106.220819 86.47551 
L 113.712439 86.683132 
L 121.204059 87.131959 
L 128.695679 87.80664 
L 137.123751 88.801044 
L 146.488275 90.131329 
L 163.34442 92.807268 
L 176.454754 94.781561 
L 185.819279 95.952941 
L 193.310898 96.680267 
L 200.802518 97.18747 
L 208.294138 97.456174 
L 215.785757 97.479967 
L 223.277377 97.263654 
L 230.768997 96.822026 
L 239.197069 96.085137 
L 248.561593 95.019862 
L 259.799023 93.497514 
L 270.1 92.050128 
L 270.1 92.050128 
" style="fill:none;stroke:#ff0000;stroke-linecap:square;stroke-width:0.1;"/>
   </g>
   <g id="line2d_62">
    <path clip-path="url(#pac7cef8cea)" d="M 46.287862 91.888315 
L 48.160767 91.612536 
L 63.144006 88.770599 
L 72.508531 87.209261 
L 80.000151 86.159583 
L 87.49177 85.337251 
L 94.046938 84.836401 
L 100.602105 84.563649 
L 107.157272 84.53608 
L 113.712439 84.763674 
L 120.267606 85.247799 
L 126.822774 85.979841 
L 133.377941 86.940206 
L 140.869561 88.277167 
L 150.234085 90.212583 
L 177.391206 96.03863 
L 184.882826 97.316478 
L 191.437993 98.21427 
L 197.993161 98.876984 
L 204.548328 99.288234 
L 211.103495 99.442381 
L 217.658662 99.343402 
L 224.213829 99.003462 
L 230.768997 98.441405 
L 238.260616 97.558177 
L 246.688688 96.308348 
L 256.053213 94.68079 
L 270.1 92.072273 
L 270.1 92.072273 
" style="fill:none;stroke:#ff0000;stroke-linecap:square;stroke-width:0.1;"/>
   </g>
   <g id="line2d_63">
    <path clip-path="url(#pac7cef8cea)" d="M 46.287862 91.870003 
L 48.160767 91.539308 
L 63.144006 88.124533 
L 71.572078 86.410484 
L 79.063698 85.097564 
L 85.618865 84.157389 
L 92.174033 83.448672 
L 97.792747 83.049395 
L 103.411462 82.860282 
L 109.030177 82.894625 
L 114.648892 83.161042 
L 120.267606 83.662358 
L 125.886321 84.394474 
L 131.505036 85.345391 
L 138.060203 86.703423 
L 145.551823 88.52375 
L 154.916347 91.060811 
L 171.772492 95.677199 
L 179.264111 97.466037 
L 185.819279 98.788114 
L 191.437993 99.703756 
L 197.056708 100.398015 
L 202.675423 100.860265 
L 208.294138 101.087637 
L 213.912852 101.083998 
L 219.531567 100.858825 
L 225.150282 100.426082 
L 231.705449 99.682276 
L 238.260616 98.711825 
L 245.752236 97.370702 
L 254.180308 95.633513 
L 266.35419 92.861323 
L 270.1 92.090585 
L 270.1 92.090585 
" style="fill:none;stroke:#ff0000;stroke-linecap:square;stroke-width:0.1;"/>
   </g>
   <g id="line2d_64">
    <path clip-path="url(#pac7cef8cea)" d="M 46.287862 91.854533 
L 47.224315 91.728803 
L 62.207554 87.809379 
L 70.635626 85.815703 
L 78.127246 84.266109 
L 84.682413 83.134376 
L 90.301128 82.363682 
L 95.919842 81.802861 
L 101.538557 81.47418 
L 107.157272 81.396755 
L 111.839534 81.534946 
L 116.521797 81.863406 
L 121.204059 82.384102 
L 125.886321 83.094838 
L 131.505036 84.188383 
L 137.123751 85.523124 
L 143.678918 87.339719 
L 151.170538 89.667869 
L 174.581849 97.164831 
L 181.137016 98.90734 
L 186.755731 100.164847 
L 192.374446 101.172517 
L 197.056708 101.807794 
L 201.73897 102.251611 
L 206.421233 102.503516 
L 211.103495 102.566957 
L 216.72221 102.403899 
L 222.340925 101.995536 
L 227.959639 101.362158 
L 234.514807 100.369733 
L 241.069974 99.142327 
L 248.561593 97.505619 
L 257.926118 95.20309 
L 270.1 92.106056 
L 270.1 92.106056 
" style="fill:none;stroke:#ff0000;stroke-linecap:square;stroke-width:0.1;"/>
   </g>
   <g id="line2d_65">
    <path clip-path="url(#pac7cef8cea)" d="M 46.287862 91.841301 
L 47.224315 91.702341 
L 62.207554 87.365949 
L 70.635626 85.15123 
L 78.127246 83.420532 
L 84.682413 82.147187 
L 90.301128 81.271463 
L 95.919842 80.624397 
L 101.538557 80.232161 
L 106.220819 80.116893 
L 110.903082 80.206127 
L 115.585344 80.508348 
L 120.267606 81.028414 
L 124.949869 81.766672 
L 129.632131 82.718055 
L 134.314393 83.871305 
L 139.933108 85.495822 
L 146.488275 87.665454 
L 154.916347 90.742617 
L 169.899587 96.295135 
L 176.454754 98.464766 
L 182.073469 100.089284 
L 186.755731 101.242534 
L 191.437993 102.193917 
L 196.120256 102.932174 
L 200.802518 103.452241 
L 205.48478 103.754461 
L 210.167043 103.843696 
L 214.849305 103.728428 
L 219.531567 103.419933 
L 225.150282 102.813583 
L 230.768997 101.974065 
L 237.324164 100.736956 
L 243.879331 99.266039 
L 251.370951 97.358622 
L 260.735475 94.737419 
L 270.1 92.119288 
L 270.1 92.119288 
" style="fill:none;stroke:#ff0000;stroke-linecap:square;stroke-width:0.1;"/>
   </g>
   <g id="line2d_66">
    <path clip-path="url(#pac7cef8cea)" d="M 46.287862 91.82995 
L 47.224315 91.679642 
L 62.207554 86.98514 
L 70.635626 84.579731 
L 77.190793 82.912238 
L 83.74596 81.477628 
L 89.364675 80.471362 
L 94.98339 79.704177 
L 99.665652 79.269128 
L 104.347915 79.037082 
L 109.030177 79.022514 
L 113.712439 79.237446 
L 118.394701 79.690526 
L 123.076964 80.385959 
L 127.759226 81.322367 
L 132.441488 82.491673 
L 137.123751 83.878161 
L 142.742465 85.794354 
L 149.297633 88.304314 
L 158.662157 92.176833 
L 168.963134 96.397727 
L 175.518302 98.832664 
L 181.137016 100.661741 
L 185.819279 101.96376 
L 190.501541 103.041347 
L 195.183803 103.881936 
L 199.866065 104.480254 
L 204.548328 104.837297 
L 209.23059 104.959179 
L 213.912852 104.856021 
L 218.595115 104.540927 
L 223.277377 104.02913 
L 228.896092 103.178849 
L 234.514807 102.099768 
L 241.069974 100.593488 
L 248.561593 98.607373 
L 256.989666 96.124815 
L 270.1 92.130638 
L 270.1 92.130638 
" style="fill:none;stroke:#ff0000;stroke-linecap:square;stroke-width:0.1;"/>
   </g>
   <g id="line2d_67">
    <path clip-path="url(#pac7cef8cea)" d="M 46.287862 91.820272 
L 47.224315 91.660286 
L 61.271101 86.960167 
L 69.699174 84.363466 
L 76.254341 82.54671 
L 82.809508 80.965276 
L 88.428223 79.837583 
L 94.046938 78.955744 
L 98.7292 78.432554 
L 103.411462 78.121346 
L 108.093724 78.03901 
L 112.775987 78.200254 
L 117.458249 78.616601 
L 122.140511 79.295189 
L 126.822774 80.237428 
L 131.505036 81.43761 
L 136.187298 82.881645 
L 140.869561 84.546144 
L 146.488275 86.787415 
L 153.979895 90.064466 
L 169.899587 97.173174 
L 175.518302 99.414445 
L 180.200564 101.078943 
L 184.882826 102.522978 
L 189.565088 103.723161 
L 194.247351 104.6654 
L 198.929613 105.343988 
L 203.611875 105.760334 
L 208.294138 105.921579 
L 212.9764 105.839243 
L 217.658662 105.528035 
L 222.340925 105.004845 
L 227.959639 104.123006 
L 233.578354 102.995313 
L 239.197069 101.655447 
L 245.752236 99.869055 
L 253.243856 97.597867 
L 263.544833 94.212127 
L 269.163548 92.300302 
L 270.1 92.140317 
L 270.1 92.140317 
" style="fill:none;stroke:#ff0000;stroke-linecap:square;stroke-width:0.1;"/>
   </g>
   <g id="line2d_68">
    <path clip-path="url(#pac7cef8cea)" d="M 46.287862 91.812155 
L 47.224315 91.644053 
L 61.271101 86.70318 
L 69.699174 83.968395 
L 76.254341 82.050438 
L 82.809508 80.375595 
L 88.428223 79.176045 
L 94.046938 78.232053 
L 98.7292 77.666195 
L 103.411462 77.322292 
L 108.093724 77.218978 
L 112.775987 77.372822 
L 117.458249 77.797239 
L 121.204059 78.337775 
L 124.949869 79.059185 
L 129.632131 80.21326 
L 134.314393 81.637876 
L 138.996656 83.313045 
L 143.678918 85.208045 
L 149.297633 87.713191 
L 157.725705 91.751925 
L 168.026682 96.679142 
L 173.645397 99.14729 
L 178.327659 101.001304 
L 183.009921 102.628472 
L 187.692184 104.000245 
L 192.374446 105.098708 
L 197.056708 105.915637 
L 201.73897 106.451085 
L 206.421233 106.711767 
L 211.103495 106.709477 
L 215.785757 106.459668 
L 220.46802 105.980261 
L 225.150282 105.290714 
L 230.768997 104.21448 
L 236.387711 102.900552 
L 242.942879 101.114701 
L 250.434498 98.808289 
L 258.86257 95.972019 
L 270.1 92.148434 
L 270.1 92.148434 
" style="fill:none;stroke:#ff0000;stroke-linecap:square;stroke-width:0.1;"/>
   </g>
   <g id="line2d_69">
    <path clip-path="url(#pac7cef8cea)" d="M 46.287862 91.805557 
L 47.224315 91.630858 
L 61.271101 86.494262 
L 69.699174 83.647148 
L 76.254341 81.646784 
L 81.873056 80.128439 
L 87.49177 78.829887 
L 93.110485 77.788394 
L 97.792747 77.143842 
L 102.47501 76.72507 
L 107.157272 76.552421 
L 111.839534 76.644481 
L 115.585344 76.919425 
L 119.331154 77.380117 
L 123.076964 78.030478 
L 126.822774 78.871585 
L 130.568583 79.901062 
L 135.250846 81.442628 
L 139.933108 83.245688 
L 144.61537 85.275921 
L 150.234085 87.946547 
L 159.59861 92.701657 
L 168.026682 96.927466 
L 173.645397 99.521329 
L 178.327659 101.465576 
L 183.009921 103.167486 
L 187.692184 104.597512 
L 191.437993 105.53334 
L 195.183803 106.27914 
L 198.929613 106.834341 
L 202.675423 107.201514 
L 206.421233 107.385782 
L 211.103495 107.369883 
L 215.785757 107.096435 
L 220.46802 106.584842 
L 225.150282 105.855906 
L 230.768997 104.724564 
L 236.387711 103.348631 
L 242.942879 101.48369 
L 250.434498 99.080334 
L 258.86257 96.12944 
L 270.1 92.155032 
L 270.1 92.155032 
" style="fill:none;stroke:#ff0000;stroke-linecap:square;stroke-width:0.1;"/>
   </g>
   <g id="line2d_70">
    <path clip-path="url(#pac7cef8cea)" d="M 46.287862 91.80049 
L 47.224315 91.620725 
L 61.271101 86.333869 
L 69.699174 83.400606 
L 76.254341 81.337099 
L 81.873056 79.768401 
L 87.49177 78.424016 
L 92.174033 77.502766 
L 96.856295 76.786452 
L 101.538557 76.29739 
L 106.220819 76.057206 
L 110.903082 76.086061 
L 114.648892 76.314817 
L 118.394701 76.734403 
L 122.140511 77.349964 
L 125.886321 78.163874 
L 129.632131 79.175085 
L 133.377941 80.378477 
L 138.060203 82.137612 
L 142.742465 84.151121 
L 148.36118 86.8417 
L 155.8528 90.732059 
L 168.026682 97.118888 
L 173.645397 99.809467 
L 178.327659 101.822977 
L 183.009921 103.582112 
L 186.755731 104.785504 
L 190.501541 105.796715 
L 194.247351 106.610625 
L 197.993161 107.226185 
L 201.73897 107.645772 
L 205.48478 107.874528 
L 209.23059 107.919743 
L 213.912852 107.731818 
L 218.595115 107.290835 
L 223.277377 106.6182 
L 227.959639 105.736138 
L 233.578354 104.432859 
L 239.197069 102.898908 
L 245.752236 100.868108 
L 253.243856 98.300404 
L 262.60838 94.843699 
L 269.163548 92.339864 
L 270.1 92.160099 
L 270.1 92.160099 
" style="fill:none;stroke:#ff0000;stroke-linecap:square;stroke-width:0.1;"/>
   </g>
   <g id="line2d_71">
    <path clip-path="url(#pac7cef8cea)" d="M 46.287862 91.797013 
L 47.224315 91.613771 
L 61.271101 86.22393 
L 69.699174 83.231878 
L 76.254341 81.125491 
L 81.873056 79.52277 
L 87.49177 78.147585 
L 92.174033 77.203691 
L 96.856295 76.468035 
L 101.538557 75.963529 
L 106.220819 75.712472 
L 109.966629 75.708226 
L 113.712439 75.889228 
L 117.458249 76.263627 
L 121.204059 76.837558 
L 124.949869 77.614513 
L 128.695679 78.594655 
L 132.441488 79.774124 
L 137.123751 81.515287 
L 141.806013 83.526088 
L 146.488275 85.765114 
L 153.043442 89.177939 
L 170.836039 98.65911 
L 175.518302 100.856436 
L 180.200564 102.816195 
L 184.882826 104.499638 
L 188.628636 105.629882 
L 192.374446 106.55942 
L 196.120256 107.285462 
L 199.866065 107.809068 
L 203.611875 108.134454 
L 207.357685 108.268314 
L 211.103495 108.219212 
L 215.785757 107.915735 
L 220.46802 107.363186 
L 225.150282 106.58404 
L 229.832544 105.601262 
L 235.451259 104.185452 
L 241.069974 102.548561 
L 247.625141 100.410232 
L 255.116761 97.736659 
L 265.417738 93.80974 
L 269.163548 92.346817 
L 270.1 92.163576 
L 270.1 92.163576 
" style="fill:none;stroke:#ff0000;stroke-linecap:square;stroke-width:0.1;"/>
   </g>
   <g id="line2d_72">
    <path clip-path="url(#pac7cef8cea)" d="M 46.287862 91.795231 
L 47.224315 91.610208 
L 61.271101 86.167816 
L 69.699174 83.146261 
L 76.254341 81.018776 
L 81.873056 79.399674 
L 87.49177 78.010031 
L 92.174033 77.05582 
L 96.856295 76.311661 
L 101.538557 75.800715 
L 106.220819 75.545546 
L 109.966629 75.53988 
L 113.712439 75.721288 
L 117.458249 76.098073 
L 121.204059 76.676515 
L 124.949869 77.460235 
L 128.695679 78.449497 
L 132.441488 79.640497 
L 137.123751 81.399446 
L 141.806013 83.431589 
L 146.488275 85.695094 
L 153.043442 89.146146 
L 170.836039 98.734248 
L 175.518302 100.95547 
L 180.200564 102.935887 
L 184.882826 104.636374 
L 188.628636 105.777544 
L 192.374446 106.715607 
L 196.120256 107.44784 
L 199.866065 107.975412 
L 203.611875 108.302674 
L 207.357685 108.43647 
L 211.103495 108.385516 
L 215.785757 108.077438 
L 220.46802 107.518016 
L 225.150282 106.729986 
L 229.832544 105.736555 
L 235.451259 104.305943 
L 241.069974 102.652382 
L 247.625141 100.492687 
L 255.116761 97.792772 
L 265.417738 93.827532 
L 269.163548 92.350381 
L 270.1 92.165358 
L 270.1 92.165358 
" style="fill:none;stroke:#ff0000;stroke-linecap:square;stroke-width:0.1;"/>
   </g>
   <g id="line2d_73">
    <path clip-path="url(#pac7cef8cea)" d="M 46.287862 91.795298 
L 47.224315 91.610342 
L 61.271101 86.170452 
L 69.699174 83.151413 
L 76.254341 81.026694 
L 81.873056 79.410584 
L 87.49177 78.024485 
L 92.174033 77.073583 
L 96.856295 76.332959 
L 101.538557 75.825633 
L 106.220819 75.573991 
L 109.966629 75.570933 
L 113.712439 75.75462 
L 117.458249 76.133215 
L 121.204059 76.712855 
L 124.949869 77.497022 
L 128.695679 78.485852 
L 132.441488 79.675439 
L 137.123751 81.431148 
L 141.806013 83.458406 
L 146.488275 85.715511 
L 153.043442 89.155629 
L 170.836039 98.712441 
L 175.518302 100.927549 
L 180.200564 102.903404 
L 184.882826 104.600983 
L 188.628636 105.740993 
L 192.374446 106.678854 
L 196.120256 107.411733 
L 199.866065 107.940671 
L 203.611875 108.269874 
L 207.357685 108.406043 
L 211.103495 108.357759 
L 215.785757 108.053244 
L 220.46802 107.497437 
L 225.150282 106.712906 
L 229.832544 105.722728 
L 235.451259 104.295571 
L 241.069974 102.644907 
L 247.625141 100.487869 
L 255.116761 97.790137 
L 265.417738 93.826846 
L 269.163548 92.350246 
L 270.1 92.16529 
L 270.1 92.16529 
" style="fill:none;stroke:#ff0000;stroke-linecap:square;stroke-width:0.1;"/>
   </g>
   <g id="line2d_74">
    <path clip-path="url(#pac7cef8cea)" d="M 46.287862 91.797426 
L 47.224315 91.614598 
L 61.271101 86.238561 
L 69.699174 83.257723 
L 76.254341 81.162361 
L 81.873056 79.570827 
L 87.49177 78.208319 
L 92.174033 77.275893 
L 96.856295 76.552187 
L 101.538557 76.059655 
L 106.220819 75.820003 
L 109.966629 75.823994 
L 113.712439 76.011994 
L 117.458249 76.391703 
L 121.204059 76.968795 
L 124.949869 77.746316 
L 128.695679 78.724027 
L 132.441488 79.897751 
L 137.123751 81.626789 
L 141.806013 83.619974 
L 147.424728 86.301926 
L 153.979895 89.71009 
L 169.899587 98.124237 
L 175.518302 100.758602 
L 180.200564 102.701823 
L 184.882826 104.374251 
L 188.628636 105.499602 
L 192.374446 106.427492 
L 196.120256 107.154788 
L 199.866065 107.682136 
L 203.611875 108.013297 
L 207.357685 108.154505 
L 212.039947 108.076407 
L 216.72221 107.733075 
L 221.404472 107.145412 
L 226.086734 106.335502 
L 230.768997 105.325938 
L 236.387711 103.882795 
L 242.006426 102.223446 
L 248.561593 100.064787 
L 256.989666 97.02688 
L 270.1 92.163162 
L 270.1 92.163162 
" style="fill:none;stroke:#ff0000;stroke-linecap:square;stroke-width:0.1;"/>
   </g>
   <g id="line2d_75">
    <path clip-path="url(#pac7cef8cea)" d="M 46.287862 91.801896 
L 47.224315 91.623538 
L 61.271101 86.381044 
L 69.699174 83.478862 
L 76.254341 81.442928 
L 81.873056 79.9003 
L 87.49177 78.583887 
L 92.174033 77.686875 
L 96.856295 76.994934 
L 101.538557 76.529466 
L 106.220819 76.310938 
L 110.903082 76.358127 
L 114.648892 76.598109 
L 118.394701 77.02494 
L 122.140511 77.642906 
L 125.886321 78.453574 
L 129.632131 79.455204 
L 134.314393 80.966791 
L 138.996656 82.746897 
L 143.678918 84.763126 
L 149.297633 87.431393 
L 157.725705 91.736793 
L 168.026682 96.989231 
L 173.645397 99.617644 
L 178.327659 101.589811 
L 183.009921 103.318425 
L 187.692184 104.773459 
L 191.437993 105.727714 
L 195.183803 106.490231 
L 198.929613 107.06015 
L 202.675423 107.439774 
L 206.421233 107.633977 
L 211.103495 107.626634 
L 215.785757 107.357148 
L 220.46802 106.844709 
L 225.150282 106.110023 
L 229.832544 105.174607 
L 235.451259 103.81788 
L 241.069974 102.24119 
L 247.625141 100.173288 
L 255.116761 97.579544 
L 265.417738 93.760882 
L 269.163548 92.337051 
L 270.1 92.158693 
L 270.1 92.158693 
" style="fill:none;stroke:#ff0000;stroke-linecap:square;stroke-width:0.1;"/>
   </g>
   <g id="line2d_76">
    <path clip-path="url(#pac7cef8cea)" d="M 46.287862 91.809073 
L 47.224315 91.637891 
L 61.271101 86.609407 
L 69.699174 83.832387 
L 76.254341 81.890254 
L 81.873056 80.424158 
L 87.49177 79.179168 
L 93.110485 78.191091 
L 97.792747 77.589385 
L 102.47501 77.210172 
L 107.157272 77.071749 
L 111.839534 77.190325 
L 116.521797 77.579023 
L 120.267606 78.090572 
L 124.013416 78.782687 
L 128.695679 79.900067 
L 133.377941 81.288712 
L 138.060203 82.929979 
L 142.742465 84.794968 
L 148.36118 87.272323 
L 155.8528 90.837974 
L 168.963134 97.116157 
L 174.581849 99.554777 
L 179.264111 101.377836 
L 183.946374 102.970556 
L 188.628636 104.306122 
L 193.310898 105.367863 
L 197.993161 106.148302 
L 202.675423 106.647804 
L 207.357685 106.873065 
L 212.039947 106.835644 
L 216.72221 106.550649 
L 221.404472 106.035646 
L 226.086734 105.309796 
L 231.705449 104.188807 
L 237.324164 102.828778 
L 243.879331 100.987796 
L 251.370951 98.617795 
L 260.735475 95.37825 
L 269.163548 92.322697 
L 270.1 92.151515 
L 270.1 92.151515 
" style="fill:none;stroke:#ff0000;stroke-linecap:square;stroke-width:0.1;"/>
   </g>
   <g id="line2d_77">
    <path clip-path="url(#pac7cef8cea)" d="M 46.287862 91.819412 
L 47.224315 91.658569 
L 61.271101 86.937903 
L 69.699174 84.339849 
L 76.254341 82.530892 
L 82.809508 80.966014 
L 88.428223 79.859415 
L 94.046938 79.004263 
L 98.7292 78.506549 
L 103.411462 78.22246 
L 108.093724 78.167318 
L 112.775987 78.353975 
L 117.458249 78.791895 
L 122.140511 79.486098 
L 126.822774 80.435988 
L 131.505036 81.634195 
L 136.187298 83.065551 
L 140.869561 84.706399 
L 146.488275 86.905872 
L 153.979895 90.110005 
L 170.836039 97.436159 
L 176.454754 99.59769 
L 181.137016 101.19895 
L 185.819279 102.585291 
L 190.501541 103.734787 
L 195.183803 104.633896 
L 199.866065 105.276693 
L 204.548328 105.6638 
L 209.23059 105.801217 
L 213.912852 105.699167 
L 218.595115 105.371062 
L 223.277377 104.832624 
L 228.896092 103.933326 
L 234.514807 102.787994 
L 240.133521 101.429696 
L 246.688688 99.62074 
L 254.180308 97.323356 
L 264.481285 93.905233 
L 269.163548 92.302019 
L 270.1 92.141176 
L 270.1 92.141176 
" style="fill:none;stroke:#ff0000;stroke-linecap:square;stroke-width:0.1;"/>
   </g>
   <g id="line2d_78">
    <path clip-path="url(#pac7cef8cea)" d="M 46.287862 91.833416 
L 47.224315 91.686576 
L 61.271101 87.382069 
L 69.699174 85.024307 
L 76.254341 83.392653 
L 82.809508 81.9925 
L 88.428223 81.013365 
L 94.046938 80.268986 
L 98.7292 79.847571 
L 103.411462 79.622055 
L 108.093724 79.604508 
L 112.775987 79.804378 
L 117.458249 80.227766 
L 122.140511 80.876622 
L 126.822774 81.747912 
L 131.505036 82.83285 
L 137.123751 84.394982 
L 142.742465 86.203661 
L 149.297633 88.554723 
L 159.59861 92.528977 
L 169.899587 96.439566 
L 176.454754 98.689111 
L 182.073469 100.380252 
L 186.755731 101.58653 
L 191.437993 102.58746 
L 196.120256 103.370492 
L 200.802518 103.929227 
L 205.48478 104.262723 
L 210.167043 104.374689 
L 214.849305 104.272659 
L 219.531567 103.967211 
L 225.150282 103.350505 
L 230.768997 102.485222 
L 236.387711 101.399517 
L 242.942879 99.894122 
L 250.434498 97.919099 
L 258.86257 95.462318 
L 270.1 92.127172 
L 270.1 92.127172 
" style="fill:none;stroke:#ff0000;stroke-linecap:square;stroke-width:0.1;"/>
   </g>
   <g id="line2d_79">
    <path clip-path="url(#pac7cef8cea)" d="M 46.287862 91.851387 
L 47.224315 91.722514 
L 62.207554 87.711898 
L 70.635626 85.684961 
L 78.127246 84.122752 
L 84.682413 82.994692 
L 90.301128 82.23799 
L 95.919842 81.700136 
L 101.538557 81.401547 
L 107.157272 81.35871 
L 111.839534 81.52682 
L 116.521797 81.883961 
L 121.204059 82.429963 
L 126.822774 83.328243 
L 132.441488 84.476436 
L 138.060203 85.848909 
L 144.61537 87.68564 
L 153.043442 90.306584 
L 172.708944 96.550479 
L 179.264111 98.354611 
L 184.882826 99.69191 
L 190.501541 100.79996 
L 196.120256 101.654795 
L 200.802518 102.163225 
L 205.48478 102.482454 
L 210.167043 102.613057 
L 215.785757 102.526648 
L 221.404472 102.186918 
L 227.023187 101.61108 
L 232.641902 100.82011 
L 239.197069 99.657322 
L 245.752236 98.275627 
L 254.180308 96.248691 
L 264.481285 93.522084 
L 269.163548 92.238075 
L 270.1 92.109202 
L 270.1 92.109202 
" style="fill:none;stroke:#ff0000;stroke-linecap:square;stroke-width:0.1;"/>
   </g>
   <g id="line2d_80">
    <path clip-path="url(#pac7cef8cea)" d="M 46.287862 91.872526 
L 48.160767 91.549411 
L 62.207554 88.418991 
L 70.635626 86.741681 
L 78.127246 85.462733 
L 84.682413 84.552706 
L 91.23758 83.872368 
L 96.856295 83.493339 
L 102.47501 83.317579 
L 108.093724 83.354907 
L 113.712439 83.610315 
L 119.331154 84.083264 
L 124.949869 84.767071 
L 131.505036 85.813253 
L 138.060203 87.095356 
L 145.551823 88.791541 
L 155.8528 91.375236 
L 171.772492 95.391999 
L 179.264111 97.06126 
L 185.819279 98.312133 
L 192.374446 99.321649 
L 197.993161 99.971052 
L 203.611875 100.408036 
L 209.23059 100.626977 
L 214.849305 100.628305 
L 220.46802 100.417865 
L 226.086734 100.006211 
L 232.641902 99.291223 
L 239.197069 98.350966 
L 246.688688 97.043654 
L 255.116761 95.343097 
L 267.290643 92.626305 
L 270.1 92.088062 
L 270.1 92.088062 
" style="fill:none;stroke:#ff0000;stroke-linecap:square;stroke-width:0.1;"/>
   </g>
   <g id="line2d_81">
    <path clip-path="url(#pac7cef8cea)" d="M 46.287862 91.893411 
L 48.160767 91.632923 
L 63.144006 88.956979 
L 72.508531 87.503843 
L 80.000151 86.541924 
L 87.49177 85.804842 
L 94.046938 85.372199 
L 100.602105 85.156564 
L 107.157272 85.169331 
L 113.712439 85.414596 
L 120.267606 85.88842 
L 126.822774 86.578336 
L 134.314393 87.603925 
L 142.742465 89.005532 
L 153.979895 91.142153 
L 174.581849 95.121465 
L 183.009921 96.497372 
L 190.501541 97.493334 
L 197.056708 98.153472 
L 203.611875 98.595207 
L 210.167043 98.807305 
L 216.72221 98.787012 
L 223.277377 98.539519 
L 229.832544 98.077191 
L 237.324164 97.30991 
L 244.815784 96.32275 
L 254.180308 94.846224 
L 266.35419 92.674172 
L 270.1 92.067178 
L 270.1 92.067178 
" style="fill:none;stroke:#ff0000;stroke-linecap:square;stroke-width:0.1;"/>
   </g>
   <g id="line2d_82">
    <path clip-path="url(#pac7cef8cea)" d="M 46.287862 91.909905 
L 48.160767 91.698872 
L 64.080459 89.408787 
L 74.381436 88.157469 
L 82.809508 87.35519 
L 90.301128 86.849834 
L 97.792747 86.565458 
L 105.284367 86.517417 
L 112.775987 86.711119 
L 120.267606 87.14122 
L 127.759226 87.791284 
L 136.187298 88.751155 
L 146.488275 90.175626 
L 164.280872 92.932049 
L 177.391206 94.844231 
L 186.755731 95.975389 
L 195.183803 96.749682 
L 202.675423 97.208405 
L 210.167043 97.432175 
L 217.658662 97.414271 
L 225.150282 97.158792 
L 232.641902 96.679904 
L 241.069974 95.903226 
L 250.434498 94.797513 
L 261.671928 93.236195 
L 270.1 92.050684 
L 270.1 92.050684 
" style="fill:none;stroke:#ff0000;stroke-linecap:square;stroke-width:0.1;"/>
   </g>
   <g id="line2d_83">
    <path clip-path="url(#pac7cef8cea)" d="M 46.287862 91.921523 
L 48.160767 91.745327 
L 65.016911 89.732044 
L 75.317888 88.712069 
L 84.682413 88.011576 
L 93.110485 87.608399 
L 101.538557 87.446011 
L 109.030177 87.513402 
L 117.458249 87.825926 
L 125.886321 88.374043 
L 135.250846 89.223381 
L 146.488275 90.49522 
L 184.882826 95.10414 
L 194.247351 95.857681 
L 202.675423 96.303885 
L 211.103495 96.505959 
L 218.595115 96.473179 
L 227.023187 96.201563 
L 235.451259 95.698454 
L 244.815784 94.904058 
L 256.053213 93.699882 
L 270.1 92.039065 
L 270.1 92.039065 
" style="fill:none;stroke:#ff0000;stroke-linecap:square;stroke-width:0.1;"/>
   </g>
   <g id="line2d_84">
    <path clip-path="url(#pac7cef8cea)" d="M 46.287862 91.929732 
L 49.097219 91.67724 
L 66.889816 89.874089 
L 78.127246 88.970451 
L 87.49177 88.436988 
L 95.919842 88.161665 
L 104.347915 88.097889 
L 112.775987 88.250772 
L 121.204059 88.6133 
L 130.568583 89.238388 
L 140.869561 90.146373 
L 155.8528 91.722289 
L 177.391206 93.993415 
L 188.628636 94.932187 
L 197.993161 95.49049 
L 206.421233 95.78467 
L 214.849305 95.865508 
L 223.277377 95.730062 
L 231.705449 95.387376 
L 241.069974 94.788472 
L 252.307403 93.824995 
L 267.290643 92.283349 
L 270.1 92.030857 
L 270.1 92.030857 
" style="fill:none;stroke:#ff0000;stroke-linecap:square;stroke-width:0.1;"/>
   </g>
   <g id="line2d_85">
    <path clip-path="url(#pac7cef8cea)" d="M 46.287862 91.935752 
L 49.097219 91.713328 
L 66.889816 90.125644 
L 78.127246 89.331356 
L 88.428223 88.828126 
L 97.792747 88.595055 
L 107.157272 88.593891 
L 116.521797 88.826133 
L 125.886321 89.277064 
L 136.187298 89.989132 
L 149.297633 91.129619 
L 183.009921 94.18518 
L 193.310898 94.840252 
L 202.675423 95.228072 
L 212.039947 95.391101 
L 221.404472 95.319473 
L 230.768997 95.019506 
L 241.069974 94.452124 
L 252.307403 93.60484 
L 268.227095 92.158372 
L 270.1 92.024836 
L 270.1 92.024836 
" style="fill:none;stroke:#ff0000;stroke-linecap:square;stroke-width:0.1;"/>
   </g>
   <g id="line2d_86">
    <path clip-path="url(#pac7cef8cea)" d="M 46.287862 91.940336 
L 49.097219 91.740802 
L 67.826269 90.250401 
L 80.000151 89.507792 
L 90.301128 89.097876 
L 99.665652 88.931139 
L 109.030177 88.973629 
L 118.394701 89.223419 
L 128.695679 89.717686 
L 140.869561 90.542809 
L 157.725705 91.93984 
L 179.264111 93.694638 
L 191.437993 94.447173 
L 201.73897 94.861232 
L 211.103495 95.029266 
L 220.46802 94.987483 
L 230.768997 94.704211 
L 241.069974 94.196581 
L 253.243856 93.366562 
L 270.1 92.020253 
L 270.1 92.020253 
" style="fill:none;stroke:#ff0000;stroke-linecap:square;stroke-width:0.1;"/>
   </g>
   <g id="line2d_87">
    <path clip-path="url(#pac7cef8cea)" d="M 46.287862 91.943934 
L 50.033672 91.689955 
L 68.762721 90.347042 
L 80.936603 89.689464 
L 92.174033 89.314479 
L 102.47501 89.200457 
L 112.775987 89.317296 
L 123.076964 89.656215 
L 134.314393 90.24643 
L 148.36118 91.218991 
L 184.882826 93.880568 
L 196.120256 94.417585 
L 206.421233 94.697902 
L 216.72221 94.751837 
L 227.023187 94.575865 
L 237.324164 94.185463 
L 249.498046 93.493574 
L 265.417738 92.342848 
L 270.1 92.016655 
L 270.1 92.016655 
" style="fill:none;stroke:#ff0000;stroke-linecap:square;stroke-width:0.1;"/>
   </g>
   <g id="line2d_88">
    <path clip-path="url(#pac7cef8cea)" d="M 46.287862 91.946827 
L 50.033672 91.713056 
L 69.699174 90.423576 
L 81.873056 89.835311 
L 93.110485 89.509982 
L 103.411462 89.424911 
L 113.712439 89.552129 
L 124.949869 89.920957 
L 137.123751 90.54988 
L 153.043442 91.610429 
L 182.073469 93.573721 
L 194.247351 94.15282 
L 205.48478 94.463965 
L 215.785757 94.533521 
L 226.086734 94.391169 
L 237.324164 94.009322 
L 249.498046 93.372977 
L 266.35419 92.247532 
L 270.1 92.013762 
L 270.1 92.013762 
" style="fill:none;stroke:#ff0000;stroke-linecap:square;stroke-width:0.1;"/>
   </g>
   <g id="line2d_89">
    <path clip-path="url(#pac7cef8cea)" d="M 46.287862 91.949197 
L 50.033672 91.731987 
L 69.699174 90.534038 
L 82.809508 89.954669 
L 94.046938 89.670858 
L 105.284367 89.614461 
L 116.521797 89.791767 
L 127.759226 90.185927 
L 140.869561 90.867346 
L 161.471515 92.199164 
L 182.073469 93.459124 
L 195.183803 94.029192 
L 206.421233 94.300206 
L 217.658662 94.341753 
L 228.896092 94.15046 
L 241.069974 93.703623 
L 255.116761 92.946545 
L 270.1 92.011391 
L 270.1 92.011391 
" style="fill:none;stroke:#ff0000;stroke-linecap:square;stroke-width:0.1;"/>
   </g>
   <g id="line2d_90">
    <path clip-path="url(#pac7cef8cea)" d="M 46.287862 91.951169 
L 50.033672 91.747732 
L 70.635626 90.580145 
L 83.74596 90.053827 
L 95.919842 89.79417 
L 107.157272 89.778362 
L 118.394701 89.980139 
L 130.568583 90.421246 
L 145.551823 91.205925 
L 189.565088 93.697237 
L 201.73897 94.071119 
L 212.9764 94.201476 
L 224.213829 94.112543 
L 236.387711 93.780081 
L 249.498046 93.192053 
L 268.227095 92.096735 
L 270.1 92.009419 
L 270.1 92.009419 
" style="fill:none;stroke:#ff0000;stroke-linecap:square;stroke-width:0.1;"/>
   </g>
   <g id="line2d_91">
    <path clip-path="url(#pac7cef8cea)" d="M 46.287862 91.952828 
L 50.970124 91.706435 
L 71.572078 90.617818 
L 84.682413 90.13717 
L 96.856295 89.910241 
L 108.093724 89.912895 
L 120.267606 90.145829 
L 133.377941 90.633506 
L 149.297633 91.461259 
L 185.819279 93.449527 
L 198.929613 93.888812 
L 211.103495 94.067853 
L 222.340925 94.018664 
L 234.514807 93.739381 
L 247.625141 93.213446 
L 265.417738 92.254153 
L 270.1 92.00776 
L 270.1 92.00776 
" style="fill:none;stroke:#ff0000;stroke-linecap:square;stroke-width:0.1;"/>
   </g>
   <g id="line2d_92">
    <path clip-path="url(#pac7cef8cea)" d="M 46.287862 91.954238 
L 50.970124 91.720486 
L 71.572078 90.687817 
L 85.618865 90.207846 
L 97.792747 90.00967 
L 109.966629 90.039248 
L 122.140511 90.293657 
L 136.187298 90.827416 
L 154.916347 91.797343 
L 183.009921 93.257274 
L 197.056708 93.744478 
L 209.23059 93.94866 
L 221.404472 93.924962 
L 233.578354 93.676624 
L 247.625141 93.150109 
L 266.35419 92.188355 
L 270.1 92.006351 
L 270.1 92.006351 
" style="fill:none;stroke:#ff0000;stroke-linecap:square;stroke-width:0.1;"/>
   </g>
   <g id="line2d_93">
    <path clip-path="url(#pac7cef8cea)" d="M 46.287862 91.955443 
L 50.970124 91.732502 
L 72.508531 90.710336 
L 86.555318 90.268172 
L 98.7292 90.095572 
L 110.903082 90.140851 
L 124.013416 90.427194 
L 138.060203 90.963984 
L 158.662157 92.005244 
L 183.009921 93.197671 
L 197.056708 93.662265 
L 209.23059 93.857088 
L 221.404472 93.834653 
L 233.578354 93.597978 
L 247.625141 93.095955 
L 266.35419 92.178733 
L 270.1 92.005146 
L 270.1 92.005146 
" style="fill:none;stroke:#ff0000;stroke-linecap:square;stroke-width:0.1;"/>
   </g>
   <g id="line2d_94">
    <path clip-path="url(#pac7cef8cea)" d="M 46.287862 91.956478 
L 50.970124 91.742829 
L 72.508531 90.763324 
L 86.555318 90.339716 
L 99.665652 90.170295 
L 111.839534 90.229981 
L 124.949869 90.520268 
L 139.933108 91.088684 
L 164.280872 92.28948 
L 184.882826 93.218081 
L 198.929613 93.633382 
L 212.039947 93.792287 
L 224.213829 93.722399 
L 237.324164 93.42287 
L 252.307403 92.848278 
L 270.1 92.00411 
L 270.1 92.00411 
" style="fill:none;stroke:#ff0000;stroke-linecap:square;stroke-width:0.1;"/>
   </g>
   <g id="line2d_95">
    <path clip-path="url(#pac7cef8cea)" d="M 46.287862 91.957371 
L 50.970124 91.751732 
L 72.508531 90.809002 
L 87.49177 90.382305 
L 100.602105 90.235642 
L 113.712439 90.322608 
L 126.822774 90.63193 
L 142.742465 91.245102 
L 195.183803 93.48645 
L 208.294138 93.703857 
L 221.404472 93.690236 
L 234.514807 93.447801 
L 249.498046 92.933811 
L 270.1 92.003217 
L 270.1 92.003217 
" style="fill:none;stroke:#ff0000;stroke-linecap:square;stroke-width:0.1;"/>
   </g>
   <g id="line2d_96">
    <path clip-path="url(#pac7cef8cea)" d="M 46.287862 91.958142 
L 51.906577 91.715579 
L 73.444983 90.815954 
L 88.428223 90.418817 
L 101.538557 90.29302 
L 114.648892 90.393198 
L 128.695679 90.735822 
L 145.551823 91.393013 
L 191.437993 93.337644 
L 205.48478 93.618875 
L 218.595115 93.654496 
L 231.705449 93.465993 
L 245.752236 93.044878 
L 264.481285 92.24501 
L 270.1 92.002447 
L 270.1 92.002447 
" style="fill:none;stroke:#ff0000;stroke-linecap:square;stroke-width:0.1;"/>
   </g>
   <g id="line2d_97">
    <path clip-path="url(#pac7cef8cea)" d="M 46.287862 91.958807 
L 51.906577 91.723529 
L 73.444983 90.850959 
L 88.428223 90.465823 
L 101.538557 90.343882 
L 114.648892 90.441106 
L 128.695679 90.773436 
L 145.551823 91.410781 
L 191.437993 93.296632 
L 205.48478 93.569432 
L 218.595115 93.604048 
L 231.705449 93.421284 
L 246.688688 92.979175 
L 266.35419 92.151865 
L 270.1 92.001781 
L 270.1 92.001781 
" style="fill:none;stroke:#ff0000;stroke-linecap:square;stroke-width:0.1;"/>
   </g>
   <g id="line2d_98">
    <path clip-path="url(#pac7cef8cea)" d="M 46.287862 91.95938 
L 51.906577 91.730373 
L 74.381436 90.851187 
L 89.364675 90.490913 
L 102.47501 90.38732 
L 115.585344 90.497095 
L 129.632131 90.834514 
L 147.424728 91.505416 
L 189.565088 93.209775 
L 203.611875 93.504686 
L 216.72221 93.568983 
L 229.832544 93.420547 
L 244.815784 93.017446 
L 263.544833 92.271434 
L 270.1 92.001209 
L 270.1 92.001209 
" style="fill:none;stroke:#ff0000;stroke-linecap:square;stroke-width:0.1;"/>
   </g>
   <g id="line2d_99">
    <path clip-path="url(#pac7cef8cea)" d="M 46.287862 91.95987 
L 51.906577 91.736234 
L 74.381436 90.877691 
L 89.364675 90.525916 
L 103.411462 90.425561 
L 117.458249 90.563885 
L 132.441488 90.950242 
L 151.170538 91.675222 
L 186.755731 93.099051 
L 201.73897 93.442976 
L 215.785757 93.534076 
L 229.832544 93.386707 
L 244.815784 92.993105 
L 264.481285 92.224355 
L 270.1 92.000718 
L 270.1 92.000718 
" style="fill:none;stroke:#ff0000;stroke-linecap:square;stroke-width:0.1;"/>
   </g>
   <g id="line2d_100">
    <path clip-path="url(#pac7cef8cea)" d="M 46.287862 91.960287 
L 51.906577 91.741212 
L 74.381436 90.900202 
L 89.364675 90.555643 
L 103.411462 90.457379 
L 117.458249 90.592908 
L 132.441488 90.971371 
L 151.170538 91.681484 
L 186.755731 93.076107 
L 201.73897 93.413013 
L 215.785757 93.502286 
L 229.832544 93.357967 
L 244.815784 92.97243 
L 264.481285 92.219377 
L 270.1 92.000302 
L 270.1 92.000302 
" style="fill:none;stroke:#ff0000;stroke-linecap:square;stroke-width:0.1;"/>
   </g>
   <g id="line2d_101">
    <path clip-path="url(#pac7cef8cea)" d="M 46.287862 91.960636 
L 51.906577 91.745388 
L 74.381436 90.919083 
L 89.364675 90.580574 
L 103.411462 90.484062 
L 117.458249 90.617245 
L 132.441488 90.989087 
L 152.10699 91.725463 
L 186.755731 93.056868 
L 201.73897 93.387886 
L 215.785757 93.475626 
L 229.832544 93.333864 
L 244.815784 92.95509 
L 264.481285 92.215201 
L 270.1 91.999952 
L 270.1 91.999952 
" style="fill:none;stroke:#ff0000;stroke-linecap:square;stroke-width:0.1;"/>
   </g>
   <g id="line2d_102">
    <path clip-path="url(#pac7cef8cea)" d="M 46.287862 91.960924 
L 51.906577 91.748825 
L 74.381436 90.934624 
L 89.364675 90.601093 
L 103.411462 90.506021 
L 117.458249 90.637273 
L 132.441488 91.003666 
L 152.10699 91.729214 
L 186.755731 93.041036 
L 201.73897 93.367208 
L 215.785757 93.453685 
L 229.832544 93.314025 
L 244.815784 92.940817 
L 264.481285 92.211764 
L 270.1 91.999664 
L 270.1 91.999664 
" style="fill:none;stroke:#ff0000;stroke-linecap:square;stroke-width:0.1;"/>
   </g>
   <g id="line2d_103">
    <path clip-path="url(#pac7cef8cea)" d="M 46.287862 91.961154 
L 51.906577 91.751574 
L 74.381436 90.947053 
L 90.301128 90.604397 
L 104.347915 90.525308 
L 118.394701 90.669596 
L 133.377941 91.044391 
L 153.979895 91.808108 
L 185.819279 93.001373 
L 201.73897 93.350673 
L 215.785757 93.436138 
L 229.832544 93.298159 
L 244.815784 92.929402 
L 264.481285 92.209015 
L 270.1 91.999434 
L 270.1 91.999434 
" style="fill:none;stroke:#ff0000;stroke-linecap:square;stroke-width:0.1;"/>
   </g>
   <g id="line2d_104">
    <path clip-path="url(#pac7cef8cea)" d="M 46.287862 91.96133 
L 51.906577 91.753674 
L 75.317888 90.930148 
L 90.301128 90.617054 
L 104.347915 90.538707 
L 118.394701 90.68168 
L 134.314393 91.082468 
L 154.916347 91.847486 
L 185.819279 92.991952 
L 201.73897 93.338042 
L 215.785757 93.422735 
L 229.832544 93.286039 
L 244.815784 92.920681 
L 265.417738 92.169384 
L 270.1 91.999259 
L 270.1 91.999259 
" style="fill:none;stroke:#ff0000;stroke-linecap:square;stroke-width:0.1;"/>
   </g>
   <g id="line2d_105">
    <path clip-path="url(#pac7cef8cea)" d="M 46.287862 91.961454 
L 51.906577 91.755154 
L 75.317888 90.937013 
L 91.23758 90.61401 
L 105.284367 90.550839 
L 119.331154 90.707141 
L 135.250846 91.118227 
L 156.789252 91.923685 
L 185.819279 92.985313 
L 201.73897 93.329141 
L 215.785757 93.413289 
L 229.832544 93.277497 
L 245.752236 92.885616 
L 266.35419 92.130733 
L 270.1 91.999135 
L 270.1 91.999135 
" style="fill:none;stroke:#ff0000;stroke-linecap:square;stroke-width:0.1;"/>
   </g>
   <g id="line2d_106">
    <path clip-path="url(#pac7cef8cea)" d="M 46.287862 91.961527 
L 51.906577 91.756034 
L 75.317888 90.941095 
L 91.23758 90.619362 
L 105.284367 90.556445 
L 119.331154 90.712139 
L 135.250846 91.121614 
L 156.789252 91.923907 
L 185.819279 92.981365 
L 201.73897 93.323848 
L 215.785757 93.407671 
L 229.832544 93.272418 
L 245.752236 92.882075 
L 266.35419 92.130145 
L 270.1 91.999061 
L 270.1 91.999061 
" style="fill:none;stroke:#ff0000;stroke-linecap:square;stroke-width:0.1;"/>
   </g>
   <g id="line2d_107">
    <path clip-path="url(#pac7cef8cea)" d="M 46.287862 91.961552 
L 52.843029 91.719389 
L 75.317888 90.94245 
L 91.23758 90.621138 
L 105.284367 90.558305 
L 119.331154 90.713798 
L 135.250846 91.122739 
L 156.789252 91.923981 
L 185.819279 92.980054 
L 201.73897 93.322091 
L 215.785757 93.405807 
L 229.832544 93.270732 
L 245.752236 92.880899 
L 266.35419 92.12995 
L 270.1 91.999037 
L 270.1 91.999037 
" style="fill:none;stroke:#ff0000;stroke-linecap:square;stroke-width:0.1;"/>
   </g>
   <g id="patch_3">
    <path d="M 46.287862 173.260589 
L 46.287862 10.7 
" style="fill:none;stroke:#000000;stroke-linecap:square;stroke-linejoin:miter;stroke-width:0.8;"/>
   </g>
   <g id="patch_4">
    <path d="M 270.1 173.260589 
L 270.1 10.7 
" style="fill:none;stroke:#000000;stroke-linecap:square;stroke-linejoin:miter;stroke-width:0.8;"/>
   </g>
   <g id="patch_5">
    <path d="M 46.287862 173.260589 
L 270.1 173.260589 
" style="fill:none;stroke:#000000;stroke-linecap:square;stroke-linejoin:miter;stroke-width:0.8;"/>
   </g>
   <g id="patch_6">
    <path d="M 46.287862 10.7 
L 270.1 10.7 
" style="fill:none;stroke:#000000;stroke-linecap:square;stroke-linejoin:miter;stroke-width:0.8;"/>
   </g>
  </g>
 </g>
 <defs>
  <clipPath id="pac7cef8cea">
   <rect height="162.560589" width="223.812138" x="46.287862" y="10.7"/>
  </clipPath>
 </defs>
</svg>
